AnekBangla-Thin.ufo
<glyph name="exclam" format="2">
	<advance width="424"/>
	<unicode hex="0021"/>
	<outline>
		<contour>
			<point x="227" y="362" type="line"/>
			<point x="232" y="1278" type="line"/>
			<point x="191" y="1278" type="line"/>
			<point x="197" y="362" type="line"/>
		</contour>
		<contour>
			<point x="211" y="-12" type="curve" smooth="yes"/>
			<point x="241" y="-12"/>
			<point x="256" y="7"/>
			<point x="256" y="45" type="curve" smooth="yes"/>
			<point x="256" y="55" type="line" smooth="yes"/>
			<point x="256" y="92"/>
			<point x="241" y="110"/>
			<point x="211" y="110" type="curve" smooth="yes"/>
			<point x="183" y="110"/>
			<point x="168" y="92"/>
			<point x="168" y="55" type="curve" smooth="yes"/>
			<point x="168" y="45" type="line" smooth="yes"/>
			<point x="168" y="7"/>
			<point x="183" y="-12"/>
		</contour>
	</outline>
</glyph>
<glyph name="parenright" format="2">
  <advance width="535"/>
  <unicode hex="0029"/>
  <outline>
    <contour>
      <point x="322" y="644" type="curve" smooth="yes"/>
      <point x="322" y="470" type="line" smooth="yes"/>
      <point x="322" y="161"/>
      <point x="247" y="-40"/>
      <point x="90" y="-236" type="curve"/>
      <point x="135" y="-236" type="line"/>
      <point x="285" y="-46"/>
      <point x="360" y="154"/>
      <point x="360" y="467" type="curve" smooth="yes"/>
      <point x="360" y="647" type="line" smooth="yes"/>
      <point x="360" y="960"/>
      <point x="285" y="1160"/>
      <point x="135" y="1350" type="curve"/>
      <point x="90" y="1350" type="line"/>
      <point x="247" y="1155"/>
      <point x="322" y="953"/>
    </contour>
  </outline>
</glyph>
<glyph name="comma" format="2">
  <advance width="300"/>
  <unicode hex="002C"/>
  <outline>
    <contour>
      <point x="174" y="223" type="curve"/>
      <point x="136" y="223" type="line"/>
      <point x="142" y="188"/>
      <point x="145" y="150"/>
      <point x="145" y="111" type="curve" smooth="yes"/>
      <point x="145" y="-33"/>
      <point x="112" y="-147"/>
      <point x="32" y="-257" type="curve"/>
      <point x="55" y="-279" type="line"/>
      <point x="149" y="-159"/>
      <point x="183" y="-37"/>
      <point x="183" y="112" type="curve" smooth="yes"/>
      <point x="183" y="160"/>
      <point x="177" y="204"/>
    </contour>
  </outline>
</glyph>
<glyph name="one" format="2">
  <advance width="624"/>
  <unicode hex="0031"/>
  <outline>
    <contour>
      <point x="403" y="0" type="line"/>
      <point x="442" y="0" type="line"/>
      <point x="442" y="1278" type="line"/>
      <point x="377" y="1278" type="line"/>
      <point x="67" y="1059" type="line"/>
      <point x="65" y="1014" type="line"/>
      <point x="392" y="1244" type="line"/>
      <point x="403" y="1244" type="line"/>
    </contour>
  </outline>
</glyph>
<glyph name="five" format="2">
  <advance width="1003"/>
  <unicode hex="0035"/>
  <outline>
    <contour>
      <point x="507" y="-18" type="curve" smooth="yes"/>
      <point x="758" y="-18"/>
      <point x="886" y="120"/>
      <point x="886" y="346" type="curve" smooth="yes"/>
      <point x="886" y="442" type="line" smooth="yes"/>
      <point x="886" y="664"/>
      <point x="772" y="794"/>
      <point x="545" y="794" type="curve" smooth="yes"/>
      <point x="369" y="794"/>
      <point x="252" y="713"/>
      <point x="187" y="607" type="curve"/>
      <point x="195" y="602" type="line"/>
      <point x="198" y="838" type="line"/>
      <point x="198" y="1244" type="line"/>
      <point x="864" y="1244" type="line"/>
      <point x="864" y="1278" type="line"/>
      <point x="161" y="1278" type="line"/>
      <point x="161" y="578" type="line"/>
      <point x="191" y="569" type="line"/>
      <point x="270" y="694"/>
      <point x="385" y="759"/>
      <point x="542" y="759" type="curve" smooth="yes"/>
      <point x="749" y="759"/>
      <point x="847" y="638"/>
      <point x="847" y="439" type="curve" smooth="yes"/>
      <point x="847" y="347" type="line" smooth="yes"/>
      <point x="847" y="138"/>
      <point x="730" y="18"/>
      <point x="507" y="18" type="curve" smooth="yes"/>
      <point x="354" y="18"/>
      <point x="244" y="64"/>
      <point x="160" y="118" type="curve"/>
      <point x="167" y="73" type="line"/>
      <point x="230" y="32"/>
      <point x="340" y="-18"/>
    </contour>
  </outline>
</glyph>
<glyph name="six" format="2">
  <advance width="1024"/>
  <unicode hex="0036"/>
  <outline>
    <contour>
      <point x="536" y="-18" type="curve" smooth="yes"/>
      <point x="787" y="-18"/>
      <point x="910" y="131"/>
      <point x="910" y="349" type="curve" smooth="yes"/>
      <point x="910" y="441" type="line" smooth="yes"/>
      <point x="910" y="665"/>
      <point x="791" y="799"/>
      <point x="561" y="799" type="curve" smooth="yes"/>
      <point x="326" y="799"/>
      <point x="192" y="655"/>
      <point x="155" y="477" type="curve"/>
      <point x="143" y="477" type="line"/>
      <point x="164" y="450" type="line"/>
      <point x="215" y="637"/>
      <point x="342" y="764"/>
      <point x="557" y="764" type="curve" smooth="yes"/>
      <point x="768" y="764"/>
      <point x="871" y="640"/>
      <point x="871" y="439" type="curve" smooth="yes"/>
      <point x="871" y="349" type="line" smooth="yes"/>
      <point x="871" y="155"/>
      <point x="762" y="18"/>
      <point x="536" y="18" type="curve" smooth="yes"/>
      <point x="306" y="18"/>
      <point x="167" y="155"/>
      <point x="167" y="421" type="curve" smooth="yes"/>
      <point x="167" y="838" type="line" smooth="yes"/>
      <point x="167" y="1106"/>
      <point x="286" y="1259"/>
      <point x="543" y="1259" type="curve" smooth="yes"/>
      <point x="689" y="1259"/>
      <point x="775" y="1220"/>
      <point x="860" y="1166" type="curve"/>
      <point x="855" y="1208" type="line"/>
      <point x="789" y="1250"/>
      <point x="697" y="1295"/>
      <point x="543" y="1295" type="curve" smooth="yes"/>
      <point x="264" y="1295"/>
      <point x="128" y="1128"/>
      <point x="128" y="838" type="curve" smooth="yes"/>
      <point x="128" y="421" type="line" smooth="yes"/>
      <point x="128" y="135"/>
      <point x="278" y="-18"/>
    </contour>
  </outline>
</glyph>
<glyph name="eight" format="2">
	<advance width="1070"/>
	<unicode hex="0038"/>
	<outline>
		<contour>
			<point x="535" y="-23" type="curve" smooth="yes"/>
			<point x="809" y="-23"/>
			<point x="948" y="96"/>
			<point x="948" y="317" type="curve" smooth="yes"/>
			<point x="948" y="349" type="line" smooth="yes"/>
			<point x="948" y="543"/>
			<point x="823" y="651"/>
			<point x="621" y="665" type="curve"/>
			<point x="621" y="658" type="line"/>
			<point x="808" y="665"/>
			<point x="931" y="769"/>
			<point x="931" y="950" type="curve" smooth="yes"/>
			<point x="931" y="981" type="line" smooth="yes"/>
			<point x="931" y="1188"/>
			<point x="796" y="1298"/>
			<point x="535" y="1298" type="curve" smooth="yes"/>
			<point x="274" y="1298"/>
			<point x="140" y="1188"/>
			<point x="140" y="981" type="curve" smooth="yes"/>
			<point x="140" y="950" type="line" smooth="yes"/>
			<point x="140" y="769"/>
			<point x="262" y="665"/>
			<point x="449" y="658" type="curve"/>
			<point x="449" y="665" type="line"/>
			<point x="248" y="651"/>
			<point x="122" y="543"/>
			<point x="122" y="349" type="curve" smooth="yes"/>
			<point x="122" y="317" type="line" smooth="yes"/>
			<point x="122" y="96"/>
			<point x="262" y="-23"/>
		</contour>
		<contour>
			<point x="535" y="13" type="curve" smooth="yes"/>
			<point x="288" y="13"/>
			<point x="161" y="119"/>
			<point x="161" y="314" type="curve" smooth="yes"/>
			<point x="161" y="351" type="line" smooth="yes"/>
			<point x="161" y="539"/>
			<point x="280" y="643"/>
			<point x="535" y="643" type="curve" smooth="yes"/>
			<point x="790" y="643"/>
			<point x="909" y="539"/>
			<point x="909" y="351" type="curve" smooth="yes"/>
			<point x="909" y="314" type="line" smooth="yes"/>
			<point x="909" y="119"/>
			<point x="782" y="13"/>
		</contour>
		<contour>
			<point x="535" y="678" type="curve" smooth="yes"/>
			<point x="290" y="678"/>
			<point x="179" y="776"/>
			<point x="179" y="949" type="curve" smooth="yes"/>
			<point x="179" y="983" type="line" smooth="yes"/>
			<point x="179" y="1166"/>
			<point x="297" y="1262"/>
			<point x="535" y="1262" type="curve" smooth="yes"/>
			<point x="773" y="1262"/>
			<point x="892" y="1166"/>
			<point x="892" y="983" type="curve" smooth="yes"/>
			<point x="892" y="949" type="line" smooth="yes"/>
			<point x="892" y="776"/>
			<point x="780" y="678"/>
		</contour>
	</outline>
</glyph>
<glyph name="nine" format="2">
	<advance width="1020"/>
	<unicode hex="0039"/>
	<outline>
		<contour>
			<point x="493" y="1295" type="curve" smooth="yes"/>
			<point x="240" y="1295"/>
			<point x="114" y="1143"/>
			<point x="114" y="925" type="curve"/>
			<point x="114" y="842" type="line"/>
			<point x="114" y="617"/>
			<point x="229" y="478"/>
			<point x="475" y="478" type="curve" smooth="yes"/>
			<point x="694" y="478"/>
			<point x="828" y="616"/>
			<point x="865" y="786" type="curve"/>
			<point x="877" y="786" type="line"/>
			<point x="856" y="813" type="line"/>
			<point x="804" y="634"/>
			<point x="677" y="513"/>
			<point x="479" y="513" type="curve" smooth="yes"/>
			<point x="252" y="513"/>
			<point x="153" y="640"/>
			<point x="153" y="846" type="curve"/>
			<point x="153" y="926" type="line"/>
			<point x="153" y="1119"/>
			<point x="262" y="1259"/>
			<point x="493" y="1259" type="curve" smooth="yes"/>
			<point x="731" y="1259"/>
			<point x="853" y="1118"/>
			<point x="853" y="849" type="curve" smooth="yes"/>
			<point x="853" y="442" type="line"/>
			<point x="853" y="169"/>
			<point x="735" y="18"/>
			<point x="469" y="18" type="curve" smooth="yes"/>
			<point x="331" y="18"/>
			<point x="240" y="55"/>
			<point x="155" y="103" type="curve"/>
			<point x="161" y="59" type="line"/>
			<point x="224" y="23"/>
			<point x="317" y="-18"/>
			<point x="469" y="-18" type="curve" smooth="yes"/>
			<point x="759" y="-18"/>
			<point x="891" y="147"/>
			<point x="891" y="442" type="curve" smooth="yes"/>
			<point x="891" y="851" type="line" smooth="yes"/>
			<point x="891" y="1137"/>
			<point x="755" y="1295"/>
		</contour>
	</outline>
</glyph>
<glyph name="equal" format="2">
  <advance width="1034"/>
  <unicode hex="003D"/>
  <outline>
    <contour>
      <point x="141" y="403" type="line"/>
      <point x="893" y="403" type="line"/>
      <point x="893" y="437" type="line"/>
      <point x="141" y="437" type="line"/>
    </contour>
    <contour>
      <point x="141" y="813" type="line"/>
      <point x="893" y="813" type="line"/>
      <point x="893" y="847" type="line"/>
      <point x="141" y="847" type="line"/>
    </contour>
  </outline>
</glyph>
<glyph name="greater" format="2">
	<advance width="1041"/>
	<unicode hex="003E"/>
	<outline>
		<contour>
			<point x="886" y="636" type="line"/>
			<point x="886" y="615" type="line"/>
			<point x="169" y="374" type="line"/>
			<point x="169" y="336" type="line"/>
			<point x="921" y="591" type="line"/>
			<point x="921" y="660" type="line"/>
			<point x="169" y="915" type="line"/>
			<point x="169" y="877" type="line"/>
		</contour>
	</outline>
</glyph>
<glyph name="question" format="2">
	<advance width="860"/>
	<unicode hex="003F"/>
	<outline>
		<contour>
			<point x="308" y="383" type="line"/>
			<point x="381" y="403" type="line" smooth="yes"/>
			<point x="624" y="470"/>
			<point x="742" y="589"/>
			<point x="742" y="817" type="curve" smooth="yes"/>
			<point x="742" y="940" type="line" smooth="yes"/>
			<point x="742" y="1169"/>
			<point x="647" y="1294"/>
			<point x="413" y="1294" type="curve" smooth="yes"/>
			<point x="267" y="1294"/>
			<point x="144" y="1237"/>
			<point x="81" y="1188" type="curve"/>
			<point x="75" y="1146" type="line"/>
			<point x="154" y="1205"/>
			<point x="275" y="1258"/>
			<point x="412" y="1258" type="curve" smooth="yes"/>
			<point x="623" y="1258"/>
			<point x="704" y="1146"/>
			<point x="704" y="939" type="curve" smooth="yes"/>
			<point x="704" y="817" type="line" smooth="yes"/>
			<point x="704" y="604"/>
			<point x="589" y="498"/>
			<point x="369" y="437" type="curve" smooth="yes"/>
			<point x="308" y="420" type="line"/>
		</contour>
		<contour>
			<point x="335" y="-12" type="curve" smooth="yes"/>
			<point x="365" y="-12"/>
			<point x="380" y="7"/>
			<point x="380" y="45" type="curve" smooth="yes"/>
			<point x="380" y="55" type="line" smooth="yes"/>
			<point x="380" y="92"/>
			<point x="365" y="110"/>
			<point x="335" y="110" type="curve" smooth="yes"/>
			<point x="307" y="110"/>
			<point x="292" y="92"/>
			<point x="292" y="55" type="curve" smooth="yes"/>
			<point x="292" y="45" type="line" smooth="yes"/>
			<point x="292" y="7"/>
			<point x="307" y="-12"/>
		</contour>
	</outline>
</glyph>
<glyph name="E" format="2">
	<advance width="1014"/>
	<unicode hex="0045"/>
	<anchor x="950" y="0" name="ogonek"/>
	<anchor x="548" y="1278" name="top"/>
	<anchor x="26" y="1278" name="topleft"/>
	<anchor x="548" y="0" name="bottom"/>
	<outline>
		<contour>
			<point x="185" y="0" type="line"/>
			<point x="224" y="0" type="line"/>
			<point x="224" y="1278" type="line"/>
			<point x="185" y="1278" type="line"/>
		</contour>
		<contour>
			<point x="198" y="0" type="line"/>
			<point x="898" y="0" type="line"/>
			<point x="898" y="35" type="line"/>
			<point x="198" y="35" type="line"/>
		</contour>
		<contour>
			<point x="205" y="638" type="line"/>
			<point x="879" y="638" type="line"/>
			<point x="879" y="673" type="line"/>
			<point x="205" y="673" type="line"/>
		</contour>
		<contour>
			<point x="196" y="1243" type="line"/>
			<point x="893" y="1243" type="line"/>
			<point x="893" y="1278" type="line"/>
			<point x="196" y="1278" type="line"/>
		</contour>
	</outline>
</glyph>
<glyph name="K" format="2">
  <advance width="1076"/>
  <unicode hex="004B"/>
  <anchor x="548" y="0" name="bottom"/>
  <anchor x="548" y="1278" name="top"/>
  <outline>
    <contour>
      <point x="949" y="0" type="line"/>
      <point x="1002" y="0" type="line"/>
      <point x="436" y="666" type="line"/>
      <point x="437" y="646" type="line"/>
      <point x="990" y="1278" type="line"/>
      <point x="940" y="1278" type="line"/>
      <point x="408" y="670" type="line"/>
      <point x="217" y="670" type="line"/>
      <point x="217" y="635" type="line"/>
      <point x="408" y="635" type="line"/>
    </contour>
    <contour>
      <point x="185" y="0" type="line"/>
      <point x="224" y="0" type="line"/>
      <point x="224" y="1278" type="line"/>
      <point x="185" y="1278" type="line"/>
    </contour>
  </outline>
</glyph>
<glyph name="L" format="2">
	<advance width="956"/>
	<unicode hex="004C"/>
	<anchor x="476" y="653" name="center"/>
	<anchor x="205" y="1278" name="top"/>
	<anchor x="681" y="1278" name="topright"/>
	<anchor x="529" y="0" name="bottom"/>
	<outline>
		<contour>
			<point x="224" y="0" type="line"/>
			<point x="224" y="1278" type="line"/>
			<point x="185" y="1278" type="line"/>
			<point x="185" y="0" type="line"/>
		</contour>
		<contour>
			<point x="198" y="35" type="line"/>
			<point x="198" y="0" type="line"/>
			<point x="885" y="0" type="line"/>
			<point x="885" y="35" type="line"/>
		</contour>
	</outline>
</glyph>
<glyph name="N" format="2">
  <advance width="1189"/>
  <unicode hex="004E"/>
  <anchor x="595" y="0" name="bottom"/>
  <anchor x="595" y="1278" name="top"/>
  <outline>
    <contour>
      <point x="260" y="1278" type="line"/>
      <point x="185" y="1278" type="line"/>
      <point x="185" y="0" type="line"/>
      <point x="224" y="0" type="line"/>
      <point x="224" y="626" type="line"/>
      <point x="222" y="1246" type="line"/>
      <point x="236" y="1246" type="line"/>
      <point x="929" y="0" type="line"/>
      <point x="1004" y="0" type="line"/>
      <point x="1004" y="1278" type="line"/>
      <point x="965" y="1278" type="line"/>
      <point x="965" y="611" type="line"/>
      <point x="967" y="33" type="line"/>
      <point x="953" y="33" type="line"/>
    </contour>
  </outline>
</glyph>
<glyph name="R" format="2">
	<advance width="1107"/>
	<unicode hex="0052"/>
	<anchor x="554" y="1278" name="top"/>
	<anchor x="565" y="0" name="bottom"/>
	<outline>
		<contour>
			<point x="913" y="274" type="curve" smooth="yes"/>
			<point x="956" y="0" type="line"/>
			<point x="996" y="0" type="line"/>
			<point x="950" y="279" type="line" smooth="yes"/>
			<point x="920" y="462"/>
			<point x="867" y="589"/>
			<point x="649" y="604" type="curve"/>
			<point x="670" y="594" type="line"/>
			<point x="672" y="592" type="line"/>
			<point x="889" y="599"/>
			<point x="977" y="731"/>
			<point x="977" y="914" type="curve" smooth="yes"/>
			<point x="977" y="955" type="line" smooth="yes"/>
			<point x="977" y="1150"/>
			<point x="877" y="1278"/>
			<point x="640" y="1278" type="curve" smooth="yes"/>
			<point x="203" y="1278" type="line"/>
			<point x="203" y="1243" type="line"/>
			<point x="638" y="1243" type="line" smooth="yes"/>
			<point x="854" y="1243"/>
			<point x="938" y="1132"/>
			<point x="938" y="954" type="curve" smooth="yes"/>
			<point x="938" y="915" type="line" smooth="yes"/>
			<point x="938" y="737"/>
			<point x="858" y="615"/>
			<point x="645" y="615" type="curve" smooth="yes"/>
			<point x="209" y="614" type="line"/>
			<point x="209" y="580" type="line"/>
			<point x="610" y="580" type="line" smooth="yes"/>
			<point x="835" y="580"/>
			<point x="886" y="443"/>
		</contour>
		<contour>
			<point x="185" y="0" type="line"/>
			<point x="224" y="0" type="line"/>
			<point x="224" y="591" type="line"/>
			<point x="224" y="608" type="line"/>
			<point x="224" y="1278" type="line"/>
			<point x="185" y="1278" type="line"/>
		</contour>
	</outline>
</glyph>
<glyph name="V" format="2">
	<advance width="1079"/>
	<unicode hex="0056"/>
	<anchor x="540" y="1278" name="top"/>
	<anchor x="540" y="0" name="bottom"/>
	<outline>
		<contour>
			<point x="498" y="0" type="line"/>
			<point x="582" y="0" type="line"/>
			<point x="1005" y="1278" type="line"/>
			<point x="964" y="1278" type="line"/>
			<point x="552" y="33" type="line"/>
			<point x="527" y="33" type="line"/>
			<point x="115" y="1278" type="line"/>
			<point x="74" y="1278" type="line"/>
		</contour>
	</outline>
</glyph>
<glyph name="backslash" format="2">
  <advance width="766"/>
  <unicode hex="005C"/>
  <outline>
    <contour>
      <point x="694" y="-231" type="line"/>
      <point x="112" y="1335" type="line"/>
      <point x="72" y="1335" type="line"/>
      <point x="654" y="-231" type="line"/>
    </contour>
  </outline>
</glyph>
<glyph name="i" format="2">
  <advance width="369"/>
  <unicode hex="0069"/>
  <anchor x="185" y="0" name="bottom"/>
  <anchor x="250" y="0" name="ogonek"/>
  <outline>
    <contour>
      <point x="166" y="0" type="line"/>
      <point x="203" y="0" type="line"/>
      <point x="203" y="971" type="line"/>
      <point x="166" y="971" type="line"/>
    </contour>
    <contour>
      <point x="185" y="1189" type="curve" smooth="yes"/>
      <point x="213" y="1189"/>
      <point x="227" y="1207"/>
      <point x="227" y="1244" type="curve" smooth="yes"/>
      <point x="227" y="1253" type="line" smooth="yes"/>
      <point x="227" y="1289"/>
      <point x="213" y="1307"/>
      <point x="185" y="1307" type="curve" smooth="yes"/>
      <point x="157" y="1307"/>
      <point x="142" y="1289"/>
      <point x="142" y="1253" type="curve" smooth="yes"/>
      <point x="142" y="1244" type="line" smooth="yes"/>
      <point x="142" y="1207"/>
      <point x="157" y="1189"/>
    </contour>
  </outline>
</glyph>
<glyph name="j" format="2">
  <advance width="396"/>
  <unicode hex="006A"/>
  <outline>
    <contour>
      <point x="193" y="0" type="line"/>
      <point x="230" y="0" type="line"/>
      <point x="230" y="971" type="line"/>
      <point x="193" y="971" type="line"/>
    </contour>
    <contour>
      <point x="212" y="1189" type="curve" smooth="yes"/>
      <point x="240" y="1189"/>
      <point x="254" y="1207"/>
      <point x="254" y="1244" type="curve" smooth="yes"/>
      <point x="254" y="1253" type="line" smooth="yes"/>
      <point x="254" y="1289"/>
      <point x="240" y="1307"/>
      <point x="212" y="1307" type="curve" smooth="yes"/>
      <point x="184" y="1307"/>
      <point x="169" y="1289"/>
      <point x="169" y="1253" type="curve" smooth="yes"/>
      <point x="169" y="1244" type="line" smooth="yes"/>
      <point x="169" y="1207"/>
      <point x="184" y="1189"/>
    </contour>
    <component base="jbottom"/>
  </outline>
</glyph>
<glyph name="k" format="2">
  <advance width="906"/>
  <unicode hex="006B"/>
  <anchor x="479" y="0" name="bottom"/>
  <anchor x="469" y="1329" name="top"/>
  <outline>
    <contour>
      <point x="797" y="0" type="line"/>
      <point x="849" y="0" type="line"/>
      <point x="332" y="535" type="line"/>
      <point x="332" y="511" type="line"/>
      <point x="827" y="971" type="line"/>
      <point x="774" y="971" type="line"/>
      <point x="309" y="539" type="line"/>
      <point x="186" y="539" type="line"/>
      <point x="186" y="505" type="line"/>
      <point x="309" y="505" type="line"/>
    </contour>
    <contour>
      <point x="162" y="0" type="line"/>
      <point x="199" y="0" type="line"/>
      <point x="199" y="1329" type="line"/>
      <point x="162" y="1329" type="line"/>
    </contour>
  </outline>
</glyph>
<glyph name="q" format="2">
	<advance width="1029"/>
	<unicode hex="0071"/>
	<anchor x="509" y="971" name="top"/>
	<anchor x="509" y="0" name="bottom"/>
	<outline>
		<contour>
			<point x="486" y="-19" type="curve" smooth="yes"/>
			<point x="692" y="-19"/>
			<point x="825" y="118"/>
			<point x="844" y="288" type="curve"/>
			<point x="855" y="288" type="line"/>
			<point x="837" y="325" type="line"/>
			<point x="808" y="140"/>
			<point x="675" y="14"/>
			<point x="490" y="14" type="curve" smooth="yes"/>
			<point x="272" y="14"/>
			<point x="155" y="147"/>
			<point x="155" y="394" type="curve" smooth="yes"/>
			<point x="155" y="579" type="line" smooth="yes"/>
			<point x="155" y="825"/>
			<point x="274" y="957"/>
			<point x="487" y="957" type="curve" smooth="yes"/>
			<point x="668" y="957"/>
			<point x="821" y="846"/>
			<point x="833" y="627" type="curve"/>
			<point x="855" y="660" type="line"/>
			<point x="843" y="660" type="line"/>
			<point x="841" y="860"/>
			<point x="689" y="990"/>
			<point x="489" y="990" type="curve" smooth="yes"/>
			<point x="249" y="990"/>
			<point x="118" y="846"/>
			<point x="118" y="579" type="curve" smooth="yes"/>
			<point x="118" y="394" type="line" smooth="yes"/>
			<point x="118" y="127"/>
			<point x="248" y="-19"/>
		</contour>
		<contour>
			<point x="830" y="-344" type="line"/>
			<point x="867" y="-344" type="line"/>
			<point x="867" y="971" type="line"/>
			<point x="830" y="971" type="line"/>
			<point x="834" y="712" type="line"/>
			<point x="833" y="693" type="line"/>
			<point x="833" y="276" type="line"/>
			<point x="835" y="266" type="line"/>
			<point x="830" y="0" type="line"/>
		</contour>
	</outline>
</glyph>
<glyph name="r" format="2">
	<advance width="719"/>
	<unicode hex="0072"/>
	<anchor x="398" y="971" name="top"/>
	<anchor x="181" y="0" name="bottom"/>
	<outline>
		<contour>
			<point x="193" y="617" type="line"/>
			<point x="249" y="838"/>
			<point x="383" y="950"/>
			<point x="547" y="950" type="curve" smooth="yes"/>
			<point x="602" y="950"/>
			<point x="647" y="939"/>
			<point x="682" y="925" type="curve"/>
			<point x="679" y="961" type="line"/>
			<point x="649" y="974"/>
			<point x="606" y="985"/>
			<point x="550" y="985" type="curve" smooth="yes"/>
			<point x="363" y="985"/>
			<point x="229" y="855"/>
			<point x="185" y="650" type="curve"/>
			<point x="174" y="641" type="line"/>
		</contour>
		<contour>
			<point x="162" y="0" type="line"/>
			<point x="199" y="0" type="line"/>
			<point x="199" y="665" type="line"/>
			<point x="194" y="670" type="line"/>
			<point x="199" y="971" type="line"/>
			<point x="162" y="971" type="line"/>
		</contour>
	</outline>
</glyph>
<glyph name="v" format="2">
	<advance width="939"/>
	<unicode hex="0076"/>
	<anchor x="470" y="971" name="top"/>
	<anchor x="470" y="0" name="bottom"/>
	<outline>
		<contour>
			<point x="482" y="33" type="line"/>
			<point x="458" y="33" type="line"/>
			<point x="110" y="971" type="line"/>
			<point x="69" y="971" type="line"/>
			<point x="432" y="0" type="line"/>
			<point x="508" y="0" type="line"/>
			<point x="870" y="971" type="line"/>
			<point x="829" y="971" type="line"/>
		</contour>
	</outline>
</glyph>
<glyph name="y" format="2">
  <advance width="939"/>
  <unicode hex="0079"/>
  <anchor x="639" y="-5" name="bottom"/>
  <anchor x="469" y="971" name="top"/>
  <outline>
    <contour>
      <point x="493" y="71" type="line"/>
      <point x="458" y="71" type="line"/>
      <point x="110" y="971" type="line"/>
      <point x="69" y="971" type="line"/>
      <point x="432" y="38" type="line"/>
      <point x="483" y="38" type="line"/>
      <point x="473" y="53" type="line"/>
      <point x="320" y="-344" type="line"/>
      <point x="361" y="-344" type="line"/>
      <point x="870" y="971" type="line"/>
      <point x="829" y="971" type="line"/>
      <point x="476" y="62" type="line"/>
    </contour>
  </outline>
</glyph>
<glyph name="bar" format="2">
	<advance width="458"/>
	<unicode hex="007C"/>
	<outline>
		<contour>
			<point x="247" y="-451" type="line"/>
			<point x="247" y="1421" type="line"/>
			<point x="211" y="1421" type="line"/>
			<point x="211" y="-451" type="line"/>
		</contour>
	</outline>
</glyph>
<glyph name="braceright" format="2">
	<advance width="665"/>
	<unicode hex="007D"/>
	<outline>
		<contour>
			<point x="68" y="1325" type="curve"/>
			<point x="68" y="1290" type="line"/>
			<point x="103" y="1305"/>
			<point x="151" y="1317"/>
			<point x="211" y="1317" type="curve" smooth="yes"/>
			<point x="331" y="1317"/>
			<point x="381" y="1261"/>
			<point x="381" y="1123" type="curve" smooth="yes"/>
			<point x="381" y="1030"/>
			<point x="366" y="885"/>
			<point x="366" y="781" type="curve" smooth="yes"/>
			<point x="366" y="654"/>
			<point x="410" y="578"/>
			<point x="549" y="562" type="curve"/>
			<point x="549" y="551" type="line"/>
			<point x="551" y="561" type="line"/>
			<point x="410" y="547"/>
			<point x="366" y="466"/>
			<point x="366" y="337" type="curve" smooth="yes"/>
			<point x="366" y="231"/>
			<point x="381" y="85"/>
			<point x="381" y="-9" type="curve" smooth="yes"/>
			<point x="381" y="-148"/>
			<point x="331" y="-204"/>
			<point x="211" y="-204" type="curve" smooth="yes"/>
			<point x="151" y="-204"/>
			<point x="103" y="-191"/>
			<point x="68" y="-176" type="curve"/>
			<point x="68" y="-210" type="line"/>
			<point x="105" y="-226"/>
			<point x="155" y="-237"/>
			<point x="212" y="-237" type="curve" smooth="yes"/>
			<point x="355" y="-237"/>
			<point x="419" y="-165"/>
			<point x="419" y="-12" type="curve" smooth="yes"/>
			<point x="419" y="93"/>
			<point x="403" y="241"/>
			<point x="403" y="335" type="curve" smooth="yes"/>
			<point x="403" y="458"/>
			<point x="438" y="526"/>
			<point x="585" y="541" type="curve"/>
			<point x="585" y="581" type="line"/>
			<point x="438" y="594"/>
			<point x="403" y="661"/>
			<point x="403" y="782" type="curve" smooth="yes"/>
			<point x="403" y="878"/>
			<point x="419" y="1023"/>
			<point x="419" y="1125" type="curve" smooth="yes"/>
			<point x="419" y="1279"/>
			<point x="356" y="1351"/>
			<point x="212" y="1351" type="curve" smooth="yes"/>
			<point x="155" y="1351"/>
			<point x="105" y="1340"/>
		</contour>
	</outline>
</glyph>
<glyph name="asciitilde" format="2">
	<advance width="1065"/>
	<unicode hex="007E"/>
	<outline>
		<contour>
			<point x="746" y="492" type="curve" smooth="yes"/>
			<point x="857" y="492"/>
			<point x="909" y="552"/>
			<point x="909" y="678" type="curve" smooth="yes"/>
			<point x="909" y="700" type="line"/>
			<point x="875" y="700" type="line"/>
			<point x="875" y="681" type="line"/>
			<point x="875" y="576"/>
			<point x="834" y="526"/>
			<point x="746" y="526" type="curve" smooth="yes"/>
			<point x="609" y="526"/>
			<point x="467" y="676"/>
			<point x="320" y="676" type="curve" smooth="yes"/>
			<point x="208" y="676"/>
			<point x="156" y="616"/>
			<point x="156" y="488" type="curve" smooth="yes"/>
			<point x="156" y="467" type="line"/>
			<point x="189" y="467" type="line"/>
			<point x="189" y="487" type="line"/>
			<point x="189" y="592"/>
			<point x="231" y="643"/>
			<point x="319" y="643" type="curve" smooth="yes"/>
			<point x="455" y="643"/>
			<point x="594" y="492"/>
		</contour>
	</outline>
</glyph>
<glyph name="exclamdown" format="2">
  <advance width="424"/>
  <unicode hex="00A1"/>
  <outline>
    <contour>
      <point x="227" y="609" type="line"/>
      <point x="197" y="609" type="line"/>
      <point x="191" y="-307" type="line"/>
      <point x="232" y="-307" type="line"/>
    </contour>
    <contour>
      <point x="211" y="983" type="curve" smooth="yes"/>
      <point x="183" y="983"/>
      <point x="168" y="964"/>
      <point x="168" y="926" type="curve" smooth="yes"/>
      <point x="168" y="916" type="line" smooth="yes"/>
      <point x="168" y="879"/>
      <point x="183" y="861"/>
      <point x="211" y="861" type="curve" smooth="yes"/>
      <point x="241" y="861"/>
      <point x="256" y="879"/>
      <point x="256" y="916" type="curve" smooth="yes"/>
      <point x="256" y="926" type="line" smooth="yes"/>
      <point x="256" y="964"/>
      <point x="241" y="983"/>
    </contour>
  </outline>
</glyph>
<glyph name="sterling" format="2">
	<advance width="1063"/>
	<unicode hex="00A3"/>
	<outline>
		<contour>
			<point x="96" y="634" type="line"/>
			<point x="869" y="634" type="line"/>
			<point x="875" y="668" type="line"/>
			<point x="103" y="668" type="line"/>
		</contour>
		<contour>
			<point x="168" y="35" type="line"/>
			<point x="178" y="28" type="line"/>
			<point x="291" y="83"/>
			<point x="351" y="187"/>
			<point x="351" y="362" type="curve" smooth="yes"/>
			<point x="351" y="572"/>
			<point x="276" y="739"/>
			<point x="276" y="949" type="curve" smooth="yes"/>
			<point x="276" y="1159"/>
			<point x="397" y="1260"/>
			<point x="608" y="1260" type="curve" smooth="yes"/>
			<point x="714" y="1260"/>
			<point x="816" y="1239"/>
			<point x="913" y="1195" type="curve"/>
			<point x="908" y="1235" type="line"/>
			<point x="830" y="1269"/>
			<point x="721" y="1296"/>
			<point x="610" y="1296" type="curve" smooth="yes"/>
			<point x="362" y="1296"/>
			<point x="237" y="1181"/>
			<point x="237" y="948" type="curve" smooth="yes"/>
			<point x="237" y="729"/>
			<point x="313" y="566"/>
			<point x="312" y="360" type="curve" smooth="yes"/>
			<point x="311" y="177"/>
			<point x="249" y="74"/>
			<point x="128" y="38" type="curve" smooth="yes"/>
			<point x="101" y="30" type="line"/>
			<point x="101" y="0" type="line"/>
			<point x="982" y="0" type="line"/>
			<point x="982" y="35" type="line"/>
		</contour>
	</outline>
</glyph>
<glyph name="currency" format="2">
  <advance width="936"/>
  <unicode hex="00A4"/>
  <outline>
    <contour>
      <point x="468" y="269" type="curve" smooth="yes"/>
      <point x="668" y="269"/>
      <point x="782" y="383"/>
      <point x="782" y="593" type="curve"/>
      <point x="782" y="655" type="line"/>
      <point x="782" y="864"/>
      <point x="669" y="977"/>
      <point x="469" y="977" type="curve" smooth="yes"/>
      <point x="269" y="977"/>
      <point x="155" y="864"/>
      <point x="155" y="655" type="curve"/>
      <point x="155" y="593" type="line"/>
      <point x="155" y="383"/>
      <point x="268" y="269"/>
    </contour>
    <contour>
      <point x="469" y="303" type="curve" smooth="yes"/>
      <point x="291" y="303"/>
      <point x="192" y="404"/>
      <point x="192" y="593" type="curve" smooth="yes"/>
      <point x="192" y="655" type="line" smooth="yes"/>
      <point x="192" y="843"/>
      <point x="291" y="943"/>
      <point x="469" y="943" type="curve" smooth="yes"/>
      <point x="645" y="943"/>
      <point x="745" y="843"/>
      <point x="745" y="655" type="curve" smooth="yes"/>
      <point x="745" y="593" type="line" smooth="yes"/>
      <point x="745" y="404"/>
      <point x="645" y="303"/>
    </contour>
    <contour>
      <point x="688" y="363" type="line"/>
      <point x="661" y="340" type="line"/>
      <point x="820" y="151" type="line"/>
      <point x="846" y="172" type="line"/>
    </contour>
    <contour>
      <point x="275" y="341" type="line"/>
      <point x="250" y="365" type="line"/>
      <point x="90" y="172" type="line"/>
      <point x="117" y="151" type="line"/>
    </contour>
    <contour>
      <point x="247" y="884" type="line"/>
      <point x="274" y="905" type="line"/>
      <point x="116" y="1094" type="line"/>
      <point x="90" y="1073" type="line"/>
    </contour>
    <contour>
      <point x="661" y="903" type="line"/>
      <point x="689" y="882" type="line"/>
      <point x="846" y="1073" type="line"/>
      <point x="820" y="1094" type="line"/>
    </contour>
  </outline>
</glyph>
<glyph name="section" format="2">
  <advance width="930"/>
  <unicode hex="00A7"/>
  <outline>
    <contour>
      <point x="557" y="352" type="curve"/>
      <point x="602" y="326" type="line"/>
      <point x="602" y="344" type="line"/>
      <point x="726" y="374"/>
      <point x="796" y="473"/>
      <point x="796" y="580" type="curve" smooth="yes"/>
      <point x="796" y="588" type="line" smooth="yes"/>
      <point x="796" y="735"/>
      <point x="721" y="805"/>
      <point x="466" y="856" type="curve" smooth="yes"/>
      <point x="240" y="901"/>
      <point x="171" y="955"/>
      <point x="171" y="1068" type="curve" smooth="yes"/>
      <point x="171" y="1075" type="line" smooth="yes"/>
      <point x="171" y="1195"/>
      <point x="260" y="1261"/>
      <point x="447" y="1261" type="curve" smooth="yes"/>
      <point x="590" y="1261"/>
      <point x="690" y="1218"/>
      <point x="772" y="1160" type="curve"/>
      <point x="766" y="1201" type="line"/>
      <point x="703" y="1249"/>
      <point x="597" y="1295"/>
      <point x="448" y="1295" type="curve" smooth="yes"/>
      <point x="239" y="1295"/>
      <point x="134" y="1219"/>
      <point x="134" y="1075" type="curve" smooth="yes"/>
      <point x="134" y="1068" type="line" smooth="yes"/>
      <point x="134" y="939"/>
      <point x="211" y="872"/>
      <point x="457" y="823" type="curve" smooth="yes"/>
      <point x="700" y="775"/>
      <point x="759" y="711"/>
      <point x="759" y="586" type="curve" smooth="yes"/>
      <point x="759" y="580" type="line" smooth="yes"/>
      <point x="759" y="481"/>
      <point x="694" y="381"/>
    </contour>
    <contour>
      <point x="372" y="854" type="curve"/>
      <point x="327" y="877" type="line"/>
      <point x="327" y="862" type="line"/>
      <point x="204" y="832"/>
      <point x="134" y="733"/>
      <point x="134" y="626" type="curve" smooth="yes"/>
      <point x="134" y="618" type="line" smooth="yes"/>
      <point x="134" y="471"/>
      <point x="211" y="397"/>
      <point x="458" y="350" type="curve" smooth="yes"/>
      <point x="700" y="304"/>
      <point x="759" y="245"/>
      <point x="759" y="119" type="curve" smooth="yes"/>
      <point x="759" y="113" type="line" smooth="yes"/>
      <point x="759" y="-25"/>
      <point x="651" y="-92"/>
      <point x="466" y="-92" type="curve" smooth="yes"/>
      <point x="320" y="-92"/>
      <point x="214" y="-49"/>
      <point x="121" y="10" type="curve"/>
      <point x="127" y="-33" type="line"/>
      <point x="196" y="-78"/>
      <point x="308" y="-127"/>
      <point x="464" y="-127" type="curve" smooth="yes"/>
      <point x="675" y="-127"/>
      <point x="796" y="-45"/>
      <point x="796" y="113" type="curve" smooth="yes"/>
      <point x="796" y="119" type="line" smooth="yes"/>
      <point x="796" y="269"/>
      <point x="722" y="334"/>
      <point x="467" y="383" type="curve" smooth="yes"/>
      <point x="239" y="427"/>
      <point x="171" y="487"/>
      <point x="171" y="620" type="curve" smooth="yes"/>
      <point x="171" y="626" type="line" smooth="yes"/>
      <point x="171" y="725"/>
      <point x="236" y="825"/>
    </contour>
  </outline>
</glyph>
<glyph name="logicalnot" format="2">
	<advance width="1024"/>
	<unicode hex="00AC"/>
	<outline>
		<contour>
			<point x="872" y="211" type="line"/>
			<point x="872" y="623" type="line"/>
			<point x="837" y="623" type="line"/>
			<point x="837" y="211" type="line"/>
		</contour>
		<contour>
			<point x="120" y="608" type="line"/>
			<point x="872" y="608" type="line"/>
			<point x="872" y="642" type="line"/>
			<point x="120" y="642" type="line"/>
		</contour>
	</outline>
</glyph>
<glyph name="plusminus" format="2">
	<advance width="1034"/>
	<unicode hex="00B1"/>
	<outline>
		<contour>
			<point x="141" y="203" type="line"/>
			<point x="893" y="203" type="line"/>
			<point x="893" y="236" type="line"/>
			<point x="141" y="236" type="line"/>
		</contour>
		<contour>
			<point x="535" y="396" type="line"/>
			<point x="535" y="1075" type="line"/>
			<point x="499" y="1075" type="line"/>
			<point x="499" y="396" type="line"/>
		</contour>
		<contour>
			<point x="141" y="719" type="line"/>
			<point x="893" y="719" type="line"/>
			<point x="893" y="752" type="line"/>
			<point x="141" y="752" type="line"/>
		</contour>
	</outline>
</glyph>
<glyph name="twosuperior" format="2">
	<advance width="585"/>
	<unicode hex="00B2"/>
	<outline>
		<contour>
			<point x="55" y="725" type="line"/>
			<point x="522" y="725" type="line"/>
			<point x="522" y="757" type="line"/>
			<point x="79" y="757" type="line"/>
			<point x="93" y="747" type="line"/>
			<point x="93" y="760" type="line"/>
			<point x="285" y="912" type="line" smooth="yes"/>
			<point x="423" y="1022"/>
			<point x="506" y="1098"/>
			<point x="506" y="1215" type="curve" smooth="yes"/>
			<point x="506" y="1223" type="line" smooth="yes"/>
			<point x="506" y="1347"/>
			<point x="429" y="1413"/>
			<point x="288" y="1413" type="curve" smooth="yes"/>
			<point x="199" y="1413"/>
			<point x="113" y="1378"/>
			<point x="64" y="1343" type="curve"/>
			<point x="60" y="1308" type="line"/>
			<point x="128" y="1352"/>
			<point x="206" y="1381"/>
			<point x="288" y="1381" type="curve" smooth="yes"/>
			<point x="405" y="1381"/>
			<point x="471" y="1330"/>
			<point x="471" y="1223" type="curve" smooth="yes"/>
			<point x="471" y="1216" type="line" smooth="yes"/>
			<point x="471" y="1107"/>
			<point x="404" y="1047"/>
			<point x="267" y="937" type="curve" smooth="yes"/>
			<point x="55" y="766" type="line"/>
		</contour>
	</outline>
</glyph>
<glyph name="ordmasculine" format="2">
  <advance width="687"/>
  <unicode hex="00BA"/>
  <outline>
    <contour>
      <point x="344" y="632" type="curve" smooth="yes"/>
      <point x="505" y="632"/>
      <point x="593" y="728"/>
      <point x="593" y="909" type="curve" smooth="yes"/>
      <point x="593" y="1018" type="line" smooth="yes"/>
      <point x="593" y="1199"/>
      <point x="505" y="1294"/>
      <point x="344" y="1294" type="curve" smooth="yes"/>
      <point x="183" y="1294"/>
      <point x="94" y="1199"/>
      <point x="94" y="1018" type="curve" smooth="yes"/>
      <point x="94" y="909" type="line" smooth="yes"/>
      <point x="94" y="728"/>
      <point x="182" y="632"/>
    </contour>
    <contour>
      <point x="344" y="664" type="curve" smooth="yes"/>
      <point x="205" y="664"/>
      <point x="130" y="750"/>
      <point x="130" y="908" type="curve" smooth="yes"/>
      <point x="130" y="1019" type="line" smooth="yes"/>
      <point x="130" y="1177"/>
      <point x="205" y="1262"/>
      <point x="344" y="1262" type="curve" smooth="yes"/>
      <point x="483" y="1262"/>
      <point x="557" y="1178"/>
      <point x="557" y="1019" type="curve" smooth="yes"/>
      <point x="557" y="908" type="line" smooth="yes"/>
      <point x="557" y="749"/>
      <point x="482" y="664"/>
    </contour>
  </outline>
</glyph>
<glyph name="AE" format="2">
	<advance width="1670"/>
	<unicode hex="00C6"/>
	<anchor x="832" y="1278" name="top"/>
	<anchor x="832" y="0" name="bottom"/>
	<outline>
		<contour>
			<point x="74" y="0" type="line"/>
			<point x="117" y="0" type="line"/>
			<point x="777" y="1246" type="line"/>
			<point x="852" y="1246" type="line"/>
			<point x="852" y="1278" type="line"/>
			<point x="751" y="1278" type="line"/>
		</contour>
		<contour>
			<point x="345" y="452" type="line"/>
			<point x="854" y="452" type="line"/>
			<point x="854" y="487" type="line"/>
			<point x="345" y="487" type="line"/>
		</contour>
		<contour>
			<point x="854" y="0" type="line"/>
			<point x="1554" y="0" type="line"/>
			<point x="1554" y="35" type="line"/>
			<point x="854" y="35" type="line"/>
		</contour>
		<contour>
			<point x="841" y="0" type="line"/>
			<point x="880" y="0" type="line"/>
			<point x="880" y="1278" type="line"/>
			<point x="841" y="1278" type="line"/>
		</contour>
		<contour>
			<point x="861" y="638" type="line"/>
			<point x="1535" y="638" type="line"/>
			<point x="1535" y="673" type="line"/>
			<point x="861" y="673" type="line"/>
		</contour>
		<contour>
			<point x="852" y="1243" type="line"/>
			<point x="1549" y="1243" type="line"/>
			<point x="1549" y="1278" type="line"/>
			<point x="852" y="1278" type="line"/>
		</contour>
	</outline>
</glyph>
<glyph name="Eth" format="2">
	<advance width="1137"/>
	<unicode hex="00D0"/>
	<outline>
		<contour>
			<point x="14" y="648" type="line"/>
			<point x="609" y="648" type="line"/>
			<point x="609" y="682" type="line"/>
			<point x="14" y="682" type="line"/>
		</contour>
		<component base="D"/>
	</outline>
</glyph>
<glyph name="Oslash" format="2">
	<advance width="1133"/>
	<unicode hex="00D8"/>
	<anchor x="567" y="639" name="center"/>
	<anchor x="1030" y="10" name="ogonek"/>
	<anchor x="567" y="1278" name="top"/>
	<anchor x="1126" y="1278" name="topright"/>
	<anchor x="7" y="1278" name="topleft"/>
	<anchor x="567" y="0" name="bottom"/>
	<outline>
		<contour>
			<point x="566" y="-18" type="curve" smooth="yes"/>
			<point x="850" y="-18"/>
			<point x="1006" y="156"/>
			<point x="1006" y="465" type="curve"/>
			<point x="1006" y="813" type="line"/>
			<point x="1006" y="1122"/>
			<point x="850" y="1296"/>
			<point x="566" y="1296" type="curve" smooth="yes"/>
			<point x="282" y="1296"/>
			<point x="127" y="1122"/>
			<point x="127" y="813" type="curve"/>
			<point x="127" y="465" type="line"/>
			<point x="127" y="156"/>
			<point x="282" y="-18"/>
		</contour>
		<contour>
			<point x="157" y="-65" type="line"/>
			<point x="200" y="-65" type="line"/>
			<point x="281" y="82" type="line"/>
			<point x="289" y="97" type="line"/>
			<point x="871" y="1153" type="line"/>
			<point x="880" y="1169" type="line"/>
			<point x="976" y="1342" type="line"/>
			<point x="932" y="1342" type="line"/>
			<point x="853" y="1198" type="line"/>
			<point x="843" y="1180" type="line"/>
			<point x="261" y="124" type="line"/>
			<point x="254" y="111" type="line"/>
		</contour>
		<contour>
			<point x="566" y="18" type="curve" smooth="yes"/>
			<point x="304" y="18"/>
			<point x="166" y="180"/>
			<point x="166" y="465" type="curve" smooth="yes"/>
			<point x="166" y="814" type="line" smooth="yes"/>
			<point x="166" y="1099"/>
			<point x="304" y="1260"/>
			<point x="566" y="1260" type="curve" smooth="yes"/>
			<point x="829" y="1260"/>
			<point x="967" y="1099"/>
			<point x="967" y="814" type="curve" smooth="yes"/>
			<point x="967" y="465" type="line" smooth="yes"/>
			<point x="967" y="180"/>
			<point x="829" y="18"/>
		</contour>
	</outline>
</glyph>
<glyph name="Thorn" format="2">
  <advance width="1073"/>
  <unicode hex="00DE"/>
  <anchor x="534" y="0" name="bottom"/>
  <anchor x="534" y="1278" name="top"/>
  <outline>
    <contour>
      <point x="205" y="242" type="line"/>
      <point x="604" y="242" type="line" smooth="yes"/>
      <point x="856" y="242"/>
      <point x="963" y="384"/>
      <point x="963" y="598" type="curve" smooth="yes"/>
      <point x="963" y="690" type="line" smooth="yes"/>
      <point x="963" y="901"/>
      <point x="857" y="1040"/>
      <point x="607" y="1040" type="curve" smooth="yes"/>
      <point x="203" y="1040" type="line"/>
      <point x="203" y="1006" type="line"/>
      <point x="605" y="1006" type="line" smooth="yes"/>
      <point x="834" y="1006"/>
      <point x="924" y="882"/>
      <point x="924" y="688" type="curve" smooth="yes"/>
      <point x="924" y="600" type="line" smooth="yes"/>
      <point x="924" y="403"/>
      <point x="833" y="277"/>
      <point x="602" y="277" type="curve" smooth="yes"/>
      <point x="205" y="277" type="line"/>
    </contour>
    <contour>
      <point x="185" y="0" type="line"/>
      <point x="224" y="0" type="line"/>
      <point x="224" y="254" type="line"/>
      <point x="224" y="268" type="line"/>
      <point x="224" y="1016" type="line"/>
      <point x="224" y="1030" type="line"/>
      <point x="224" y="1278" type="line"/>
      <point x="185" y="1278" type="line"/>
    </contour>
  </outline>
</glyph>
<glyph name="ae" format="2">
	<advance width="1587"/>
	<unicode hex="00E6"/>
	<anchor x="794" y="971" name="top"/>
	<anchor x="794" y="0" name="bottom"/>
	<outline>
		<contour>
			<point x="1140" y="-19" type="curve" smooth="yes"/>
			<point x="1270" y="-19"/>
			<point x="1382" y="22"/>
			<point x="1461" y="86" type="curve"/>
			<point x="1466" y="130" type="line"/>
			<point x="1373" y="56"/>
			<point x="1267" y="16"/>
			<point x="1141" y="16" type="curve" smooth="yes"/>
			<point x="921" y="16"/>
			<point x="792" y="144"/>
			<point x="792" y="362" type="curve" smooth="yes"/>
			<point x="792" y="472" type="line"/>
			<point x="792" y="480" type="line"/>
			<point x="792" y="584" type="line" smooth="yes"/>
			<point x="792" y="830"/>
			<point x="907" y="961"/>
			<point x="1122" y="961" type="curve" smooth="yes"/>
			<point x="1333" y="961"/>
			<point x="1447" y="829"/>
			<point x="1447" y="592" type="curve" smooth="yes"/>
			<point x="1447" y="556"/>
			<point x="1447" y="513"/>
			<point x="1447" y="466" type="curve"/>
			<point x="1481" y="466" type="line"/>
			<point x="1484" y="502"/>
			<point x="1484" y="529"/>
			<point x="1484" y="559" type="curve" smooth="yes"/>
			<point x="1484" y="593" type="line" smooth="yes"/>
			<point x="1484" y="848"/>
			<point x="1355" y="994"/>
			<point x="1122" y="994" type="curve" smooth="yes"/>
			<point x="926" y="994"/>
			<point x="799" y="888"/>
			<point x="771" y="696" type="curve"/>
			<point x="781" y="696" type="line"/>
			<point x="765" y="881"/>
			<point x="663" y="990"/>
			<point x="465" y="990" type="curve" smooth="yes"/>
			<point x="305" y="990"/>
			<point x="194" y="930"/>
			<point x="132" y="882" type="curve"/>
			<point x="127" y="840" type="line"/>
			<point x="206" y="900"/>
			<point x="320" y="956"/>
			<point x="465" y="956" type="curve" smooth="yes"/>
			<point x="662" y="956"/>
			<point x="755" y="842"/>
			<point x="755" y="633" type="curve" smooth="yes"/>
			<point x="755" y="397" type="line"/>
			<point x="755" y="361"/>
			<point x="756" y="320"/>
			<point x="761" y="278" type="curve"/>
			<point x="764" y="269" type="line"/>
			<point x="796" y="91"/>
			<point x="925" y="-19"/>
		</contour>
		<contour>
			<point x="402" y="-19" type="curve" smooth="yes"/>
			<point x="629" y="-19"/>
			<point x="751" y="118"/>
			<point x="775" y="284" type="curve"/>
			<point x="786" y="284" type="line"/>
			<point x="763" y="321" type="line"/>
			<point x="736" y="146"/>
			<point x="615" y="14"/>
			<point x="407" y="14" type="curve" smooth="yes"/>
			<point x="231" y="14"/>
			<point x="135" y="94"/>
			<point x="135" y="248" type="curve" smooth="yes"/>
			<point x="135" y="271" type="line" smooth="yes"/>
			<point x="135" y="410"/>
			<point x="218" y="476"/>
			<point x="418" y="505" type="curve" smooth="yes"/>
			<point x="774" y="557" type="line"/>
			<point x="773" y="591" type="line"/>
			<point x="411" y="537" type="line" smooth="yes"/>
			<point x="185" y="503"/>
			<point x="98" y="424"/>
			<point x="98" y="269" type="curve" smooth="yes"/>
			<point x="98" y="246" type="line" smooth="yes"/>
			<point x="98" y="72"/>
			<point x="207" y="-19"/>
		</contour>
		<contour>
			<point x="772" y="466" type="line"/>
			<point x="1467" y="466" type="line"/>
			<point x="1467" y="499" type="line"/>
			<point x="772" y="499" type="line"/>
		</contour>
	</outline>
</glyph>
<glyph name="divide" format="2">
	<advance width="992"/>
	<unicode hex="00F7"/>
	<outline>
		<contour>
			<point x="120" y="609" type="line"/>
			<point x="872" y="609" type="line"/>
			<point x="872" y="642" type="line"/>
			<point x="120" y="642" type="line"/>
		</contour>
		<contour>
			<point x="498" y="227" type="curve" smooth="yes"/>
			<point x="528" y="227"/>
			<point x="543" y="246"/>
			<point x="543" y="284" type="curve" smooth="yes"/>
			<point x="543" y="294" type="line" smooth="yes"/>
			<point x="543" y="331"/>
			<point x="528" y="349"/>
			<point x="498" y="349" type="curve" smooth="yes"/>
			<point x="470" y="349"/>
			<point x="455" y="331"/>
			<point x="455" y="294" type="curve" smooth="yes"/>
			<point x="455" y="284" type="line" smooth="yes"/>
			<point x="455" y="246"/>
			<point x="470" y="227"/>
		</contour>
		<contour>
			<point x="498" y="902" type="curve" smooth="yes"/>
			<point x="528" y="902"/>
			<point x="543" y="921"/>
			<point x="543" y="959" type="curve" smooth="yes"/>
			<point x="543" y="969" type="line" smooth="yes"/>
			<point x="543" y="1006"/>
			<point x="528" y="1024"/>
			<point x="498" y="1024" type="curve" smooth="yes"/>
			<point x="470" y="1024"/>
			<point x="455" y="1006"/>
			<point x="455" y="969" type="curve" smooth="yes"/>
			<point x="455" y="959" type="line" smooth="yes"/>
			<point x="455" y="921"/>
			<point x="470" y="902"/>
		</contour>
	</outline>
</glyph>
<glyph name="oslash" format="2">
	<advance width="998"/>
	<unicode hex="00F8"/>
	<anchor x="499" y="486" name="center"/>
	<anchor x="897" y="10" name="ogonek"/>
	<anchor x="499" y="971" name="top"/>
	<anchor x="976" y="971" name="topright"/>
	<anchor x="499" y="0" name="bottom"/>
	<outline>
		<contour>
			<point x="499" y="-23" type="curve" smooth="yes"/>
			<point x="747" y="-23"/>
			<point x="880" y="125"/>
			<point x="880" y="395" type="curve"/>
			<point x="880" y="578" type="line"/>
			<point x="880" y="847"/>
			<point x="747" y="994"/>
			<point x="499" y="994" type="curve" smooth="yes"/>
			<point x="251" y="994"/>
			<point x="118" y="847"/>
			<point x="118" y="578" type="curve"/>
			<point x="118" y="395" type="line"/>
			<point x="118" y="126"/>
			<point x="250" y="-23"/>
		</contour>
		<contour>
			<point x="154" y="-65" type="line"/>
			<point x="195" y="-65" type="line"/>
			<point x="264" y="52" type="line"/>
			<point x="273" y="68" type="line"/>
			<point x="753" y="882" type="line"/>
			<point x="761" y="896" type="line"/>
			<point x="844" y="1036" type="line"/>
			<point x="804" y="1036" type="line"/>
			<point x="734" y="917" type="line"/>
			<point x="727" y="906" type="line"/>
			<point x="247" y="92" type="line"/>
			<point x="238" y="77" type="line"/>
		</contour>
		<contour>
			<point x="499" y="10" type="curve" smooth="yes"/>
			<point x="275" y="10"/>
			<point x="155" y="145"/>
			<point x="155" y="395" type="curve" smooth="yes"/>
			<point x="155" y="578" type="line" smooth="yes"/>
			<point x="155" y="826"/>
			<point x="275" y="961"/>
			<point x="499" y="961" type="curve" smooth="yes"/>
			<point x="723" y="961"/>
			<point x="843" y="826"/>
			<point x="843" y="578" type="curve" smooth="yes"/>
			<point x="843" y="395" type="line" smooth="yes"/>
			<point x="843" y="145"/>
			<point x="722" y="10"/>
		</contour>
	</outline>
</glyph>
<glyph name="idotless" format="2">
	<advance width="372"/>
	<unicode hex="0131"/>
	<anchor x="252" y="0" name="ogonek"/>
	<anchor x="186" y="0" name="bottom"/>
	<anchor x="186" y="971" name="top"/>
	<outline>
		<contour>
			<point x="167" y="0" type="line"/>
			<point x="205" y="0" type="line"/>
			<point x="205" y="971" type="line"/>
			<point x="167" y="971" type="line"/>
		</contour>
	</outline>
</glyph>
<glyph name="oe" format="2">
	<advance width="1675"/>
	<unicode hex="0153"/>
	<anchor x="834" y="971" name="top"/>
	<anchor x="834" y="0" name="bottom"/>
	<outline>
		<contour>
			<point x="497" y="-23" type="curve" smooth="yes"/>
			<point x="703" y="-23"/>
			<point x="828" y="81"/>
			<point x="864" y="278" type="curve"/>
			<point x="858" y="278" type="line"/>
			<point x="893" y="82"/>
			<point x="1019" y="-19"/>
			<point x="1233" y="-19" type="curve" smooth="yes"/>
			<point x="1359" y="-19"/>
			<point x="1470" y="22"/>
			<point x="1549" y="86" type="curve"/>
			<point x="1554" y="130" type="line"/>
			<point x="1463" y="56"/>
			<point x="1356" y="16"/>
			<point x="1234" y="16" type="curve" smooth="yes"/>
			<point x="1003" y="16"/>
			<point x="880" y="144"/>
			<point x="880" y="386" type="curve" smooth="yes"/>
			<point x="880" y="472" type="line"/>
			<point x="880" y="480" type="line"/>
			<point x="880" y="585" type="line" smooth="yes"/>
			<point x="880" y="830"/>
			<point x="995" y="961"/>
			<point x="1210" y="961" type="curve" smooth="yes"/>
			<point x="1421" y="961"/>
			<point x="1535" y="829"/>
			<point x="1535" y="592" type="curve" smooth="yes"/>
			<point x="1535" y="556"/>
			<point x="1535" y="513"/>
			<point x="1535" y="466" type="curve"/>
			<point x="1569" y="466" type="line"/>
			<point x="1572" y="502"/>
			<point x="1572" y="529"/>
			<point x="1572" y="559" type="curve" smooth="yes"/>
			<point x="1572" y="593" type="line" smooth="yes"/>
			<point x="1572" y="848"/>
			<point x="1443" y="994"/>
			<point x="1210" y="994" type="curve" smooth="yes"/>
			<point x="1014" y="994"/>
			<point x="887" y="888"/>
			<point x="859" y="696" type="curve"/>
			<point x="863" y="696" type="line"/>
			<point x="829" y="889"/>
			<point x="704" y="994"/>
			<point x="497" y="994" type="curve" smooth="yes"/>
			<point x="250" y="994"/>
			<point x="118" y="847"/>
			<point x="118" y="578" type="curve"/>
			<point x="118" y="395" type="line"/>
			<point x="118" y="126"/>
			<point x="249" y="-23"/>
		</contour>
		<contour>
			<point x="860" y="466" type="line"/>
			<point x="1556" y="466" type="line"/>
			<point x="1556" y="499" type="line"/>
			<point x="860" y="499" type="line"/>
		</contour>
		<contour>
			<point x="497" y="10" type="curve" smooth="yes"/>
			<point x="274" y="10"/>
			<point x="155" y="145"/>
			<point x="155" y="395" type="curve" smooth="yes"/>
			<point x="155" y="578" type="line" smooth="yes"/>
			<point x="155" y="826"/>
			<point x="274" y="961"/>
			<point x="497" y="961" type="curve" smooth="yes"/>
			<point x="721" y="961"/>
			<point x="843" y="825"/>
			<point x="843" y="576" type="curve" smooth="yes"/>
			<point x="843" y="395" type="line" smooth="yes"/>
			<point x="843" y="145"/>
			<point x="721" y="10"/>
		</contour>
	</outline>
</glyph>
<glyph name="gravecomb" format="2">
  <unicode hex="0300"/>
  <anchor x="351" y="971" name="_top"/>
  <anchor x="236" y="1295" name="top"/>
  <outline>
    <contour>
      <point x="157" y="1360" type="line"/>
      <point x="109" y="1360" type="line"/>
      <point x="109" y="1358" type="line"/>
      <point x="330" y="1111" type="line"/>
      <point x="369" y="1111" type="line"/>
      <point x="369" y="1112" type="line"/>
    </contour>
  </outline>
</glyph>
<glyph name="acutecomb" format="2">
	<advance width="0"/>
	<unicode hex="0301"/>
	<anchor x="-346" y="1295" name="top"/>
	<anchor x="-351" y="971" name="_top"/>
	<outline>
		<contour>
			<point x="-156" y="1360" type="line"/>
			<point x="-368" y="1112" type="line"/>
			<point x="-368" y="1111" type="line"/>
			<point x="-329" y="1111" type="line"/>
			<point x="-108" y="1358" type="line"/>
			<point x="-108" y="1360" type="line"/>
		</contour>
	</outline>
</glyph>
<glyph name="circumflexcomb" format="2">
  <unicode hex="0302"/>
  <anchor x="334" y="971" name="_top"/>
  <anchor x="334" y="1295" name="top"/>
  <outline>
    <contour>
      <point x="309" y="1360" type="line"/>
      <point x="105" y="1112" type="line"/>
      <point x="105" y="1111" type="line"/>
      <point x="144" y="1111" type="line"/>
      <point x="331" y="1328" type="line"/>
      <point x="337" y="1328" type="line"/>
      <point x="524" y="1111" type="line"/>
      <point x="563" y="1111" type="line"/>
      <point x="563" y="1112" type="line"/>
      <point x="359" y="1360" type="line"/>
    </contour>
  </outline>
</glyph>
<glyph name="tildecomb" format="2">
	<advance width="0"/>
	<unicode hex="0303"/>
	<anchor x="-339" y="1290" name="top"/>
	<anchor x="-339" y="971" name="_top"/>
	<outline>
		<contour>
			<point x="-207" y="1151" type="curve" smooth="yes"/>
			<point x="-138" y="1151"/>
			<point x="-107" y="1193"/>
			<point x="-107" y="1278" type="curve" smooth="yes"/>
			<point x="-107" y="1307" type="line"/>
			<point x="-139" y="1307" type="line"/>
			<point x="-139" y="1280" type="line"/>
			<point x="-139" y="1213"/>
			<point x="-159" y="1184"/>
			<point x="-207" y="1184" type="curve" smooth="yes"/>
			<point x="-288" y="1184"/>
			<point x="-366" y="1299"/>
			<point x="-462" y="1299" type="curve" smooth="yes"/>
			<point x="-531" y="1299"/>
			<point x="-562" y="1256"/>
			<point x="-562" y="1171" type="curve" smooth="yes"/>
			<point x="-562" y="1142" type="line"/>
			<point x="-531" y="1142" type="line"/>
			<point x="-531" y="1170" type="line"/>
			<point x="-531" y="1237"/>
			<point x="-510" y="1266"/>
			<point x="-462" y="1266" type="curve" smooth="yes"/>
			<point x="-382" y="1266"/>
			<point x="-305" y="1151"/>
		</contour>
	</outline>
</glyph>
<glyph name="macroncomb" format="2">
  <unicode hex="0304"/>
  <anchor x="365" y="971" name="_top"/>
  <anchor x="366" y="1275" name="top"/>
  <outline>
    <contour>
      <point x="125" y="1212" type="line"/>
      <point x="605" y="1212" type="line"/>
      <point x="605" y="1244" type="line"/>
      <point x="125" y="1244" type="line"/>
    </contour>
  </outline>
</glyph>
<glyph name="dotaccentcomb" format="2">
	<advance width="0"/>
	<unicode hex="0307"/>
	<anchor x="-150" y="1300" name="top"/>
	<anchor x="-149" y="971" name="_top"/>
	<outline>
		<contour>
			<point x="-150" y="1182" type="curve" smooth="yes"/>
			<point x="-121" y="1182"/>
			<point x="-106" y="1200"/>
			<point x="-106" y="1237" type="curve" smooth="yes"/>
			<point x="-106" y="1243" type="line" smooth="yes"/>
			<point x="-106" y="1278"/>
			<point x="-121" y="1296"/>
			<point x="-150" y="1296" type="curve" smooth="yes"/>
			<point x="-178" y="1296"/>
			<point x="-193" y="1278"/>
			<point x="-193" y="1243" type="curve" smooth="yes"/>
			<point x="-193" y="1237" type="line" smooth="yes"/>
			<point x="-193" y="1200"/>
			<point x="-178" y="1182"/>
		</contour>
	</outline>
</glyph>
<glyph name="dieresiscomb" format="2">
	<advance width="0"/>
	<unicode hex="0308"/>
	<anchor x="-282" y="1300" name="top"/>
	<anchor x="-282" y="971" name="_top"/>
	<outline>
		<contour>
			<point x="-415" y="1182" type="curve" smooth="yes"/>
			<point x="-386" y="1182"/>
			<point x="-372" y="1200"/>
			<point x="-372" y="1237" type="curve" smooth="yes"/>
			<point x="-372" y="1243" type="line" smooth="yes"/>
			<point x="-372" y="1278"/>
			<point x="-386" y="1296"/>
			<point x="-415" y="1296" type="curve" smooth="yes"/>
			<point x="-444" y="1296"/>
			<point x="-458" y="1278"/>
			<point x="-458" y="1243" type="curve" smooth="yes"/>
			<point x="-458" y="1237" type="line" smooth="yes"/>
			<point x="-458" y="1200"/>
			<point x="-444" y="1182"/>
		</contour>
		<contour>
			<point x="-148" y="1182" type="curve" smooth="yes"/>
			<point x="-120" y="1182"/>
			<point x="-106" y="1200"/>
			<point x="-106" y="1237" type="curve" smooth="yes"/>
			<point x="-106" y="1243" type="line" smooth="yes"/>
			<point x="-106" y="1278"/>
			<point x="-120" y="1296"/>
			<point x="-148" y="1296" type="curve" smooth="yes"/>
			<point x="-177" y="1296"/>
			<point x="-191" y="1278"/>
			<point x="-191" y="1243" type="curve" smooth="yes"/>
			<point x="-191" y="1237" type="line" smooth="yes"/>
			<point x="-191" y="1200"/>
			<point x="-177" y="1182"/>
		</contour>
	</outline>
</glyph>
<glyph name="ringcomb" format="2">
  <unicode hex="030A"/>
  <anchor x="262" y="971" name="_top"/>
  <anchor x="263" y="1357" name="top"/>
  <outline>
    <contour>
      <point x="111" y="1253" type="line" smooth="yes"/>
      <point x="111" y="1164"/>
      <point x="169" y="1108"/>
      <point x="263" y="1108" type="curve" smooth="yes"/>
      <point x="356" y="1108"/>
      <point x="414" y="1164"/>
      <point x="414" y="1253" type="curve" smooth="yes"/>
      <point x="414" y="1255" type="line" smooth="yes"/>
      <point x="414" y="1346"/>
      <point x="356" y="1401"/>
      <point x="263" y="1401" type="curve" smooth="yes"/>
      <point x="169" y="1401"/>
      <point x="111" y="1346"/>
      <point x="111" y="1255" type="curve" smooth="yes"/>
    </contour>
    <contour>
      <point x="144" y="1253" type="curve" smooth="yes"/>
      <point x="144" y="1255" type="line" smooth="yes"/>
      <point x="144" y="1328"/>
      <point x="187" y="1371"/>
      <point x="263" y="1371" type="curve" smooth="yes"/>
      <point x="339" y="1371"/>
      <point x="382" y="1328"/>
      <point x="382" y="1255" type="curve" smooth="yes"/>
      <point x="382" y="1253" type="line" smooth="yes"/>
      <point x="382" y="1181"/>
      <point x="339" y="1139"/>
      <point x="263" y="1139" type="curve" smooth="yes"/>
      <point x="187" y="1139"/>
      <point x="144" y="1181"/>
    </contour>
  </outline>
</glyph>
<glyph name="cedillacomb" format="2">
	<advance width="0"/>
	<unicode hex="0327"/>
	<anchor x="-267" y="0" name="_bottom"/>
	<anchor x="-215" y="-377" name="bottom"/>
	<outline>
		<contour>
			<point x="-250" y="2" type="line"/>
			<point x="-283" y="2" type="line"/>
			<point x="-300" y="-142" type="line"/>
			<point x="-284" y="-143"/>
			<point x="-269" y="-144"/>
			<point x="-257" y="-145" type="curve" smooth="yes"/>
			<point x="-136" y="-154"/>
			<point x="-88" y="-179"/>
			<point x="-88" y="-251" type="curve" smooth="yes"/>
			<point x="-88" y="-254" type="line" smooth="yes"/>
			<point x="-88" y="-313"/>
			<point x="-134" y="-344"/>
			<point x="-230" y="-344" type="curve" smooth="yes"/>
			<point x="-285" y="-344"/>
			<point x="-335" y="-333"/>
			<point x="-376" y="-316" type="curve"/>
			<point x="-368" y="-353" type="line"/>
			<point x="-335" y="-365"/>
			<point x="-282" y="-377"/>
			<point x="-229" y="-377" type="curve" smooth="yes"/>
			<point x="-116" y="-377"/>
			<point x="-53" y="-335"/>
			<point x="-53" y="-253" type="curve" smooth="yes"/>
			<point x="-53" y="-250" type="line" smooth="yes"/>
			<point x="-53" y="-163"/>
			<point x="-111" y="-127"/>
			<point x="-243" y="-117" type="curve" smooth="yes"/>
			<point x="-257" y="-116"/>
			<point x="-280" y="-115"/>
			<point x="-288" y="-114" type="curve"/>
			<point x="-266" y="-133" type="line"/>
		</contour>
	</outline>
</glyph>
<glyph name="Danda.bn" format="2">
  <advance width="672"/>
  <unicode hex="0964"/>
  <outline>
    <contour>
      <point x="318" y="1309" type="line"/>
      <point x="318" y="-60" type="line"/>
      <point x="353" y="-60" type="line"/>
      <point x="353" y="1309" type="line"/>
    </contour>
  </outline>
</glyph>
<glyph name="Doubledanda.bn" format="2">
	<advance width="1302"/>
	<unicode hex="0965"/>
	<outline>
		<contour>
			<point x="318" y="1309" type="line"/>
			<point x="318" y="-60" type="line"/>
			<point x="353" y="-60" type="line"/>
			<point x="353" y="1309" type="line"/>
		</contour>
		<contour>
			<point x="948" y="1309" type="line"/>
			<point x="948" y="-60" type="line"/>
			<point x="983" y="-60" type="line"/>
			<point x="983" y="1309" type="line"/>
		</contour>
	</outline>
</glyph>
<glyph name="anji.bn" format="2">
  <advance width="1147"/>
  <unicode hex="0980"/>
  <outline>
    <contour>
      <point x="558" y="1233" type="curve" smooth="yes"/>
      <point x="406" y="1233"/>
      <point x="280" y="1175"/>
      <point x="211" y="1046" type="curve" smooth="yes"/>
      <point x="165" y="976"/>
      <point x="126" y="801"/>
      <point x="126" y="700" type="curve" smooth="yes"/>
      <point x="126" y="535"/>
      <point x="237" y="428"/>
      <point x="451" y="428" type="curve" smooth="yes"/>
      <point x="625" y="428" type="line"/>
      <point x="631" y="461" type="line"/>
      <point x="451" y="461" type="line" smooth="yes"/>
      <point x="275" y="461"/>
      <point x="161" y="548"/>
      <point x="161" y="700" type="curve" smooth="yes"/>
      <point x="161" y="791"/>
      <point x="198" y="955"/>
      <point x="246" y="1038" type="curve" smooth="yes"/>
      <point x="310" y="1145"/>
      <point x="422" y="1201"/>
      <point x="558" y="1201" type="curve" smooth="yes"/>
      <point x="770" y="1201"/>
      <point x="880" y="1102"/>
      <point x="880" y="899" type="curve" smooth="yes"/>
      <point x="880" y="241" type="line"/>
      <point x="915" y="241" type="line"/>
      <point x="915" y="895" type="line" smooth="yes"/>
      <point x="915" y="1119"/>
      <point x="794" y="1233"/>
    </contour>
    <contour>
      <point x="914" y="323" type="line"/>
      <point x="879" y="323" type="line"/>
      <point x="879" y="176" type="line" smooth="yes"/>
      <point x="879" y="48"/>
      <point x="946" y="-30"/>
      <point x="1064" y="-30" type="curve" smooth="yes"/>
      <point x="1092" y="-30" type="line"/>
      <point x="1087" y="1" type="line"/>
      <point x="1064" y="1" type="line" smooth="yes"/>
      <point x="968" y="1"/>
      <point x="914" y="64"/>
      <point x="914" y="176" type="curve" smooth="yes"/>
    </contour>
  </outline>
</glyph>
<glyph name="Candrabindu.bn" format="2">
  <unicode hex="0981"/>
  <anchor x="-190" y="1724" name="_top2"/>
  <outline>
    <contour>
      <point x="366" y="1711" type="curve"/>
      <point x="335" y="1711" type="line"/>
      <point x="335" y="1675" type="line" smooth="yes"/>
      <point x="335" y="1528"/>
      <point x="245" y="1459"/>
      <point x="76" y="1459" type="curve" smooth="yes"/>
      <point x="-90" y="1459"/>
      <point x="-179" y="1528"/>
      <point x="-179" y="1675" type="curve" smooth="yes"/>
      <point x="-179" y="1711" type="line"/>
      <point x="-211" y="1711" type="line"/>
      <point x="-211" y="1697"/>
      <point x="-211" y="1685"/>
      <point x="-211" y="1674" type="curve" smooth="yes"/>
      <point x="-211" y="1511"/>
      <point x="-110" y="1426"/>
      <point x="76" y="1426" type="curve" smooth="yes"/>
      <point x="266" y="1426"/>
      <point x="366" y="1511"/>
      <point x="366" y="1674" type="curve" smooth="yes"/>
      <point x="366" y="1685"/>
      <point x="366" y="1696"/>
    </contour>
    <contour>
      <point x="77" y="1663" type="curve" smooth="yes"/>
      <point x="107" y="1663"/>
      <point x="119" y="1683"/>
      <point x="119" y="1716" type="curve" smooth="yes"/>
      <point x="119" y="1724" type="line" smooth="yes"/>
      <point x="119" y="1759"/>
      <point x="107" y="1779"/>
      <point x="77" y="1779" type="curve" smooth="yes"/>
      <point x="47" y="1779"/>
      <point x="35" y="1759"/>
      <point x="35" y="1724" type="curve" smooth="yes"/>
      <point x="35" y="1716" type="line" smooth="yes"/>
      <point x="35" y="1683"/>
      <point x="47" y="1663"/>
    </contour>
  </outline>
</glyph>
<glyph name="Anuswara.bn" format="2">
  <advance width="979"/>
  <unicode hex="0982"/>
  <outline>
    <contour>
      <point x="849" y="-18" type="line"/>
      <point x="855" y="17" type="line"/>
      <point x="173" y="445" type="line"/>
      <point x="166" y="409" type="line"/>
    </contour>
    <contour>
      <point x="467" y="619" type="curve" smooth="yes"/>
      <point x="649" y="619"/>
      <point x="768" y="715"/>
      <point x="768" y="903" type="curve" smooth="yes"/>
      <point x="768" y="952" type="line" smooth="yes"/>
      <point x="768" y="1131"/>
      <point x="645" y="1239"/>
      <point x="467" y="1239" type="curve" smooth="yes"/>
      <point x="287" y="1239"/>
      <point x="166" y="1137"/>
      <point x="166" y="952" type="curve" smooth="yes"/>
      <point x="166" y="903" type="line" smooth="yes"/>
      <point x="166" y="715"/>
      <point x="286" y="619"/>
    </contour>
    <contour>
      <point x="467" y="651" type="curve" smooth="yes"/>
      <point x="306" y="651"/>
      <point x="201" y="736"/>
      <point x="201" y="904" type="curve" smooth="yes"/>
      <point x="201" y="951" type="line" smooth="yes"/>
      <point x="201" y="1117"/>
      <point x="307" y="1207"/>
      <point x="467" y="1207" type="curve" smooth="yes"/>
      <point x="630" y="1207"/>
      <point x="733" y="1117"/>
      <point x="733" y="951" type="curve" smooth="yes"/>
      <point x="733" y="904" type="line" smooth="yes"/>
      <point x="733" y="736"/>
      <point x="629" y="651"/>
    </contour>
  </outline>
</glyph>
<glyph name="Visarga.bn" format="2">
  <advance width="938"/>
  <unicode hex="0983"/>
  <outline>
    <contour>
      <point x="467" y="664" type="curve" smooth="yes"/>
      <point x="653" y="664"/>
      <point x="768" y="758"/>
      <point x="768" y="938" type="curve" smooth="yes"/>
      <point x="768" y="960" type="line" smooth="yes"/>
      <point x="768" y="1133"/>
      <point x="649" y="1239"/>
      <point x="467" y="1239" type="curve" smooth="yes"/>
      <point x="283" y="1239"/>
      <point x="166" y="1139"/>
      <point x="166" y="960" type="curve" smooth="yes"/>
      <point x="166" y="938" type="line" smooth="yes"/>
      <point x="166" y="758"/>
      <point x="282" y="664"/>
    </contour>
    <contour>
      <point x="467" y="696" type="curve" smooth="yes"/>
      <point x="302" y="696"/>
      <point x="201" y="779"/>
      <point x="201" y="940" type="curve" smooth="yes"/>
      <point x="201" y="959" type="line" smooth="yes"/>
      <point x="201" y="1119"/>
      <point x="303" y="1207"/>
      <point x="467" y="1207" type="curve" smooth="yes"/>
      <point x="634" y="1207"/>
      <point x="733" y="1119"/>
      <point x="733" y="959" type="curve" smooth="yes"/>
      <point x="733" y="940" type="line" smooth="yes"/>
      <point x="733" y="779"/>
      <point x="633" y="696"/>
    </contour>
    <contour>
      <point x="467" y="-16" type="curve" smooth="yes"/>
      <point x="653" y="-16"/>
      <point x="768" y="78"/>
      <point x="768" y="258" type="curve" smooth="yes"/>
      <point x="768" y="280" type="line" smooth="yes"/>
      <point x="768" y="453"/>
      <point x="649" y="559"/>
      <point x="467" y="559" type="curve" smooth="yes"/>
      <point x="283" y="559"/>
      <point x="166" y="459"/>
      <point x="166" y="280" type="curve" smooth="yes"/>
      <point x="166" y="258" type="line" smooth="yes"/>
      <point x="166" y="78"/>
      <point x="282" y="-16"/>
    </contour>
    <contour>
      <point x="467" y="16" type="curve" smooth="yes"/>
      <point x="302" y="16"/>
      <point x="201" y="99"/>
      <point x="201" y="260" type="curve" smooth="yes"/>
      <point x="201" y="279" type="line" smooth="yes"/>
      <point x="201" y="439"/>
      <point x="303" y="527"/>
      <point x="467" y="527" type="curve" smooth="yes"/>
      <point x="634" y="527"/>
      <point x="733" y="439"/>
      <point x="733" y="279" type="curve" smooth="yes"/>
      <point x="733" y="260" type="line" smooth="yes"/>
      <point x="733" y="99"/>
      <point x="633" y="16"/>
    </contour>
  </outline>
</glyph>
<glyph name="VowelA.bn" format="2">
  <advance width="1828"/>
  <unicode hex="0985"/>
  <note>
VowelA.bn
</note>
  <anchor x="1566" y="1418" name="top"/>
  <anchor x="1317" y="1719" name="top2"/>
  <outline>
    <contour>
      <point x="708" y="176" type="curve" smooth="yes"/>
      <point x="1017" y="176"/>
      <point x="1182" y="321"/>
      <point x="1182" y="600" type="curve" smooth="yes"/>
      <point x="1182" y="689" type="line" smooth="yes"/>
      <point x="1182" y="880"/>
      <point x="1069" y="991"/>
      <point x="887" y="991" type="curve" smooth="yes"/>
      <point x="695" y="991"/>
      <point x="595" y="887"/>
      <point x="595" y="704" type="curve" smooth="yes"/>
      <point x="595" y="667"/>
      <point x="595" y="624"/>
      <point x="595" y="588" type="curve"/>
      <point x="631" y="588" type="line"/>
      <point x="631" y="624"/>
      <point x="631" y="667"/>
      <point x="631" y="704" type="curve" smooth="yes"/>
      <point x="631" y="865"/>
      <point x="717" y="958"/>
      <point x="889" y="958" type="curve" smooth="yes"/>
      <point x="1052" y="958"/>
      <point x="1146" y="858"/>
      <point x="1146" y="689" type="curve" smooth="yes"/>
      <point x="1146" y="600" type="line" smooth="yes"/>
      <point x="1146" y="341"/>
      <point x="998" y="211"/>
      <point x="708" y="211" type="curve" smooth="yes"/>
      <point x="424" y="211"/>
      <point x="239" y="362"/>
      <point x="219" y="645" type="curve" smooth="yes"/>
      <point x="199" y="928" type="line"/>
      <point x="164" y="928" type="line"/>
      <point x="185" y="644" type="line" smooth="yes"/>
      <point x="207" y="345"/>
      <point x="400" y="176"/>
    </contour>
    <contour>
      <point x="1572" y="0" type="line"/>
      <point x="1603" y="0" type="line"/>
      <point x="1603" y="1208" type="line"/>
      <point x="1568" y="1208" type="line"/>
      <point x="1568" y="142" type="line"/>
      <point x="1569" y="25" type="line"/>
      <point x="1595" y="39" type="line"/>
      <point x="1577" y="35" type="line"/>
      <point x="1084" y="321" type="line"/>
      <point x="1058" y="298" type="line"/>
    </contour>
    <contour>
      <point x="-19" y="1197" type="line"/>
      <point x="1598" y="1197" type="line"/>
      <point x="1598" y="1228" type="line"/>
      <point x="-24" y="1228" type="line"/>
    </contour>
    <contour>
      <point x="1580" y="1220" type="line"/>
      <point x="1580" y="968" type="line"/>
      <point x="1603" y="968" type="line"/>
      <point x="1603" y="1220" type="line"/>
    </contour>
    <contour>
      <point x="1580" y="1197" type="line"/>
      <point x="1892" y="1197" type="line"/>
      <point x="1887" y="1228" type="line"/>
      <point x="1580" y="1228" type="line"/>
    </contour>
  </outline>
</glyph>
<glyph name="VowelAa.bn" format="2">
  <advance width="2314"/>
  <unicode hex="0986"/>
  <note>
VowelAa.bn
</note>
  <anchor x="2052" y="1418" name="top"/>
  <anchor x="1803" y="1719" name="top2"/>
  <outline>
    <contour>
      <point x="708" y="176" type="curve" smooth="yes"/>
      <point x="1017" y="176"/>
      <point x="1182" y="321"/>
      <point x="1182" y="600" type="curve" smooth="yes"/>
      <point x="1182" y="689" type="line" smooth="yes"/>
      <point x="1182" y="880"/>
      <point x="1069" y="991"/>
      <point x="887" y="991" type="curve" smooth="yes"/>
      <point x="695" y="991"/>
      <point x="595" y="887"/>
      <point x="595" y="704" type="curve" smooth="yes"/>
      <point x="595" y="667"/>
      <point x="595" y="624"/>
      <point x="595" y="588" type="curve"/>
      <point x="631" y="588" type="line"/>
      <point x="631" y="624"/>
      <point x="631" y="667"/>
      <point x="631" y="704" type="curve" smooth="yes"/>
      <point x="631" y="865"/>
      <point x="717" y="958"/>
      <point x="889" y="958" type="curve" smooth="yes"/>
      <point x="1052" y="958"/>
      <point x="1146" y="858"/>
      <point x="1146" y="689" type="curve" smooth="yes"/>
      <point x="1146" y="600" type="line" smooth="yes"/>
      <point x="1146" y="341"/>
      <point x="998" y="211"/>
      <point x="708" y="211" type="curve" smooth="yes"/>
      <point x="424" y="211"/>
      <point x="239" y="362"/>
      <point x="219" y="645" type="curve" smooth="yes"/>
      <point x="199" y="928" type="line"/>
      <point x="164" y="928" type="line"/>
      <point x="185" y="644" type="line" smooth="yes"/>
      <point x="207" y="345"/>
      <point x="400" y="176"/>
    </contour>
    <contour>
      <point x="1572" y="0" type="line"/>
      <point x="1603" y="0" type="line"/>
      <point x="1603" y="1208" type="line"/>
      <point x="1568" y="1208" type="line"/>
      <point x="1568" y="142" type="line"/>
      <point x="1569" y="25" type="line"/>
      <point x="1595" y="39" type="line"/>
      <point x="1577" y="35" type="line"/>
      <point x="1084" y="321" type="line"/>
      <point x="1058" y="298" type="line"/>
    </contour>
    <contour>
      <point x="-19" y="1197" type="line"/>
      <point x="1598" y="1197" type="line"/>
      <point x="1598" y="1228" type="line"/>
      <point x="-24" y="1228" type="line"/>
    </contour>
    <contour>
      <point x="1580" y="1220" type="line"/>
      <point x="1580" y="968" type="line"/>
      <point x="1603" y="968" type="line"/>
      <point x="1603" y="1220" type="line"/>
    </contour>
    <contour>
      <point x="1580" y="1197" type="line"/>
      <point x="1892" y="1197" type="line"/>
      <point x="1887" y="1228" type="line"/>
      <point x="1580" y="1228" type="line"/>
    </contour>
    <contour>
      <point x="2054" y="0" type="line"/>
      <point x="2089" y="0" type="line"/>
      <point x="2089" y="1208" type="line"/>
      <point x="2054" y="1208" type="line"/>
    </contour>
    <contour>
      <point x="1768" y="1197" type="line"/>
      <point x="2089" y="1197" type="line"/>
      <point x="2089" y="1228" type="line"/>
      <point x="1763" y="1228" type="line"/>
    </contour>
    <contour>
      <point x="2066" y="1220" type="line"/>
      <point x="2066" y="968" type="line"/>
      <point x="2089" y="968" type="line"/>
      <point x="2089" y="1220" type="line"/>
    </contour>
    <contour>
      <point x="2066" y="1197" type="line"/>
      <point x="2378" y="1197" type="line"/>
      <point x="2373" y="1228" type="line"/>
      <point x="2066" y="1228" type="line"/>
    </contour>
  </outline>
</glyph>
<glyph name="VowelI.bn" format="2">
  <advance width="1088"/>
  <unicode hex="0987"/>
  <note>
VowelI.bn
</note>
  <anchor x="659" y="208" name="bottom1"/>
  <anchor x="671" y="1529" name="top"/>
  <anchor x="717" y="1631" name="top2"/>
  <outline>
    <contour>
      <point x="1014" y="-112" type="line"/>
      <point x="1018" y="-77" type="line"/>
      <point x="432" y="182" type="line"/>
      <point x="254" y="254" type="line"/>
      <point x="309" y="254" type="line"/>
      <point x="224" y="256" type="line"/>
      <point x="319" y="230"/>
      <point x="410" y="218"/>
      <point x="511" y="218" type="curve" smooth="yes"/>
      <point x="784" y="218"/>
      <point x="920" y="347"/>
      <point x="920" y="570" type="curve" smooth="yes"/>
      <point x="920" y="625" type="line" smooth="yes"/>
      <point x="920" y="857"/>
      <point x="784" y="990"/>
      <point x="549" y="990" type="curve" smooth="yes"/>
      <point x="316" y="990"/>
      <point x="178" y="864"/>
      <point x="178" y="648" type="curve" smooth="yes"/>
      <point x="178" y="624"/>
      <point x="178" y="601"/>
      <point x="178" y="578" type="curve"/>
      <point x="214" y="578" type="line"/>
      <point x="214" y="601"/>
      <point x="214" y="624"/>
      <point x="214" y="648" type="curve" smooth="yes"/>
      <point x="214" y="845"/>
      <point x="337" y="957"/>
      <point x="550" y="957" type="curve" smooth="yes"/>
      <point x="764" y="957"/>
      <point x="884" y="839"/>
      <point x="884" y="625" type="curve" smooth="yes"/>
      <point x="884" y="570" type="line" smooth="yes"/>
      <point x="884" y="365"/>
      <point x="760" y="251"/>
      <point x="502" y="251" type="curve" smooth="yes"/>
      <point x="387" y="251"/>
      <point x="289" y="263"/>
      <point x="198" y="292" type="curve" smooth="yes"/>
      <point x="142" y="310" type="line"/>
      <point x="137" y="277" type="line"/>
    </contour>
    <contour>
      <point x="-42" y="1197" type="line"/>
      <point x="1147" y="1197" type="line"/>
      <point x="1142" y="1228" type="line"/>
      <point x="-47" y="1228" type="line"/>
    </contour>
    <contour>
      <point x="901" y="1225" type="line"/>
      <point x="915" y="1261"/>
      <point x="921" y="1297"/>
      <point x="921" y="1337" type="curve" smooth="yes"/>
      <point x="921" y="1475"/>
      <point x="835" y="1542"/>
      <point x="670" y="1542" type="curve" smooth="yes"/>
      <point x="350" y="1542" type="line" smooth="yes"/>
      <point x="215" y="1542"/>
      <point x="149" y="1595"/>
      <point x="149" y="1705" type="curve" smooth="yes"/>
      <point x="149" y="1728" type="line"/>
      <point x="120" y="1728" type="line"/>
      <point x="120" y="1705" type="line" smooth="yes"/>
      <point x="120" y="1576"/>
      <point x="196" y="1511"/>
      <point x="350" y="1511" type="curve" smooth="yes"/>
      <point x="670" y="1511" type="line" smooth="yes"/>
      <point x="820" y="1511"/>
      <point x="889" y="1458"/>
      <point x="889" y="1336" type="curve" smooth="yes"/>
      <point x="889" y="1290"/>
      <point x="882" y="1250"/>
      <point x="867" y="1213" type="curve"/>
      <point x="892" y="1210" type="line"/>
    </contour>
  </outline>
</glyph>
<glyph name="VowelIi.bn" format="2">
  <advance width="1477"/>
  <unicode hex="0988"/>
  <anchor x="1040.3" y="1529" name="top"/>
  <anchor x="1086.3" y="1631" name="top2"/>
  <outline>
    <contour>
      <point x="1222" y="-34" type="line"/>
      <point x="1257" y="-34" type="line"/>
      <point x="1257" y="892" type="line"/>
      <point x="1219" y="892" type="line"/>
      <point x="1061" y="728"/>
      <point x="847" y="493"/>
      <point x="740" y="382" type="curve"/>
      <point x="748" y="367" type="line"/>
      <point x="777" y="404"/>
      <point x="793" y="476"/>
      <point x="793" y="548" type="curve" smooth="yes"/>
      <point x="793" y="687" type="line" smooth="yes"/>
      <point x="793" y="882"/>
      <point x="690" y="991"/>
      <point x="488" y="991" type="curve" smooth="yes"/>
      <point x="289" y="991"/>
      <point x="184" y="889"/>
      <point x="184" y="695" type="curve" smooth="yes"/>
      <point x="184" y="659"/>
      <point x="184" y="614"/>
      <point x="184" y="577" type="curve"/>
      <point x="220" y="577" type="line"/>
      <point x="220" y="614"/>
      <point x="220" y="659"/>
      <point x="220" y="695" type="curve" smooth="yes"/>
      <point x="220" y="867"/>
      <point x="310" y="958"/>
      <point x="490" y="958" type="curve" smooth="yes"/>
      <point x="671" y="958"/>
      <point x="758" y="862"/>
      <point x="758" y="687" type="curve" smooth="yes"/>
      <point x="758" y="528" type="line" smooth="yes"/>
      <point x="758" y="351"/>
      <point x="635" y="262"/>
      <point x="434" y="262" type="curve" smooth="yes"/>
      <point x="345" y="262"/>
      <point x="270" y="272"/>
      <point x="209" y="289" type="curve" smooth="yes"/>
      <point x="174" y="299" type="line"/>
      <point x="173" y="264" type="line"/>
      <point x="250" y="239"/>
      <point x="335" y="228"/>
      <point x="435" y="228" type="curve" smooth="yes"/>
      <point x="570" y="228"/>
      <point x="656" y="261"/>
      <point x="727" y="321" type="curve" smooth="yes"/>
      <point x="838" y="427"/>
      <point x="1074" y="698"/>
      <point x="1236" y="857" type="curve"/>
      <point x="1225" y="872" type="line"/>
      <point x="1222" y="674" type="line"/>
    </contour>
    <contour>
      <point x="-55" y="1197" type="line"/>
      <point x="1504" y="1197" type="line"/>
      <point x="1499" y="1228" type="line"/>
      <point x="-60" y="1228" type="line"/>
    </contour>
    <contour>
      <point x="1271" y="1225" type="line"/>
      <point x="1284" y="1261"/>
      <point x="1290" y="1297"/>
      <point x="1290" y="1337" type="curve" smooth="yes"/>
      <point x="1290" y="1475"/>
      <point x="1205" y="1542"/>
      <point x="1039" y="1542" type="curve" smooth="yes"/>
      <point x="425" y="1542" type="line" smooth="yes"/>
      <point x="289" y="1542"/>
      <point x="224" y="1595"/>
      <point x="224" y="1705" type="curve" smooth="yes"/>
      <point x="224" y="1728" type="line"/>
      <point x="194" y="1728" type="line"/>
      <point x="194" y="1705" type="line" smooth="yes"/>
      <point x="194" y="1576"/>
      <point x="271" y="1511"/>
      <point x="425" y="1511" type="curve" smooth="yes"/>
      <point x="1039" y="1511" type="line" smooth="yes"/>
      <point x="1190" y="1511"/>
      <point x="1259" y="1458"/>
      <point x="1259" y="1336" type="curve" smooth="yes"/>
      <point x="1259" y="1290"/>
      <point x="1251" y="1250"/>
      <point x="1237" y="1213" type="curve"/>
      <point x="1261" y="1210" type="line"/>
    </contour>
  </outline>
</glyph>
<glyph name="VowelU.bn" format="2">
  <advance width="1343"/>
  <unicode hex="0989"/>
  <note>
VowelU.bn
</note>
  <anchor x="826" y="185" name="bottom1"/>
  <anchor x="922.9" y="1529" name="top"/>
  <anchor x="968.9" y="1631" name="top2"/>
  <outline>
    <contour>
      <point x="175" y="929" type="line"/>
      <point x="140" y="929" type="line"/>
      <point x="169" y="512" type="line" smooth="yes"/>
      <point x="191" y="192"/>
      <point x="379" y="20"/>
      <point x="698" y="20" type="curve" smooth="yes"/>
      <point x="1012" y="20"/>
      <point x="1189" y="182"/>
      <point x="1189" y="501" type="curve" smooth="yes"/>
      <point x="1189" y="622"/>
      <point x="1181" y="759"/>
      <point x="1162" y="891" type="curve"/>
      <point x="1129" y="895" type="line"/>
      <point x="1058" y="783" type="line" smooth="yes"/>
      <point x="991" y="677"/>
      <point x="926" y="603"/>
      <point x="807" y="603" type="curve" smooth="yes"/>
      <point x="691" y="603"/>
      <point x="632" y="669"/>
      <point x="632" y="802" type="curve" smooth="yes"/>
      <point x="632" y="1216" type="line"/>
      <point x="597" y="1216" type="line"/>
      <point x="597" y="802" type="line" smooth="yes"/>
      <point x="597" y="646"/>
      <point x="668" y="570"/>
      <point x="810" y="570" type="curve" smooth="yes"/>
      <point x="942" y="570"/>
      <point x="1022" y="661"/>
      <point x="1086" y="764" type="curve" smooth="yes"/>
      <point x="1147" y="862" type="line"/>
      <point x="1132" y="866" type="line"/>
      <point x="1146" y="752"/>
      <point x="1153" y="613"/>
      <point x="1153" y="501" type="curve" smooth="yes"/>
      <point x="1153" y="202"/>
      <point x="985" y="55"/>
      <point x="698" y="55" type="curve" smooth="yes"/>
      <point x="399" y="55"/>
      <point x="225" y="216"/>
      <point x="204" y="516" type="curve" smooth="yes"/>
    </contour>
    <contour>
      <point x="-67" y="1197" type="line"/>
      <point x="1397" y="1197" type="line"/>
      <point x="1392" y="1228" type="line"/>
      <point x="-72" y="1228" type="line"/>
    </contour>
    <contour>
      <point x="1153" y="1225" type="line"/>
      <point x="1167" y="1261"/>
      <point x="1173" y="1297"/>
      <point x="1173" y="1337" type="curve" smooth="yes"/>
      <point x="1173" y="1475"/>
      <point x="1087" y="1542"/>
      <point x="922" y="1542" type="curve" smooth="yes"/>
      <point x="403" y="1542" type="line" smooth="yes"/>
      <point x="268" y="1542"/>
      <point x="202" y="1595"/>
      <point x="202" y="1705" type="curve" smooth="yes"/>
      <point x="202" y="1728" type="line"/>
      <point x="173" y="1728" type="line"/>
      <point x="173" y="1705" type="line" smooth="yes"/>
      <point x="173" y="1576"/>
      <point x="250" y="1511"/>
      <point x="403" y="1511" type="curve" smooth="yes"/>
      <point x="922" y="1511" type="line" smooth="yes"/>
      <point x="1072" y="1511"/>
      <point x="1141" y="1458"/>
      <point x="1141" y="1336" type="curve" smooth="yes"/>
      <point x="1141" y="1290"/>
      <point x="1134" y="1250"/>
      <point x="1119" y="1213" type="curve"/>
      <point x="1144" y="1210" type="line"/>
    </contour>
  </outline>
</glyph>
<glyph name="VowelUu.bn" format="2">
	<advance width="1484"/>
	<unicode hex="098A"/>
	<anchor x="1065.2" y="1529" name="top"/>
	<anchor x="1111.2" y="1631" name="top2"/>
	<outline>
		<contour>
			<point x="739" y="1216" type="line"/>
			<point x="739" y="802" type="line" smooth="yes"/>
			<point x="739" y="646"/>
			<point x="811" y="570"/>
			<point x="958" y="570" type="curve" smooth="yes"/>
			<point x="1066" y="570"/>
			<point x="1151" y="638"/>
			<point x="1237" y="777" type="curve" smooth="yes"/>
			<point x="1289" y="861" type="line"/>
			<point x="1274" y="866" type="line"/>
			<point x="1290" y="732"/>
			<point x="1295" y="604"/>
			<point x="1295" y="481" type="curve" smooth="yes"/>
			<point x="1295" y="202"/>
			<point x="1141" y="55"/>
			<point x="853" y="55" type="curve" smooth="yes"/>
			<point x="618" y="55"/>
			<point x="472" y="199"/>
			<point x="452" y="521" type="curve" smooth="yes"/>
			<point x="425" y="954" type="line"/>
			<point x="389" y="954" type="line"/>
			<point x="419" y="517" type="line" smooth="yes"/>
			<point x="438" y="240"/>
			<point x="549" y="87"/>
			<point x="734" y="42" type="curve"/>
			<point x="683" y="77" type="line"/>
			<point x="672" y="49" type="line"/>
			<point x="733" y="54" type="line"/>
			<point x="430" y="66"/>
			<point x="231" y="204"/>
			<point x="207" y="509" type="curve" smooth="yes"/>
			<point x="179" y="864" type="line"/>
			<point x="144" y="864" type="line"/>
			<point x="174" y="506" type="line" smooth="yes"/>
			<point x="201" y="189"/>
			<point x="391" y="20"/>
			<point x="849" y="20" type="curve" smooth="yes"/>
			<point x="1164" y="20"/>
			<point x="1331" y="178"/>
			<point x="1331" y="481" type="curve" smooth="yes"/>
			<point x="1331" y="642"/>
			<point x="1323" y="759"/>
			<point x="1304" y="891" type="curve"/>
			<point x="1271" y="895" type="line"/>
			<point x="1209" y="796" type="line" smooth="yes"/>
			<point x="1121" y="655"/>
			<point x="1049" y="603"/>
			<point x="955" y="603" type="curve" smooth="yes"/>
			<point x="834" y="603"/>
			<point x="774" y="669"/>
			<point x="774" y="802" type="curve" smooth="yes"/>
			<point x="774" y="1216" type="line"/>
		</contour>
		<contour>
			<point x="-67" y="1197" type="line"/>
			<point x="1538" y="1197" type="line"/>
			<point x="1533" y="1228" type="line"/>
			<point x="-72" y="1228" type="line"/>
		</contour>
		<contour>
			<point x="1296" y="1225" type="line"/>
			<point x="1309" y="1261"/>
			<point x="1315" y="1297"/>
			<point x="1315" y="1337" type="curve" smooth="yes"/>
			<point x="1315" y="1475"/>
			<point x="1230" y="1542"/>
			<point x="1064" y="1542" type="curve" smooth="yes"/>
			<point x="456" y="1542" type="line" smooth="yes"/>
			<point x="321" y="1542"/>
			<point x="255" y="1595"/>
			<point x="255" y="1705" type="curve" smooth="yes"/>
			<point x="255" y="1728" type="line"/>
			<point x="226" y="1728" type="line"/>
			<point x="226" y="1705" type="line" smooth="yes"/>
			<point x="226" y="1576"/>
			<point x="303" y="1511"/>
			<point x="456" y="1511" type="curve" smooth="yes"/>
			<point x="1064" y="1511" type="line" smooth="yes"/>
			<point x="1215" y="1511"/>
			<point x="1284" y="1458"/>
			<point x="1284" y="1336" type="curve" smooth="yes"/>
			<point x="1284" y="1290"/>
			<point x="1276" y="1250"/>
			<point x="1262" y="1213" type="curve"/>
			<point x="1286" y="1210" type="line"/>
		</contour>
	</outline>
</glyph>
<glyph name="VowelLru.bn" format="2">
  <advance width="1338"/>
  <unicode hex="098C"/>
  <anchor x="602" y="1485" name="top2"/>
  <outline>
    <contour>
      <point x="164" y="0" type="curve"/>
      <point x="199" y="0" type="line"/>
      <point x="199" y="75"/>
      <point x="199" y="151"/>
      <point x="199" y="226" type="curve" smooth="yes"/>
      <point x="199" y="317" type="line" smooth="yes"/>
      <point x="199" y="509"/>
      <point x="283" y="596"/>
      <point x="451" y="596" type="curve" smooth="yes"/>
      <point x="603" y="596"/>
      <point x="704" y="517"/>
      <point x="704" y="312" type="curve" smooth="yes"/>
      <point x="704" y="0" type="line"/>
      <point x="809" y="0" type="line" smooth="yes"/>
      <point x="1040" y="0"/>
      <point x="1185" y="111"/>
      <point x="1185" y="349" type="curve" smooth="yes"/>
      <point x="1185" y="482" type="line" smooth="yes"/>
      <point x="1185" y="756"/>
      <point x="1049" y="902"/>
      <point x="736" y="959" type="curve" smooth="yes"/>
      <point x="501" y="1002" type="line" smooth="yes"/>
      <point x="332" y="1033"/>
      <point x="260" y="1098"/>
      <point x="260" y="1225" type="curve" smooth="yes"/>
      <point x="260" y="1239" type="line"/>
      <point x="226" y="1239" type="line"/>
      <point x="226" y="1225" type="line" smooth="yes"/>
      <point x="226" y="1081"/>
      <point x="304" y="1004"/>
      <point x="492" y="969" type="curve" smooth="yes"/>
      <point x="726" y="926" type="line" smooth="yes"/>
      <point x="1021" y="872"/>
      <point x="1150" y="740"/>
      <point x="1150" y="483" type="curve" smooth="yes"/>
      <point x="1150" y="350" type="line" smooth="yes"/>
      <point x="1150" y="133"/>
      <point x="1018" y="33"/>
      <point x="807" y="33" type="curve" smooth="yes"/>
      <point x="725" y="33" type="line"/>
      <point x="739" y="17" type="line"/>
      <point x="739" y="312" type="line" smooth="yes"/>
      <point x="739" y="531"/>
      <point x="629" y="630"/>
      <point x="450" y="630" type="curve" smooth="yes"/>
      <point x="263" y="630"/>
      <point x="164" y="531"/>
      <point x="164" y="318" type="curve" smooth="yes"/>
      <point x="164" y="228" type="line" smooth="yes"/>
      <point x="164" y="154"/>
      <point x="164" y="77"/>
    </contour>
  </outline>
</glyph>
<glyph name="VowelE.bn" format="2">
  <advance width="1359"/>
  <unicode hex="098F"/>
  <anchor x="555" y="1719" name="top2"/>
  <outline>
    <contour>
      <point x="816" y="583" type="curve"/>
      <point x="822" y="616" type="line"/>
      <point x="775" y="612"/>
      <point x="727" y="607"/>
      <point x="667" y="607" type="curve" smooth="yes"/>
      <point x="528" y="607"/>
      <point x="449" y="661"/>
      <point x="449" y="793" type="curve" smooth="yes"/>
      <point x="449" y="881"/>
      <point x="470" y="962"/>
      <point x="512" y="1027" type="curve" smooth="yes"/>
      <point x="581" y="1133"/>
      <point x="682" y="1205"/>
      <point x="833" y="1205" type="curve" smooth="yes"/>
      <point x="1022" y="1205"/>
      <point x="1111" y="1092"/>
      <point x="1111" y="890" type="curve" smooth="yes"/>
      <point x="1111" y="183" type="line"/>
      <point x="1115" y="34" type="line"/>
      <point x="1116" y="-4" type="line"/>
      <point x="1146" y="-4" type="line"/>
      <point x="1146" y="889" type="line" smooth="yes"/>
      <point x="1146" y="1121"/>
      <point x="1034" y="1238"/>
      <point x="832" y="1238" type="curve" smooth="yes"/>
      <point x="669" y="1238"/>
      <point x="554" y="1160"/>
      <point x="480" y="1042" type="curve" smooth="yes"/>
      <point x="436" y="972"/>
      <point x="413" y="887"/>
      <point x="413" y="793" type="curve" smooth="yes"/>
      <point x="413" y="638"/>
      <point x="504" y="574"/>
      <point x="667" y="574" type="curve" smooth="yes"/>
      <point x="725" y="574"/>
      <point x="772" y="579"/>
    </contour>
    <contour>
      <point x="1116" y="-4" type="line"/>
      <point x="1137" y="55" type="line"/>
      <point x="1121" y="55" type="line"/>
      <point x="1094" y="151"/>
      <point x="1016" y="200"/>
      <point x="883" y="200" type="curve" smooth="yes"/>
      <point x="468" y="200" type="line" smooth="yes"/>
      <point x="277" y="200"/>
      <point x="177" y="304"/>
      <point x="177" y="515" type="curve" smooth="yes"/>
      <point x="177" y="629" type="line"/>
      <point x="142" y="629" type="line"/>
      <point x="142" y="592"/>
      <point x="142" y="555"/>
      <point x="142" y="515" type="curve" smooth="yes"/>
      <point x="142" y="283"/>
      <point x="254" y="166"/>
      <point x="468" y="166" type="curve" smooth="yes"/>
      <point x="890" y="166" type="line" smooth="yes"/>
      <point x="1011" y="166"/>
      <point x="1070" y="122"/>
      <point x="1100" y="40" type="curve" smooth="yes"/>
    </contour>
  </outline>
</glyph>
<glyph name="VowelAi.bn" format="2">
	<advance width="1639"/>
	<unicode hex="0990"/>
	<anchor x="1295" y="1560" name="top2"/>
	<outline>
		<contour>
			<point x="1198" y="548" type="curve" smooth="yes"/>
			<point x="1444" y="548"/>
			<point x="1577" y="680"/>
			<point x="1577" y="930" type="curve" smooth="yes"/>
			<point x="1577" y="1061" type="line" smooth="yes"/>
			<point x="1577" y="1302"/>
			<point x="1430" y="1446"/>
			<point x="1151" y="1503" type="curve" smooth="yes"/>
			<point x="872" y="1560" type="line" smooth="yes"/>
			<point x="703" y="1595"/>
			<point x="630" y="1657"/>
			<point x="630" y="1785" type="curve" smooth="yes"/>
			<point x="630" y="1799" type="line"/>
			<point x="598" y="1799" type="line"/>
			<point x="598" y="1785" type="line" smooth="yes"/>
			<point x="598" y="1642"/>
			<point x="676" y="1567"/>
			<point x="862" y="1528" type="curve" smooth="yes"/>
			<point x="1145" y="1469" type="line" smooth="yes"/>
			<point x="1405" y="1415"/>
			<point x="1541" y="1283"/>
			<point x="1541" y="1061" type="curve" smooth="yes"/>
			<point x="1541" y="930" type="line" smooth="yes"/>
			<point x="1541" y="700"/>
			<point x="1416" y="580"/>
			<point x="1186" y="580" type="curve" smooth="yes"/>
			<point x="1163" y="580"/>
			<point x="1137" y="579"/>
			<point x="1134" y="582" type="curve"/>
			<point x="1132" y="548" type="line"/>
			<point x="1146" y="548" type="line"/>
			<point x="1143" y="548"/>
			<point x="1169" y="548"/>
		</contour>
		<contour>
			<point x="816" y="583" type="curve"/>
			<point x="822" y="616" type="line"/>
			<point x="775" y="612"/>
			<point x="727" y="607"/>
			<point x="667" y="607" type="curve" smooth="yes"/>
			<point x="528" y="607"/>
			<point x="449" y="661"/>
			<point x="449" y="793" type="curve" smooth="yes"/>
			<point x="449" y="881"/>
			<point x="470" y="962"/>
			<point x="512" y="1027" type="curve" smooth="yes"/>
			<point x="581" y="1133"/>
			<point x="682" y="1205"/>
			<point x="833" y="1205" type="curve" smooth="yes"/>
			<point x="1022" y="1205"/>
			<point x="1111" y="1092"/>
			<point x="1111" y="890" type="curve" smooth="yes"/>
			<point x="1111" y="183" type="line"/>
			<point x="1115" y="34" type="line"/>
			<point x="1116" y="-4" type="line"/>
			<point x="1146" y="-4" type="line"/>
			<point x="1146" y="889" type="line" smooth="yes"/>
			<point x="1146" y="1121"/>
			<point x="1034" y="1238"/>
			<point x="832" y="1238" type="curve" smooth="yes"/>
			<point x="669" y="1238"/>
			<point x="554" y="1160"/>
			<point x="480" y="1042" type="curve" smooth="yes"/>
			<point x="436" y="972"/>
			<point x="413" y="887"/>
			<point x="413" y="793" type="curve" smooth="yes"/>
			<point x="413" y="638"/>
			<point x="504" y="574"/>
			<point x="667" y="574" type="curve" smooth="yes"/>
			<point x="725" y="574"/>
			<point x="772" y="579"/>
		</contour>
		<contour>
			<point x="1100" y="40" type="curve" smooth="yes"/>
			<point x="1116" y="-4" type="line"/>
			<point x="1137" y="55" type="line"/>
			<point x="1121" y="55" type="line"/>
			<point x="1094" y="151"/>
			<point x="1016" y="200"/>
			<point x="883" y="200" type="curve" smooth="yes"/>
			<point x="468" y="200" type="line" smooth="yes"/>
			<point x="277" y="200"/>
			<point x="177" y="304"/>
			<point x="177" y="515" type="curve" smooth="yes"/>
			<point x="177" y="629" type="line"/>
			<point x="142" y="629" type="line"/>
			<point x="142" y="592"/>
			<point x="142" y="555"/>
			<point x="142" y="515" type="curve" smooth="yes"/>
			<point x="142" y="283"/>
			<point x="254" y="166"/>
			<point x="468" y="166" type="curve" smooth="yes"/>
			<point x="890" y="166" type="line" smooth="yes"/>
			<point x="1011" y="166"/>
			<point x="1070" y="122"/>
		</contour>
	</outline>
</glyph>
<glyph name="VowelO.bn" format="2">
  <advance width="1234"/>
  <unicode hex="0993"/>
  <anchor x="424" y="1719" name="top2"/>
  <outline>
    <contour>
      <point x="162" y="625" type="line"/>
      <point x="180" y="395" type="line" smooth="yes"/>
      <point x="199" y="156"/>
      <point x="362" y="21"/>
      <point x="651" y="21" type="curve" smooth="yes"/>
      <point x="926" y="21"/>
      <point x="1055" y="142"/>
      <point x="1055" y="318" type="curve" smooth="yes"/>
      <point x="1055" y="337" type="line" smooth="yes"/>
      <point x="1055" y="481"/>
      <point x="971" y="569"/>
      <point x="820" y="586" type="curve"/>
      <point x="820" y="589" type="line"/>
      <point x="967" y="609"/>
      <point x="1041" y="706"/>
      <point x="1041" y="874" type="curve" smooth="yes"/>
      <point x="1041" y="902" type="line" smooth="yes"/>
      <point x="1041" y="1118"/>
      <point x="916" y="1239"/>
      <point x="692" y="1239" type="curve" smooth="yes"/>
      <point x="462" y="1239"/>
      <point x="332" y="1117"/>
      <point x="332" y="898" type="curve" smooth="yes"/>
      <point x="332" y="869"/>
      <point x="332" y="839"/>
      <point x="332" y="811" type="curve"/>
      <point x="368" y="811" type="line"/>
      <point x="368" y="839"/>
      <point x="368" y="869"/>
      <point x="368" y="898" type="curve" smooth="yes"/>
      <point x="368" y="1095"/>
      <point x="487" y="1206"/>
      <point x="692" y="1206" type="curve" smooth="yes"/>
      <point x="893" y="1206"/>
      <point x="1005" y="1098"/>
      <point x="1005" y="902" type="curve" smooth="yes"/>
      <point x="1005" y="874" type="line" smooth="yes"/>
      <point x="1005" y="690"/>
      <point x="907" y="605"/>
      <point x="718" y="604" type="curve" smooth="yes"/>
      <point x="588" y="603" type="line"/>
      <point x="588" y="572" type="line"/>
      <point x="718" y="571" type="line" smooth="yes"/>
      <point x="914" y="569"/>
      <point x="1019" y="495"/>
      <point x="1019" y="337" type="curve" smooth="yes"/>
      <point x="1019" y="318" type="line" smooth="yes"/>
      <point x="1019" y="164"/>
      <point x="903" y="55"/>
      <point x="651" y="55" type="curve" smooth="yes"/>
      <point x="386" y="55"/>
      <point x="231" y="176"/>
      <point x="214" y="400" type="curve" smooth="yes"/>
      <point x="197" y="625" type="line"/>
    </contour>
  </outline>
</glyph>
<glyph name="VowelAu.bn" format="2">
  <advance width="1504"/>
  <unicode hex="0994"/>
  <anchor x="1187" y="1560" name="top2"/>
  <outline>
    <contour>
      <point x="989" y="574" type="curve" smooth="yes"/>
      <point x="1296" y="574"/>
      <point x="1442" y="701"/>
      <point x="1442" y="960" type="curve" smooth="yes"/>
      <point x="1442" y="1061" type="line" smooth="yes"/>
      <point x="1442" y="1301"/>
      <point x="1296" y="1446"/>
      <point x="1016" y="1503" type="curve" smooth="yes"/>
      <point x="737" y="1560" type="line" smooth="yes"/>
      <point x="568" y="1595"/>
      <point x="495" y="1657"/>
      <point x="495" y="1785" type="curve" smooth="yes"/>
      <point x="495" y="1799" type="line"/>
      <point x="463" y="1799" type="line"/>
      <point x="463" y="1785" type="line" smooth="yes"/>
      <point x="463" y="1642"/>
      <point x="541" y="1567"/>
      <point x="727" y="1528" type="curve" smooth="yes"/>
      <point x="1010" y="1469" type="line" smooth="yes"/>
      <point x="1270" y="1415"/>
      <point x="1406" y="1282"/>
      <point x="1406" y="1061" type="curve" smooth="yes"/>
      <point x="1406" y="960" type="line" smooth="yes"/>
      <point x="1406" y="720"/>
      <point x="1270" y="605"/>
      <point x="982" y="605" type="curve" smooth="yes"/>
      <point x="933" y="605"/>
      <point x="880" y="605"/>
      <point x="831" y="606" type="curve"/>
      <point x="789" y="590" type="line"/>
      <point x="815" y="585" type="line"/>
      <point x="850" y="580"/>
      <point x="916" y="574"/>
    </contour>
    <contour>
      <point x="162" y="625" type="line"/>
      <point x="180" y="395" type="line" smooth="yes"/>
      <point x="199" y="156"/>
      <point x="362" y="21"/>
      <point x="651" y="21" type="curve" smooth="yes"/>
      <point x="926" y="21"/>
      <point x="1055" y="127"/>
      <point x="1055" y="328" type="curve" smooth="yes"/>
      <point x="1055" y="347" type="line" smooth="yes"/>
      <point x="1055" y="482"/>
      <point x="971" y="570"/>
      <point x="820" y="586" type="curve"/>
      <point x="820" y="589" type="line"/>
      <point x="967" y="607"/>
      <point x="1041" y="699"/>
      <point x="1041" y="860" type="curve" smooth="yes"/>
      <point x="1041" y="918" type="line" smooth="yes"/>
      <point x="1041" y="1124"/>
      <point x="921" y="1239"/>
      <point x="695" y="1239" type="curve" smooth="yes"/>
      <point x="457" y="1239"/>
      <point x="332" y="1129"/>
      <point x="332" y="918" type="curve" smooth="yes"/>
      <point x="332" y="881"/>
      <point x="332" y="846"/>
      <point x="332" y="811" type="curve"/>
      <point x="368" y="811" type="line"/>
      <point x="368" y="846"/>
      <point x="368" y="881"/>
      <point x="368" y="918" type="curve" smooth="yes"/>
      <point x="368" y="1106"/>
      <point x="482" y="1206"/>
      <point x="697" y="1206" type="curve" smooth="yes"/>
      <point x="898" y="1206"/>
      <point x="1005" y="1104"/>
      <point x="1005" y="918" type="curve" smooth="yes"/>
      <point x="1005" y="860" type="line" smooth="yes"/>
      <point x="1005" y="686"/>
      <point x="907" y="605"/>
      <point x="718" y="604" type="curve" smooth="yes"/>
      <point x="588" y="603" type="line"/>
      <point x="588" y="572" type="line"/>
      <point x="718" y="571" type="line" smooth="yes"/>
      <point x="914" y="569"/>
      <point x="1019" y="495"/>
      <point x="1019" y="347" type="curve" smooth="yes"/>
      <point x="1019" y="328" type="line" smooth="yes"/>
      <point x="1019" y="149"/>
      <point x="903" y="55"/>
      <point x="651" y="55" type="curve" smooth="yes"/>
      <point x="386" y="55"/>
      <point x="231" y="176"/>
      <point x="214" y="400" type="curve" smooth="yes"/>
      <point x="197" y="625" type="line"/>
    </contour>
  </outline>
</glyph>
<glyph name="Ga.bn" format="2">
  <advance width="1279"/>
  <unicode hex="0997"/>
  <anchor x="1054" y="200" name="bottom1"/>
  <anchor x="1017" y="1418" name="top"/>
  <anchor x="768" y="1719" name="top2"/>
  <outline>
    <contour>
      <point x="214" y="262" type="line"/>
      <point x="329" y="262" type="line" smooth="yes"/>
      <point x="551" y="262"/>
      <point x="657" y="349"/>
      <point x="657" y="526" type="curve" smooth="yes"/>
      <point x="657" y="541" type="line" smooth="yes"/>
      <point x="657" y="703"/>
      <point x="568" y="798"/>
      <point x="376" y="798" type="curve" smooth="yes"/>
      <point x="302" y="798"/>
      <point x="224" y="785"/>
      <point x="164" y="765" type="curve"/>
      <point x="181" y="752" type="line"/>
      <point x="180" y="782"/>
      <point x="179" y="816"/>
      <point x="179" y="852" type="curve" smooth="yes"/>
      <point x="179" y="1078"/>
      <point x="319" y="1209"/>
      <point x="587" y="1209" type="curve" smooth="yes"/>
      <point x="820" y="1209"/>
      <point x="965" y="1109"/>
      <point x="1021" y="874" type="curve"/>
      <point x="1021" y="771" type="line"/>
      <point x="1042" y="843" type="line"/>
      <point x="1044" y="926" type="line"/>
      <point x="1029" y="926" type="line"/>
      <point x="985" y="1133"/>
      <point x="826" y="1243"/>
      <point x="585" y="1243" type="curve" smooth="yes"/>
      <point x="296" y="1243"/>
      <point x="143" y="1099"/>
      <point x="143" y="852" type="curve" smooth="yes"/>
      <point x="143" y="809"/>
      <point x="145" y="768"/>
      <point x="149" y="729" type="curve"/>
      <point x="226" y="754"/>
      <point x="304" y="766"/>
      <point x="374" y="766" type="curve" smooth="yes"/>
      <point x="548" y="766"/>
      <point x="622" y="686"/>
      <point x="622" y="543" type="curve" smooth="yes"/>
      <point x="622" y="528" type="line" smooth="yes"/>
      <point x="622" y="371"/>
      <point x="527" y="295"/>
      <point x="327" y="295" type="curve" smooth="yes"/>
      <point x="207" y="295" type="line"/>
    </contour>
    <contour>
      <point x="1019" y="0" type="line"/>
      <point x="1054" y="0" type="line"/>
      <point x="1054" y="1228" type="line"/>
      <point x="1021" y="1228" type="line"/>
      <point x="1021" y="932" type="line"/>
      <point x="1019" y="934" type="line"/>
    </contour>
    <contour>
      <point x="1031" y="1220" type="line"/>
      <point x="1031" y="968" type="line"/>
      <point x="1054" y="968" type="line"/>
      <point x="1054" y="1220" type="line"/>
    </contour>
    <contour>
      <point x="1031" y="1197" type="line"/>
      <point x="1343" y="1197" type="line"/>
      <point x="1338" y="1228" type="line"/>
      <point x="1031" y="1228" type="line"/>
    </contour>
  </outline>
</glyph>
<glyph name="Gha.bn" format="2">
  <advance width="1258"/>
  <unicode hex="0998"/>
  <anchor x="1033" y="0" name="bottom1"/>
  <anchor x="996" y="1418" name="top"/>
  <anchor x="747" y="1719" name="top2"/>
  <outline>
    <contour>
      <point x="1033" y="0" type="line"/>
      <point x="1033" y="1208" type="line"/>
      <point x="998" y="1208" type="line"/>
      <point x="998" y="142" type="line"/>
      <point x="1000" y="25" type="line"/>
      <point x="1007" y="34" type="line"/>
      <point x="237" y="375" type="line"/>
      <point x="249" y="345" type="line"/>
      <point x="249" y="611" type="line"/>
      <point x="235" y="595" type="line"/>
      <point x="702" y="779" type="line"/>
      <point x="696" y="811" type="line"/>
      <point x="214" y="623" type="line"/>
      <point x="214" y="349" type="line"/>
      <point x="1003" y="0" type="line"/>
    </contour>
    <contour>
      <point x="438" y="1200" type="curve"/>
      <point x="402" y="1220" type="line"/>
      <point x="254" y="1212"/>
      <point x="172" y="1132"/>
      <point x="172" y="986" type="curve" smooth="yes"/>
      <point x="172" y="963" type="line" smooth="yes"/>
      <point x="172" y="816"/>
      <point x="284" y="727"/>
      <point x="479" y="727" type="curve"/>
      <point x="479" y="716" type="line"/>
      <point x="696" y="811" type="line"/>
      <point x="608" y="780"/>
      <point x="537" y="758"/>
      <point x="478" y="758" type="curve" smooth="yes"/>
      <point x="310" y="758"/>
      <point x="208" y="835"/>
      <point x="208" y="965" type="curve" smooth="yes"/>
      <point x="208" y="984" type="line" smooth="yes"/>
      <point x="208" y="1119"/>
      <point x="283" y="1194"/>
    </contour>
    <contour>
      <point x="-20" y="1197" type="line"/>
      <point x="1033" y="1197" type="line"/>
      <point x="1033" y="1228" type="line"/>
      <point x="-25" y="1228" type="line"/>
    </contour>
    <contour>
      <point x="1010" y="1220" type="line"/>
      <point x="1010" y="968" type="line"/>
      <point x="1033" y="968" type="line"/>
      <point x="1033" y="1220" type="line"/>
    </contour>
    <contour>
      <point x="1010" y="1197" type="line"/>
      <point x="1322" y="1197" type="line"/>
      <point x="1317" y="1228" type="line"/>
      <point x="1010" y="1228" type="line"/>
    </contour>
  </outline>
</glyph>
<glyph name="Ca.bn" format="2">
	<advance width="1178"/>
	<unicode hex="099A"/>
	<anchor x="773" y="185" name="bottom1"/>
	<anchor x="208" y="1418" name="top"/>
	<anchor x="234" y="1727" name="top2"/>
	<outline>
		<contour>
			<point x="573" y="20" type="curve" smooth="yes"/>
			<point x="736" y="20"/>
			<point x="860" y="95"/>
			<point x="939" y="205" type="curve" smooth="yes"/>
			<point x="1003" y="294"/>
			<point x="1037" y="406"/>
			<point x="1037" y="521" type="curve" smooth="yes"/>
			<point x="1037" y="699"/>
			<point x="926" y="807"/>
			<point x="703" y="847" type="curve" smooth="yes"/>
			<point x="222" y="934" type="line"/>
			<point x="222" y="900" type="line"/>
			<point x="702" y="813" type="line" smooth="yes"/>
			<point x="902" y="777"/>
			<point x="1001" y="680"/>
			<point x="1001" y="521" type="curve" smooth="yes"/>
			<point x="1001" y="414"/>
			<point x="969" y="307"/>
			<point x="908" y="224" type="curve" smooth="yes"/>
			<point x="836" y="123"/>
			<point x="722" y="54"/>
			<point x="573" y="54" type="curve" smooth="yes"/>
			<point x="356" y="54"/>
			<point x="243" y="158"/>
			<point x="243" y="373" type="curve" smooth="yes"/>
			<point x="243" y="1215" type="line"/>
			<point x="208" y="1215" type="line"/>
			<point x="208" y="378" type="line" smooth="yes"/>
			<point x="208" y="140"/>
			<point x="332" y="20"/>
		</contour>
		<contour>
			<point x="-67" y="1197" type="line"/>
			<point x="1228" y="1197" type="line"/>
			<point x="1223" y="1228" type="line"/>
			<point x="-72" y="1228" type="line"/>
		</contour>
	</outline>
</glyph>
<glyph name="Ja.bn" format="2">
	<advance width="1721"/>
	<unicode hex="099C"/>
	<anchor x="1505" y="289" name="bottom1"/>
	<anchor x="961" y="1418" name="top"/>
	<anchor x="682" y="1719" name="top2"/>
	<note>
		Ja.bn
	</note>
	<outline>
		<contour>
			<point x="679" y="20" type="curve" smooth="yes"/>
			<point x="961" y="20"/>
			<point x="1126" y="152"/>
			<point x="1126" y="405" type="curve" smooth="yes"/>
			<point x="1126" y="543"/>
			<point x="1122" y="613"/>
			<point x="1113" y="679" type="curve"/>
			<point x="1085" y="690" type="line"/>
			<point x="994" y="641" type="line" smooth="yes"/>
			<point x="910" y="596"/>
			<point x="847" y="569"/>
			<point x="767" y="569" type="curve" smooth="yes"/>
			<point x="660" y="569"/>
			<point x="579" y="627"/>
			<point x="579" y="768" type="curve" smooth="yes"/>
			<point x="579" y="786" type="line" smooth="yes"/>
			<point x="579" y="985"/>
			<point x="745" y="1116"/>
			<point x="984" y="1195" type="curve"/>
			<point x="965" y="1204" type="line"/>
			<point x="957" y="1215" type="line"/>
			<point x="706" y="1136"/>
			<point x="543" y="996"/>
			<point x="543" y="785" type="curve" smooth="yes"/>
			<point x="543" y="768" type="line" smooth="yes"/>
			<point x="543" y="605"/>
			<point x="636" y="536"/>
			<point x="770" y="536" type="curve" smooth="yes"/>
			<point x="858" y="536"/>
			<point x="929" y="568"/>
			<point x="1014" y="614" type="curve" smooth="yes"/>
			<point x="1099" y="660" type="line"/>
			<point x="1081" y="665" type="line"/>
			<point x="1089" y="597"/>
			<point x="1091" y="537"/>
			<point x="1091" y="403" type="curve" smooth="yes"/>
			<point x="1091" y="176"/>
			<point x="937" y="55"/>
			<point x="678" y="55" type="curve" smooth="yes"/>
			<point x="398" y="55"/>
			<point x="225" y="204"/>
			<point x="205" y="495" type="curve" smooth="yes"/>
			<point x="175" y="929" type="line"/>
			<point x="140" y="929" type="line"/>
			<point x="170" y="491" type="line" smooth="yes"/>
			<point x="191" y="182"/>
			<point x="379" y="20"/>
		</contour>
		<contour>
			<point x="1473" y="-10" type="curve"/>
			<point x="1508" y="-10" type="line"/>
			<point x="1507" y="75"/>
			<point x="1505" y="148"/>
			<point x="1505" y="289" type="curve" smooth="yes"/>
			<point x="1505" y="511"/>
			<point x="1522" y="728"/>
			<point x="1546" y="868" type="curve"/>
			<point x="1288" y="890"/>
			<point x="1073" y="1014"/>
			<point x="988" y="1215" type="curve"/>
			<point x="960" y="1203" type="line"/>
			<point x="1044" y="989"/>
			<point x="1267" y="862"/>
			<point x="1529" y="837" type="curve"/>
			<point x="1511" y="858" type="line"/>
			<point x="1485" y="719"/>
			<point x="1470" y="505"/>
			<point x="1470" y="289" type="curve" smooth="yes"/>
			<point x="1470" y="159"/>
			<point x="1472" y="76"/>
		</contour>
		<contour>
			<point x="-67" y="1198" type="line"/>
			<point x="1794" y="1198" type="line"/>
			<point x="1789" y="1228" type="line"/>
			<point x="-72" y="1228" type="line"/>
		</contour>
	</outline>
</glyph>
<glyph name="Nya.bn" format="2">
  <advance width="1913"/>
  <unicode hex="099E"/>
  <anchor x="1146" y="-4" name="bottom1"/>
  <anchor x="1108" y="1418" name="top"/>
  <anchor x="870" y="1719" name="top2"/>
  <outline>
    <contour>
      <point x="1478" y="271" type="curve" smooth="yes"/>
      <point x="1661" y="271"/>
      <point x="1762" y="346"/>
      <point x="1762" y="506" type="curve" smooth="yes"/>
      <point x="1762" y="514" type="line" smooth="yes"/>
      <point x="1762" y="627"/>
      <point x="1702" y="687"/>
      <point x="1613" y="702" type="curve"/>
      <point x="1613" y="705" type="line"/>
      <point x="1702" y="721"/>
      <point x="1762" y="782"/>
      <point x="1762" y="890" type="curve" smooth="yes"/>
      <point x="1762" y="897" type="line" smooth="yes"/>
      <point x="1762" y="1058"/>
      <point x="1659" y="1138"/>
      <point x="1477" y="1138" type="curve" smooth="yes"/>
      <point x="1283" y="1138"/>
      <point x="1171" y="1048"/>
      <point x="1135" y="936" type="curve"/>
      <point x="1127" y="936" type="line"/>
      <point x="1127" y="890" type="line"/>
      <point x="1145" y="890" type="line"/>
      <point x="1187" y="1027"/>
      <point x="1297" y="1106"/>
      <point x="1476" y="1106" type="curve" smooth="yes"/>
      <point x="1639" y="1106"/>
      <point x="1727" y="1037"/>
      <point x="1727" y="897" type="curve" smooth="yes"/>
      <point x="1727" y="890" type="line" smooth="yes"/>
      <point x="1727" y="778"/>
      <point x="1659" y="721"/>
      <point x="1530" y="720" type="curve" smooth="yes"/>
      <point x="1428" y="719" type="line"/>
      <point x="1428" y="690" type="line"/>
      <point x="1530" y="689" type="line" smooth="yes"/>
      <point x="1659" y="688"/>
      <point x="1727" y="631"/>
      <point x="1727" y="514" type="curve" smooth="yes"/>
      <point x="1727" y="506" type="line" smooth="yes"/>
      <point x="1727" y="367"/>
      <point x="1639" y="303"/>
      <point x="1476" y="303" type="curve" smooth="yes"/>
      <point x="1297" y="303"/>
      <point x="1187" y="382"/>
      <point x="1145" y="519" type="curve"/>
      <point x="1127" y="519" type="line"/>
      <point x="1127" y="473" type="line"/>
      <point x="1135" y="473" type="line"/>
      <point x="1169" y="364"/>
      <point x="1282" y="271"/>
    </contour>
    <contour>
      <point x="816" y="583" type="curve"/>
      <point x="822" y="616" type="line"/>
      <point x="775" y="612"/>
      <point x="727" y="607"/>
      <point x="667" y="607" type="curve" smooth="yes"/>
      <point x="528" y="607"/>
      <point x="449" y="661"/>
      <point x="449" y="793" type="curve" smooth="yes"/>
      <point x="449" y="881"/>
      <point x="470" y="962"/>
      <point x="512" y="1027" type="curve" smooth="yes"/>
      <point x="581" y="1133"/>
      <point x="682" y="1205"/>
      <point x="833" y="1205" type="curve" smooth="yes"/>
      <point x="1022" y="1205"/>
      <point x="1111" y="1092"/>
      <point x="1111" y="890" type="curve" smooth="yes"/>
      <point x="1111" y="183" type="line"/>
      <point x="1115" y="34" type="line"/>
      <point x="1116" y="-4" type="line"/>
      <point x="1146" y="-4" type="line"/>
      <point x="1146" y="889" type="line" smooth="yes"/>
      <point x="1146" y="1121"/>
      <point x="1034" y="1238"/>
      <point x="832" y="1238" type="curve" smooth="yes"/>
      <point x="669" y="1238"/>
      <point x="554" y="1160"/>
      <point x="480" y="1042" type="curve" smooth="yes"/>
      <point x="436" y="972"/>
      <point x="413" y="887"/>
      <point x="413" y="793" type="curve" smooth="yes"/>
      <point x="413" y="638"/>
      <point x="504" y="574"/>
      <point x="667" y="574" type="curve" smooth="yes"/>
      <point x="725" y="574"/>
      <point x="772" y="579"/>
    </contour>
    <contour>
      <point x="1116" y="-4" type="line"/>
      <point x="1137" y="55" type="line"/>
      <point x="1121" y="55" type="line"/>
      <point x="1094" y="151"/>
      <point x="1016" y="200"/>
      <point x="883" y="200" type="curve" smooth="yes"/>
      <point x="468" y="200" type="line" smooth="yes"/>
      <point x="277" y="200"/>
      <point x="177" y="304"/>
      <point x="177" y="515" type="curve" smooth="yes"/>
      <point x="177" y="629" type="line"/>
      <point x="142" y="629" type="line"/>
      <point x="142" y="592"/>
      <point x="142" y="555"/>
      <point x="142" y="515" type="curve" smooth="yes"/>
      <point x="142" y="283"/>
      <point x="254" y="166"/>
      <point x="468" y="166" type="curve" smooth="yes"/>
      <point x="890" y="166" type="line" smooth="yes"/>
      <point x="1011" y="166"/>
      <point x="1070" y="122"/>
      <point x="1100" y="40" type="curve" smooth="yes"/>
    </contour>
  </outline>
</glyph>
<glyph name="Tta.bn" format="2">
	<advance width="1196"/>
	<unicode hex="099F"/>
	<anchor x="757" y="185" name="bottom1"/>
	<anchor x="800.1" y="1529" name="top"/>
	<anchor x="846.1" y="1631" name="top2"/>
	<outline>
		<contour>
			<point x="582" y="20" type="curve" smooth="yes"/>
			<point x="761" y="20"/>
			<point x="875" y="98"/>
			<point x="955" y="216" type="curve" smooth="yes"/>
			<point x="1014" y="303"/>
			<point x="1047" y="415"/>
			<point x="1047" y="539" type="curve" smooth="yes"/>
			<point x="1047" y="721"/>
			<point x="953" y="816"/>
			<point x="728" y="816" type="curve" smooth="yes"/>
			<point x="659" y="816"/>
			<point x="602" y="812"/>
			<point x="528" y="804" type="curve"/>
			<point x="522" y="770" type="line"/>
			<point x="595" y="779"/>
			<point x="657" y="783"/>
			<point x="729" y="783" type="curve" smooth="yes"/>
			<point x="933" y="783"/>
			<point x="1011" y="699"/>
			<point x="1011" y="539" type="curve" smooth="yes"/>
			<point x="1011" y="422"/>
			<point x="980" y="315"/>
			<point x="922" y="232" type="curve" smooth="yes"/>
			<point x="848" y="126"/>
			<point x="745" y="55"/>
			<point x="582" y="55" type="curve" smooth="yes"/>
			<point x="356" y="55"/>
			<point x="243" y="161"/>
			<point x="243" y="395" type="curve" smooth="yes"/>
			<point x="243" y="1215" type="line"/>
			<point x="208" y="1215" type="line"/>
			<point x="208" y="398" type="line" smooth="yes"/>
			<point x="208" y="143"/>
			<point x="329" y="20"/>
		</contour>
		<contour>
			<point x="-67" y="1197" type="line"/>
			<point x="1228" y="1197" type="line"/>
			<point x="1223" y="1228" type="line"/>
			<point x="-72" y="1228" type="line"/>
		</contour>
		<contour>
			<point x="1031" y="1225" type="line"/>
			<point x="1044" y="1261"/>
			<point x="1050" y="1297"/>
			<point x="1050" y="1337" type="curve" smooth="yes"/>
			<point x="1050" y="1475"/>
			<point x="965" y="1542"/>
			<point x="799" y="1542" type="curve" smooth="yes"/>
			<point x="404" y="1542" type="line" smooth="yes"/>
			<point x="268" y="1542"/>
			<point x="203" y="1595"/>
			<point x="203" y="1705" type="curve" smooth="yes"/>
			<point x="203" y="1728" type="line"/>
			<point x="173" y="1728" type="line"/>
			<point x="173" y="1705" type="line" smooth="yes"/>
			<point x="173" y="1576"/>
			<point x="250" y="1511"/>
			<point x="404" y="1511" type="curve" smooth="yes"/>
			<point x="799" y="1511" type="line" smooth="yes"/>
			<point x="950" y="1511"/>
			<point x="1019" y="1458"/>
			<point x="1019" y="1336" type="curve" smooth="yes"/>
			<point x="1019" y="1290"/>
			<point x="1011" y="1250"/>
			<point x="997" y="1213" type="curve"/>
			<point x="1021" y="1210" type="line"/>
		</contour>
	</outline>
</glyph>
<glyph name="Dda.bn" format="2">
	<advance width="1343"/>
	<unicode hex="09A1"/>
	<anchor x="826" y="185" name="bottom1"/>
	<anchor x="604" y="1418" name="top"/>
	<anchor x="400" y="1719" name="top2"/>
	<note>
		Dda.bn
	</note>
	<outline>
		<contour>
			<point x="204" y="516" type="curve" smooth="yes"/>
			<point x="175" y="929" type="line"/>
			<point x="140" y="929" type="line"/>
			<point x="169" y="512" type="line" smooth="yes"/>
			<point x="191" y="192"/>
			<point x="379" y="20"/>
			<point x="698" y="20" type="curve" smooth="yes"/>
			<point x="1012" y="20"/>
			<point x="1189" y="182"/>
			<point x="1189" y="501" type="curve" smooth="yes"/>
			<point x="1189" y="622"/>
			<point x="1181" y="759"/>
			<point x="1162" y="891" type="curve"/>
			<point x="1129" y="895" type="line"/>
			<point x="1058" y="783" type="line" smooth="yes"/>
			<point x="991" y="677"/>
			<point x="926" y="603"/>
			<point x="807" y="603" type="curve" smooth="yes"/>
			<point x="691" y="603"/>
			<point x="632" y="669"/>
			<point x="632" y="802" type="curve" smooth="yes"/>
			<point x="632" y="1216" type="line"/>
			<point x="597" y="1216" type="line"/>
			<point x="597" y="802" type="line" smooth="yes"/>
			<point x="597" y="646"/>
			<point x="668" y="570"/>
			<point x="810" y="570" type="curve" smooth="yes"/>
			<point x="942" y="570"/>
			<point x="1022" y="661"/>
			<point x="1086" y="764" type="curve" smooth="yes"/>
			<point x="1147" y="862" type="line"/>
			<point x="1132" y="866" type="line"/>
			<point x="1146" y="752"/>
			<point x="1153" y="613"/>
			<point x="1153" y="501" type="curve" smooth="yes"/>
			<point x="1153" y="202"/>
			<point x="985" y="55"/>
			<point x="698" y="55" type="curve" smooth="yes"/>
			<point x="399" y="55"/>
			<point x="225" y="216"/>
		</contour>
		<contour>
			<point x="-67" y="1197" type="line"/>
			<point x="1397" y="1197" type="line"/>
			<point x="1392" y="1228" type="line"/>
			<point x="-72" y="1228" type="line"/>
		</contour>
	</outline>
</glyph>
<glyph name="Ta.bn" format="2">
	<advance width="1333"/>
	<unicode hex="09A4"/>
	<anchor x="847" y="185" name="bottom1"/>
	<anchor x="714" y="1418" name="top"/>
	<anchor x="602" y="1719" name="top2"/>
	<outline>
		<contour>
			<point x="706" y="20" type="curve" smooth="yes"/>
			<point x="1013" y="20"/>
			<point x="1189" y="185"/>
			<point x="1189" y="480" type="curve" smooth="yes"/>
			<point x="1189" y="653" type="line" smooth="yes"/>
			<point x="1189" y="876"/>
			<point x="1079" y="991"/>
			<point x="882" y="991" type="curve" smooth="yes"/>
			<point x="683" y="991"/>
			<point x="579" y="883"/>
			<point x="579" y="669" type="curve" smooth="yes"/>
			<point x="579" y="620"/>
			<point x="579" y="570"/>
			<point x="579" y="521" type="curve"/>
			<point x="615" y="521" type="line"/>
			<point x="615" y="570"/>
			<point x="615" y="620"/>
			<point x="615" y="669" type="curve" smooth="yes"/>
			<point x="615" y="860"/>
			<point x="707" y="958"/>
			<point x="883" y="958" type="curve" smooth="yes"/>
			<point x="1061" y="958"/>
			<point x="1153" y="853"/>
			<point x="1153" y="653" type="curve" smooth="yes"/>
			<point x="1153" y="480" type="line" smooth="yes"/>
			<point x="1153" y="206"/>
			<point x="989" y="55"/>
			<point x="703" y="55" type="curve" smooth="yes"/>
			<point x="400" y="55"/>
			<point x="225" y="217"/>
			<point x="204" y="516" type="curve" smooth="yes"/>
			<point x="175" y="929" type="line"/>
			<point x="140" y="929" type="line"/>
			<point x="169" y="512" type="line" smooth="yes"/>
			<point x="191" y="192"/>
			<point x="381" y="20"/>
		</contour>
		<contour>
			<point x="-67" y="1197" type="line"/>
			<point x="1397" y="1197" type="line"/>
			<point x="1392" y="1228" type="line"/>
			<point x="-72" y="1228" type="line"/>
		</contour>
	</outline>
</glyph>
<glyph name="Da.bn" format="2">
	<advance width="1233"/>
	<unicode hex="09A6"/>
	<anchor x="1014" y="0" name="bottom1"/>
	<anchor x="219" y="1418" name="top"/>
	<anchor x="367" y="1719" name="top2"/>
	<note>
		Da.bn
	</note>
	<outline>
		<contour>
			<point x="-93" y="1197" type="line"/>
			<point x="1260" y="1197" type="line"/>
			<point x="1254" y="1228" type="line"/>
			<point x="-99" y="1228" type="line"/>
		</contour>
		<contour>
			<point x="979" y="-39" type="line"/>
			<point x="1014" y="-39" type="line"/>
			<point x="1014" y="914" type="line"/>
			<point x="974" y="914" type="line"/>
			<point x="688" y="732"/>
			<point x="444" y="532"/>
			<point x="240" y="312" type="curve"/>
			<point x="254" y="315" type="line"/>
			<point x="255" y="579" type="line"/>
			<point x="255" y="1217" type="line"/>
			<point x="220" y="1217" type="line"/>
			<point x="220" y="281" type="line"/>
			<point x="256" y="281" type="line"/>
			<point x="465" y="500"/>
			<point x="705" y="699"/>
			<point x="988" y="884" type="curve"/>
			<point x="981" y="897" type="line"/>
			<point x="979" y="664" type="line"/>
		</contour>
	</outline>
</glyph>
<glyph name="Dha.bn" format="2">
	<advance width="1232"/>
	<unicode hex="09A7"/>
	<anchor x="1007" y="0" name="bottom1"/>
	<anchor x="970" y="1418" name="top"/>
	<anchor x="721" y="1719" name="top2"/>
	<outline>
		<contour>
			<point x="977" y="0" type="line"/>
			<point x="1007" y="0" type="line"/>
			<point x="1007" y="1228" type="line"/>
			<point x="972" y="1228" type="line"/>
			<point x="972" y="142" type="line"/>
			<point x="974" y="25" type="line"/>
			<point x="982" y="34" type="line"/>
			<point x="224" y="368" type="line"/>
			<point x="237" y="338" type="line"/>
			<point x="237" y="613" type="line"/>
			<point x="223" y="590" type="line"/>
			<point x="435" y="691"/>
			<point x="724" y="799"/>
			<point x="1000" y="884" type="curve"/>
			<point x="985" y="915" type="line"/>
			<point x="697" y="828"/>
			<point x="417" y="719"/>
			<point x="202" y="621" type="curve"/>
			<point x="202" y="342" type="line"/>
		</contour>
		<contour>
			<point x="459" y="722" type="curve"/>
			<point x="459" y="713" type="line"/>
			<point x="603" y="766" type="line"/>
			<point x="556" y="755"/>
			<point x="502" y="752"/>
			<point x="460" y="752" type="curve" smooth="yes"/>
			<point x="331" y="752"/>
			<point x="218" y="814"/>
			<point x="218" y="957" type="curve" smooth="yes"/>
			<point x="218" y="988" type="line" smooth="yes"/>
			<point x="218" y="1124"/>
			<point x="293" y="1207"/>
			<point x="454" y="1207" type="curve" smooth="yes"/>
			<point x="534" y="1207"/>
			<point x="601" y="1187"/>
			<point x="656" y="1151" type="curve"/>
			<point x="658" y="1186" type="line"/>
			<point x="608" y="1220"/>
			<point x="539" y="1240"/>
			<point x="452" y="1240" type="curve" smooth="yes"/>
			<point x="270" y="1240"/>
			<point x="182" y="1143"/>
			<point x="182" y="988" type="curve" smooth="yes"/>
			<point x="182" y="956" type="line" smooth="yes"/>
			<point x="182" y="796"/>
			<point x="310" y="722"/>
		</contour>
		<contour>
			<point x="984" y="1220" type="line"/>
			<point x="984" y="968" type="line"/>
			<point x="1007" y="968" type="line"/>
			<point x="1007" y="1220" type="line"/>
		</contour>
		<contour>
			<point x="984" y="1197" type="line"/>
			<point x="1296" y="1197" type="line"/>
			<point x="1291" y="1228" type="line"/>
			<point x="984" y="1228" type="line"/>
		</contour>
	</outline>
</glyph>
<glyph name="Na.bn" format="2">
	<advance width="1182"/>
	<unicode hex="09A8"/>
	<anchor x="957" y="200" name="bottom1"/>
	<anchor x="920" y="1418" name="top"/>
	<anchor x="671" y="1719" name="top2"/>
	<outline>
		<contour>
			<point x="922" y="0" type="line"/>
			<point x="957" y="0" type="line"/>
			<point x="957" y="1217" type="line"/>
			<point x="922" y="1217" type="line"/>
			<point x="922" y="595" type="line"/>
			<point x="926" y="422" type="line"/>
			<point x="922" y="411" type="line"/>
		</contour>
		<contour>
			<point x="-27" y="1197" type="line"/>
			<point x="957" y="1197" type="line"/>
			<point x="957" y="1228" type="line"/>
			<point x="-32" y="1228" type="line"/>
		</contour>
		<contour>
			<point x="176" y="351" type="curve"/>
			<point x="211" y="351" type="line"/>
			<point x="200" y="404"/>
			<point x="194" y="463"/>
			<point x="194" y="533" type="curve" smooth="yes"/>
			<point x="194" y="728"/>
			<point x="291" y="832"/>
			<point x="474" y="832" type="curve" smooth="yes"/>
			<point x="681" y="832"/>
			<point x="844" y="667"/>
			<point x="925" y="367" type="curve"/>
			<point x="946" y="421" type="line"/>
			<point x="936" y="421" type="line"/>
			<point x="870" y="682"/>
			<point x="695" y="865"/>
			<point x="468" y="865" type="curve" smooth="yes"/>
			<point x="267" y="865"/>
			<point x="158" y="748"/>
			<point x="158" y="533" type="curve" smooth="yes"/>
			<point x="158" y="465"/>
			<point x="164" y="405"/>
		</contour>
		<contour>
			<point x="934" y="1220" type="line"/>
			<point x="934" y="968" type="line"/>
			<point x="957" y="968" type="line"/>
			<point x="957" y="1220" type="line"/>
		</contour>
		<contour>
			<point x="934" y="1197" type="line"/>
			<point x="1246" y="1197" type="line"/>
			<point x="1241" y="1228" type="line"/>
			<point x="934" y="1228" type="line"/>
		</contour>
	</outline>
</glyph>
<glyph name="Pha.bn" format="2">
  <advance width="1699"/>
  <unicode hex="09AB"/>
  <anchor x="998" y="0" name="bottom1"/>
  <anchor x="962" y="1418" name="top"/>
  <anchor x="708" y="1719" name="top2"/>
  <outline>
    <contour>
      <point x="-92" y="1197" type="line"/>
      <point x="1734" y="1197" type="line"/>
      <point x="1729" y="1228" type="line"/>
      <point x="-97" y="1228" type="line"/>
    </contour>
    <contour>
      <point x="968" y="0" type="line"/>
      <point x="998" y="0" type="line"/>
      <point x="998" y="956" type="line"/>
      <point x="963" y="956" type="line"/>
      <point x="963" y="142" type="line"/>
      <point x="965" y="25" type="line"/>
      <point x="972" y="35" type="line"/>
      <point x="211" y="391" type="line"/>
      <point x="224" y="361" type="line"/>
      <point x="224" y="627" type="line"/>
      <point x="210" y="603" type="line"/>
      <point x="626" y="808" type="line"/>
      <point x="626" y="837" type="line"/>
      <point x="447" y="973"/>
      <point x="316" y="1073"/>
      <point x="129" y="1205" type="curve"/>
      <point x="114" y="1205" type="line"/>
      <point x="114" y="1171" type="line"/>
      <point x="586" y="829" type="line"/>
      <point x="586" y="827" type="line"/>
      <point x="188" y="631" type="line"/>
      <point x="188" y="365" type="line"/>
    </contour>
    <contour>
      <point x="1212" y="371" type="curve"/>
      <point x="1217" y="338" type="line"/>
      <point x="1240" y="338"/>
      <point x="1264" y="338"/>
      <point x="1285" y="338" type="curve" smooth="yes"/>
      <point x="1467" y="338"/>
      <point x="1567" y="430"/>
      <point x="1567" y="604" type="curve" smooth="yes"/>
      <point x="1567" y="670" type="line" smooth="yes"/>
      <point x="1567" y="850"/>
      <point x="1458" y="956"/>
      <point x="1243" y="956" type="curve" smooth="yes"/>
      <point x="992" y="956" type="line"/>
      <point x="992" y="924" type="line"/>
      <point x="1244" y="924" type="line" smooth="yes"/>
      <point x="1437" y="924"/>
      <point x="1531" y="832"/>
      <point x="1531" y="670" type="curve" smooth="yes"/>
      <point x="1531" y="604" type="line" smooth="yes"/>
      <point x="1531" y="454"/>
      <point x="1451" y="371"/>
      <point x="1282" y="371" type="curve" smooth="yes"/>
      <point x="1260" y="371"/>
      <point x="1234" y="371"/>
    </contour>
  </outline>
</glyph>
<glyph name="Ba.bn" format="2">
  <advance width="1176"/>
  <unicode hex="09AC"/>
  <note>
Ba.bn
</note>
  <anchor x="951" y="0" name="bottom1"/>
  <anchor x="914" y="1418" name="top"/>
  <anchor x="665" y="1719" name="top2"/>
  <outline>
    <contour>
      <point x="-33" y="1197" type="line"/>
      <point x="951" y="1197" type="line"/>
      <point x="951" y="1228" type="line"/>
      <point x="-38" y="1228" type="line"/>
    </contour>
    <contour>
      <point x="921" y="0" type="line"/>
      <point x="951" y="0" type="line"/>
      <point x="951" y="1208" type="line"/>
      <point x="916" y="1208" type="line"/>
      <point x="916" y="999" type="line"/>
      <point x="916" y="990" type="line"/>
      <point x="916" y="142" type="line"/>
      <point x="918" y="25" type="line"/>
      <point x="924" y="35" type="line"/>
      <point x="185" y="412" type="line"/>
      <point x="197" y="382" type="line"/>
      <point x="197" y="708" type="line"/>
      <point x="183" y="688" type="line"/>
      <point x="400" y="803"/>
      <point x="669" y="910"/>
      <point x="942" y="983" type="curve"/>
      <point x="928" y="1012" type="line"/>
      <point x="640" y="938"/>
      <point x="375" y="827"/>
      <point x="162" y="717" type="curve"/>
      <point x="162" y="387" type="line"/>
    </contour>
    <contour>
      <point x="928" y="1220" type="line"/>
      <point x="928" y="968" type="line"/>
      <point x="951" y="968" type="line"/>
      <point x="951" y="1220" type="line"/>
    </contour>
    <contour>
      <point x="928" y="1197" type="line"/>
      <point x="1240" y="1197" type="line"/>
      <point x="1235" y="1228" type="line"/>
      <point x="928" y="1228" type="line"/>
    </contour>
  </outline>
</glyph>
<glyph name="Ma.bn" format="2">
  <advance width="1223"/>
  <unicode hex="09AE"/>
  <anchor x="998" y="200" name="bottom1"/>
  <anchor x="961" y="1418" name="top"/>
  <anchor x="712" y="1719" name="top2"/>
  <outline>
    <contour>
      <point x="492" y="136" type="curve" smooth="yes"/>
      <point x="523" y="136"/>
      <point x="554" y="140"/>
      <point x="584" y="145" type="curve"/>
      <point x="588" y="178" type="line"/>
      <point x="556" y="173"/>
      <point x="523" y="169"/>
      <point x="491" y="169" type="curve" smooth="yes"/>
      <point x="311" y="169"/>
      <point x="215" y="252"/>
      <point x="215" y="415" type="curve" smooth="yes"/>
      <point x="215" y="432" type="line" smooth="yes"/>
      <point x="215" y="621"/>
      <point x="340" y="713"/>
      <point x="536" y="713" type="curve" smooth="yes"/>
      <point x="757" y="713"/>
      <point x="904" y="613"/>
      <point x="965" y="417" type="curve"/>
      <point x="988" y="457" type="line"/>
      <point x="975" y="457" type="line"/>
      <point x="930" y="643"/>
      <point x="765" y="746"/>
      <point x="531" y="746" type="curve" smooth="yes"/>
      <point x="317" y="746"/>
      <point x="179" y="637"/>
      <point x="179" y="433" type="curve" smooth="yes"/>
      <point x="179" y="416" type="line" smooth="yes"/>
      <point x="179" y="231"/>
      <point x="286" y="136"/>
    </contour>
    <contour>
      <point x="360" y="690" type="line"/>
      <point x="384" y="717" type="line"/>
      <point x="294" y="764"/>
      <point x="244" y="866"/>
      <point x="244" y="1014" type="curve" smooth="yes"/>
      <point x="244" y="1210" type="line"/>
      <point x="209" y="1210" type="line"/>
      <point x="209" y="1015" type="line" smooth="yes"/>
      <point x="209" y="853"/>
      <point x="261" y="749"/>
      <point x="360" y="705" type="curve"/>
    </contour>
    <contour>
      <point x="963" y="0" type="line"/>
      <point x="998" y="0" type="line"/>
      <point x="998" y="1216" type="line"/>
      <point x="963" y="1216" type="line"/>
      <point x="963" y="612" type="line"/>
      <point x="965" y="475" type="line"/>
      <point x="963" y="455" type="line"/>
    </contour>
    <contour>
      <point x="-56" y="1197" type="line"/>
      <point x="998" y="1197" type="line"/>
      <point x="998" y="1228" type="line"/>
      <point x="-61" y="1228" type="line"/>
    </contour>
    <contour>
      <point x="975" y="1220" type="line"/>
      <point x="975" y="968" type="line"/>
      <point x="998" y="968" type="line"/>
      <point x="998" y="1220" type="line"/>
    </contour>
    <contour>
      <point x="975" y="1197" type="line"/>
      <point x="1287" y="1197" type="line"/>
      <point x="1282" y="1228" type="line"/>
      <point x="975" y="1228" type="line"/>
    </contour>
  </outline>
</glyph>
<glyph name="Ya.bn" format="2">
	<advance width="1223"/>
	<unicode hex="09AF"/>
	<anchor x="998" y="0" name="bottom1"/>
	<anchor x="961" y="1418" name="top"/>
	<anchor x="712" y="1719" name="top2"/>
	<note>
		Ya.bn
	</note>
	<outline>
		<contour>
			<point x="967" y="0" type="line"/>
			<point x="998" y="0" type="line"/>
			<point x="998" y="1208" type="line"/>
			<point x="963" y="1208" type="line"/>
			<point x="963" y="142" type="line"/>
			<point x="965" y="25" type="line"/>
			<point x="970" y="36" type="line"/>
			<point x="211" y="391" type="line"/>
			<point x="224" y="361" type="line"/>
			<point x="224" y="627" type="line"/>
			<point x="209" y="603" type="line"/>
			<point x="626" y="808" type="line"/>
			<point x="626" y="837" type="line"/>
			<point x="451" y="970"/>
			<point x="321" y="1069"/>
			<point x="129" y="1205" type="curve"/>
			<point x="114" y="1205" type="line"/>
			<point x="114" y="1171" type="line"/>
			<point x="586" y="829" type="line"/>
			<point x="586" y="827" type="line"/>
			<point x="188" y="631" type="line"/>
			<point x="188" y="365" type="line"/>
		</contour>
		<contour>
			<point x="-92" y="1197" type="line"/>
			<point x="991" y="1197" type="line"/>
			<point x="991" y="1228" type="line"/>
			<point x="-97" y="1228" type="line"/>
		</contour>
		<contour>
			<point x="975" y="1220" type="line"/>
			<point x="975" y="968" type="line"/>
			<point x="998" y="968" type="line"/>
			<point x="998" y="1220" type="line"/>
		</contour>
		<contour>
			<point x="975" y="1197" type="line"/>
			<point x="1287" y="1197" type="line"/>
			<point x="1282" y="1228" type="line"/>
			<point x="975" y="1228" type="line"/>
		</contour>
	</outline>
</glyph>
<glyph name="La.bn" format="2">
	<advance width="1403"/>
	<unicode hex="09B2"/>
	<anchor x="1176" y="191" name="bottom1"/>
	<anchor x="1141" y="1418" name="top"/>
	<anchor x="892" y="1719" name="top2"/>
	<outline>
		<contour>
			<point x="450" y="218" type="curve" smooth="yes"/>
			<point x="486" y="218"/>
			<point x="524" y="222"/>
			<point x="558" y="227" type="curve"/>
			<point x="566" y="261" type="line"/>
			<point x="527" y="254"/>
			<point x="489" y="251"/>
			<point x="450" y="251" type="curve" smooth="yes"/>
			<point x="263" y="251"/>
			<point x="167" y="342"/>
			<point x="167" y="527" type="curve" smooth="yes"/>
			<point x="167" y="611" type="line" smooth="yes"/>
			<point x="167" y="808"/>
			<point x="265" y="901"/>
			<point x="438" y="901" type="curve" smooth="yes"/>
			<point x="589" y="901"/>
			<point x="691" y="814"/>
			<point x="692" y="661" type="curve" smooth="yes"/>
			<point x="693" y="531" type="line"/>
			<point x="725" y="531" type="line"/>
			<point x="726" y="661" type="line" smooth="yes"/>
			<point x="727" y="822"/>
			<point x="797" y="901"/>
			<point x="941" y="901" type="curve" smooth="yes"/>
			<point x="1049" y="901"/>
			<point x="1127" y="846"/>
			<point x="1147" y="765" type="curve"/>
			<point x="1163" y="810" type="line"/>
			<point x="1153" y="810" type="line"/>
			<point x="1132" y="875"/>
			<point x="1055" y="934"/>
			<point x="938" y="934" type="curve" smooth="yes"/>
			<point x="805" y="934"/>
			<point x="728" y="870"/>
			<point x="707" y="766" type="curve"/>
			<point x="706" y="766" type="line"/>
			<point x="677" y="869"/>
			<point x="574" y="934"/>
			<point x="435" y="934" type="curve" smooth="yes"/>
			<point x="242" y="934"/>
			<point x="132" y="830"/>
			<point x="132" y="611" type="curve" smooth="yes"/>
			<point x="132" y="527" type="line" smooth="yes"/>
			<point x="132" y="320"/>
			<point x="240" y="218"/>
		</contour>
		<contour>
			<point x="-64" y="1197" type="line"/>
			<point x="1176" y="1197" type="line"/>
			<point x="1176" y="1228" type="line"/>
			<point x="-69" y="1228" type="line"/>
		</contour>
		<contour>
			<point x="1143" y="0" type="line"/>
			<point x="1178" y="0" type="line"/>
			<point x="1178" y="1216" type="line"/>
			<point x="1143" y="1216" type="line"/>
			<point x="1143" y="971" type="line"/>
			<point x="1145" y="819" type="line"/>
			<point x="1143" y="810" type="line"/>
		</contour>
		<contour>
			<point x="1155" y="1220" type="line"/>
			<point x="1155" y="968" type="line"/>
			<point x="1178" y="968" type="line"/>
			<point x="1178" y="1220" type="line"/>
		</contour>
		<contour>
			<point x="1155" y="1197" type="line"/>
			<point x="1467" y="1197" type="line"/>
			<point x="1462" y="1228" type="line"/>
			<point x="1155" y="1228" type="line"/>
		</contour>
	</outline>
</glyph>
<glyph name="Sha.bn" format="2">
  <advance width="1409"/>
  <unicode hex="09B6"/>
  <anchor x="1184" y="200" name="bottom1"/>
  <anchor x="1147" y="1418" name="top"/>
  <anchor x="898" y="1719" name="top2"/>
  <outline>
    <contour>
      <point x="1149" y="0" type="line"/>
      <point x="1184" y="0" type="line"/>
      <point x="1184" y="1228" type="line"/>
      <point x="1151" y="1228" type="line"/>
      <point x="1151" y="935" type="line"/>
      <point x="1149" y="935" type="line"/>
    </contour>
    <contour>
      <point x="487" y="693" type="curve"/>
      <point x="488" y="693" type="line"/>
      <point x="519" y="564"/>
      <point x="619" y="496"/>
      <point x="771" y="496" type="curve" smooth="yes"/>
      <point x="817" y="496"/>
      <point x="859" y="500"/>
      <point x="896" y="508" type="curve"/>
      <point x="901" y="542" type="line"/>
      <point x="862" y="533"/>
      <point x="818" y="529"/>
      <point x="771" y="529" type="curve" smooth="yes"/>
      <point x="598" y="529"/>
      <point x="507" y="618"/>
      <point x="507" y="795" type="curve" smooth="yes"/>
      <point x="507" y="924" type="line" smooth="yes"/>
      <point x="507" y="1113"/>
      <point x="608" y="1205"/>
      <point x="807" y="1205" type="curve" smooth="yes"/>
      <point x="994" y="1205"/>
      <point x="1106" y="1105"/>
      <point x="1152" y="899" type="curve"/>
      <point x="1175" y="938" type="line"/>
      <point x="1166" y="938" type="line"/>
      <point x="1129" y="1134"/>
      <point x="1005" y="1238"/>
      <point x="800" y="1238" type="curve" smooth="yes"/>
      <point x="623" y="1238"/>
      <point x="519" y="1167"/>
      <point x="487" y="1020" type="curve"/>
      <point x="486" y="1020" type="line"/>
      <point x="452" y="1160"/>
      <point x="334" y="1228"/>
      <point x="135" y="1228" type="curve" smooth="yes"/>
      <point x="-53" y="1228" type="line"/>
      <point x="-48" y="1197" type="line"/>
      <point x="137" y="1197" type="line" smooth="yes"/>
      <point x="351" y="1197"/>
      <point x="468" y="1107"/>
      <point x="468" y="924" type="curve" smooth="yes"/>
      <point x="468" y="795" type="line" smooth="yes"/>
      <point x="468" y="617"/>
      <point x="380" y="529"/>
      <point x="214" y="529" type="curve" smooth="yes"/>
      <point x="159" y="529"/>
      <point x="113" y="533"/>
      <point x="75" y="542" type="curve"/>
      <point x="79" y="508" type="line"/>
      <point x="120" y="500"/>
      <point x="165" y="496"/>
      <point x="215" y="496" type="curve" smooth="yes"/>
      <point x="362" y="496"/>
      <point x="460" y="564"/>
    </contour>
    <contour>
      <point x="1161" y="1220" type="line"/>
      <point x="1161" y="968" type="line"/>
      <point x="1184" y="968" type="line"/>
      <point x="1184" y="1220" type="line"/>
    </contour>
    <contour>
      <point x="1161" y="1197" type="line"/>
      <point x="1473" y="1197" type="line"/>
      <point x="1468" y="1228" type="line"/>
      <point x="1161" y="1228" type="line"/>
    </contour>
  </outline>
</glyph>
<glyph name="Sa.bn" format="2">
	<advance width="1197"/>
	<unicode hex="09B8"/>
	<anchor x="973" y="200" name="bottom1"/>
	<anchor x="935" y="1418" name="top"/>
	<anchor x="686" y="1719" name="top2"/>
	<outline>
		<contour>
			<point x="937" y="0" type="line"/>
			<point x="972" y="0" type="line"/>
			<point x="972" y="1216" type="line"/>
			<point x="937" y="1216" type="line"/>
			<point x="937" y="856" type="line"/>
			<point x="938" y="725" type="line"/>
			<point x="937" y="715" type="line"/>
		</contour>
		<contour>
			<point x="-116" y="1197" type="line"/>
			<point x="971" y="1197" type="line"/>
			<point x="971" y="1228" type="line"/>
			<point x="-121" y="1228" type="line"/>
		</contour>
		<contour>
			<point x="952" y="693" type="curve"/>
			<point x="954" y="727" type="line"/>
			<point x="927" y="738"/>
			<point x="902" y="744"/>
			<point x="865" y="744" type="curve" smooth="yes"/>
			<point x="721" y="744"/>
			<point x="609" y="670"/>
			<point x="502" y="575" type="curve" smooth="yes"/>
			<point x="447" y="530"/>
			<point x="394" y="480"/>
			<point x="350" y="442" type="curve"/>
			<point x="349" y="434" type="line"/>
			<point x="447" y="510"/>
			<point x="474" y="635"/>
			<point x="474" y="735" type="curve" smooth="yes"/>
			<point x="474" y="763" type="line" smooth="yes"/>
			<point x="474" y="1009"/>
			<point x="322" y="1156"/>
			<point x="149" y="1204" type="curve"/>
			<point x="131" y="1207" type="line"/>
			<point x="131" y="1177" type="line"/>
			<point x="295" y="1129"/>
			<point x="438" y="991"/>
			<point x="438" y="763" type="curve" smooth="yes"/>
			<point x="438" y="735" type="line" smooth="yes"/>
			<point x="438" y="494"/>
			<point x="271" y="368"/>
			<point x="84" y="368" type="curve" smooth="yes"/>
			<point x="37" y="368" type="line"/>
			<point x="37" y="332" type="line"/>
			<point x="88" y="332" type="line" smooth="yes"/>
			<point x="286" y="332"/>
			<point x="396" y="445"/>
			<point x="518" y="545" type="curve" smooth="yes"/>
			<point x="625" y="639"/>
			<point x="731" y="711"/>
			<point x="868" y="711" type="curve" smooth="yes"/>
			<point x="906" y="711"/>
			<point x="929" y="705"/>
		</contour>
		<contour>
			<point x="949" y="1220" type="line"/>
			<point x="949" y="968" type="line"/>
			<point x="972" y="968" type="line"/>
			<point x="972" y="1220" type="line"/>
		</contour>
		<contour>
			<point x="949" y="1197" type="line"/>
			<point x="1261" y="1197" type="line"/>
			<point x="1256" y="1228" type="line"/>
			<point x="949" y="1228" type="line"/>
		</contour>
	</outline>
</glyph>
<glyph name="Nukta.bn" format="2">
	<advance width="501"/>
	<unicode hex="09BC"/>
	<outline>
		<contour>
			<point x="-373" y="-194" type="curve" smooth="yes"/>
			<point x="-340" y="-194"/>
			<point x="-326" y="-171"/>
			<point x="-326" y="-133" type="curve" smooth="yes"/>
			<point x="-326" y="-124" type="line" smooth="yes"/>
			<point x="-326" y="-84"/>
			<point x="-340" y="-62"/>
			<point x="-373" y="-62" type="curve" smooth="yes"/>
			<point x="-407" y="-62"/>
			<point x="-421" y="-84"/>
			<point x="-421" y="-124" type="curve" smooth="yes"/>
			<point x="-421" y="-133" type="line" smooth="yes"/>
			<point x="-421" y="-171"/>
			<point x="-407" y="-194"/>
		</contour>
	</outline>
</glyph>
<glyph name="Avagraha.bn" format="2">
	<advance width="1088"/>
	<unicode hex="09BD"/>
	<outline>
		<contour>
			<point x="332" y="998" type="curve" smooth="yes"/>
			<point x="332" y="939" type="line"/>
			<point x="366" y="939" type="line"/>
			<point x="366" y="998" type="line" smooth="yes"/>
			<point x="366" y="1143"/>
			<point x="267" y="1228"/>
			<point x="99" y="1228" type="curve" smooth="yes"/>
			<point x="-47" y="1228" type="line"/>
			<point x="-42" y="1197" type="line"/>
			<point x="99" y="1197" type="line" smooth="yes"/>
			<point x="250" y="1197"/>
			<point x="332" y="1126"/>
		</contour>
		<contour>
			<point x="1014" y="-112" type="line"/>
			<point x="1018" y="-77" type="line"/>
			<point x="432" y="182" type="line"/>
			<point x="254" y="254" type="line"/>
			<point x="309" y="254" type="line"/>
			<point x="224" y="256" type="line"/>
			<point x="319" y="230"/>
			<point x="410" y="218"/>
			<point x="511" y="218" type="curve" smooth="yes"/>
			<point x="784" y="218"/>
			<point x="920" y="347"/>
			<point x="920" y="570" type="curve" smooth="yes"/>
			<point x="920" y="625" type="line" smooth="yes"/>
			<point x="920" y="857"/>
			<point x="784" y="990"/>
			<point x="549" y="990" type="curve" smooth="yes"/>
			<point x="316" y="990"/>
			<point x="178" y="864"/>
			<point x="178" y="648" type="curve" smooth="yes"/>
			<point x="178" y="624"/>
			<point x="178" y="601"/>
			<point x="178" y="578" type="curve"/>
			<point x="214" y="578" type="line"/>
			<point x="214" y="601"/>
			<point x="214" y="624"/>
			<point x="214" y="648" type="curve" smooth="yes"/>
			<point x="214" y="845"/>
			<point x="337" y="957"/>
			<point x="550" y="957" type="curve" smooth="yes"/>
			<point x="764" y="957"/>
			<point x="884" y="839"/>
			<point x="884" y="625" type="curve" smooth="yes"/>
			<point x="884" y="570" type="line" smooth="yes"/>
			<point x="884" y="365"/>
			<point x="760" y="251"/>
			<point x="502" y="251" type="curve" smooth="yes"/>
			<point x="387" y="251"/>
			<point x="289" y="263"/>
			<point x="198" y="292" type="curve" smooth="yes"/>
			<point x="142" y="310" type="line"/>
			<point x="137" y="277" type="line"/>
		</contour>
	</outline>
</glyph>
<glyph name="SignAa.bn" format="2">
	<advance width="486"/>
	<unicode hex="09BE"/>
	<anchor x="224" y="1418" name="top"/>
	<anchor x="-25" y="1719" name="top2"/>
	<outline>
		<contour>
			<point x="226" y="0" type="line"/>
			<point x="261" y="0" type="line"/>
			<point x="261" y="1208" type="line"/>
			<point x="226" y="1208" type="line"/>
		</contour>
		<contour>
			<point x="-60" y="1197" type="line"/>
			<point x="261" y="1197" type="line"/>
			<point x="261" y="1228" type="line"/>
			<point x="-65" y="1228" type="line"/>
		</contour>
		<contour>
			<point x="238" y="1220" type="line"/>
			<point x="238" y="968" type="line"/>
			<point x="261" y="968" type="line"/>
			<point x="261" y="1220" type="line"/>
		</contour>
		<contour>
			<point x="238" y="1197" type="line"/>
			<point x="550" y="1197" type="line"/>
			<point x="545" y="1228" type="line"/>
			<point x="238" y="1228" type="line"/>
		</contour>
	</outline>
</glyph>
<glyph name="SignIi.bn" format="2">
	<advance width="486"/>
	<unicode hex="09C0"/>
	<anchor x="224" y="1418" name="top"/>
	<anchor x="269" y="1594" name="top2"/>
	<outline>
		<contour>
			<point x="-553" y="1406" type="curve" smooth="yes"/>
			<point x="-187" y="1406" type="line"/>
			<point x="-192" y="1436" type="line"/>
			<point x="-553" y="1436" type="line" smooth="yes"/>
			<point x="-694" y="1436"/>
			<point x="-761" y="1476"/>
			<point x="-761" y="1560" type="curve" smooth="yes"/>
			<point x="-761" y="1671"/>
			<point x="-656" y="1724"/>
			<point x="-436" y="1724" type="curve" smooth="yes"/>
			<point x="-17" y="1724"/>
			<point x="227" y="1537"/>
			<point x="227" y="1218" type="curve" smooth="yes"/>
			<point x="227" y="1202" type="line"/>
			<point x="261" y="1202" type="line"/>
			<point x="261" y="1218" type="line" smooth="yes"/>
			<point x="261" y="1557"/>
			<point x="2" y="1755"/>
			<point x="-438" y="1755" type="curve" smooth="yes"/>
			<point x="-679" y="1755"/>
			<point x="-795" y="1690"/>
			<point x="-795" y="1560" type="curve" smooth="yes"/>
			<point x="-795" y="1456"/>
			<point x="-716" y="1406"/>
		</contour>
		<contour>
			<point x="226" y="0" type="line"/>
			<point x="261" y="0" type="line"/>
			<point x="261" y="1208" type="line"/>
			<point x="226" y="1208" type="line"/>
		</contour>
		<contour>
			<point x="-60" y="1197" type="line"/>
			<point x="261" y="1197" type="line"/>
			<point x="261" y="1228" type="line"/>
			<point x="-65" y="1228" type="line"/>
		</contour>
		<contour>
			<point x="238" y="1220" type="line"/>
			<point x="238" y="968" type="line"/>
			<point x="261" y="968" type="line"/>
			<point x="261" y="1220" type="line"/>
		</contour>
		<contour>
			<point x="238" y="1197" type="line"/>
			<point x="550" y="1197" type="line"/>
			<point x="545" y="1228" type="line"/>
			<point x="238" y="1228" type="line"/>
		</contour>
	</outline>
</glyph>
<glyph name="SignU.bn" format="2">
	<advance width="0"/>
	<unicode hex="09C1"/>
	<anchor x="-213" y="0" name="_bottom1"/>
	<outline>
		<contour>
			<point x="-245" y="-221" type="line"/>
			<point x="-213" y="-239" type="line"/>
			<point x="-213" y="23" type="line"/>
			<point x="-245" y="26" type="line"/>
		</contour>
		<contour>
			<point x="149" y="-529" type="curve"/>
			<point x="154" y="-490" type="line"/>
			<point x="-96" y="-249"/>
			<point x="-293" y="-161"/>
			<point x="-481" y="-161" type="curve" smooth="yes"/>
			<point x="-669" y="-161"/>
			<point x="-763" y="-230"/>
			<point x="-763" y="-353" type="curve" smooth="yes"/>
			<point x="-763" y="-467"/>
			<point x="-675" y="-535"/>
			<point x="-499" y="-535" type="curve" smooth="yes"/>
			<point x="-313" y="-535"/>
			<point x="-213" y="-431"/>
			<point x="-213" y="-281" type="curve" smooth="yes"/>
			<point x="-213" y="-234" type="line"/>
			<point x="-245" y="-220" type="line"/>
			<point x="-245" y="-276" type="line" smooth="yes"/>
			<point x="-245" y="-414"/>
			<point x="-334" y="-504"/>
			<point x="-499" y="-504" type="curve" smooth="yes"/>
			<point x="-653" y="-504"/>
			<point x="-730" y="-448"/>
			<point x="-730" y="-354" type="curve" smooth="yes"/>
			<point x="-730" y="-250"/>
			<point x="-646" y="-191"/>
			<point x="-480" y="-191" type="curve" smooth="yes"/>
			<point x="-293" y="-191"/>
			<point x="-98" y="-282"/>
		</contour>
	</outline>
</glyph>
<glyph name="SignUu.bn" format="2">
	<advance width="0"/>
	<unicode hex="09C2"/>
	<anchor x="83" y="0" name="_bottom1"/>
	<outline>
		<contour>
			<point x="83" y="-204" type="line"/>
			<point x="83" y="23" type="line"/>
			<point x="51" y="26" type="line"/>
			<point x="51" y="-187" type="line"/>
		</contour>
		<contour>
			<point x="448" y="-614" type="line"/>
			<point x="452" y="-581" type="line"/>
			<point x="117" y="-410" type="line"/>
			<point x="50" y="-466"/>
			<point x="-20" y="-500"/>
			<point x="-136" y="-500" type="curve" smooth="yes"/>
			<point x="-294" y="-500"/>
			<point x="-373" y="-447"/>
			<point x="-373" y="-353" type="curve" smooth="yes"/>
			<point x="-373" y="-228"/>
			<point x="-245" y="-191"/>
			<point x="-118" y="-191" type="curve" smooth="yes"/>
			<point x="-50" y="-191"/>
			<point x="2" y="-195"/>
			<point x="83" y="-204" type="curve"/>
			<point x="66" y="-174" type="line"/>
			<point x="9" y="-167"/>
			<point x="-53" y="-161"/>
			<point x="-122" y="-161" type="curve" smooth="yes"/>
			<point x="-277" y="-161"/>
			<point x="-407" y="-217"/>
			<point x="-407" y="-350" type="curve" smooth="yes"/>
			<point x="-407" y="-467"/>
			<point x="-314" y="-531"/>
			<point x="-133" y="-531" type="curve" smooth="yes"/>
			<point x="-11" y="-531"/>
			<point x="64" y="-493"/>
			<point x="133" y="-438" type="curve"/>
			<point x="102" y="-437" type="line"/>
		</contour>
	</outline>
</glyph>
<glyph name="SignRu.bn" format="2">
	<advance width="0"/>
	<unicode hex="09C3"/>
	<anchor x="-113" y="0" name="_bottom1"/>
	<outline>
		<contour>
			<point x="-113" y="-155" type="line"/>
			<point x="-113" y="23" type="line"/>
			<point x="-145" y="26" type="line"/>
			<point x="-145" y="-149" type="line"/>
		</contour>
		<contour>
			<point x="7" y="-594" type="line"/>
			<point x="11" y="-558" type="line"/>
			<point x="-568" y="-342" type="line"/>
			<point x="-568" y="-339" type="line"/>
			<point x="-497" y="-302"/>
			<point x="-244" y="-203"/>
			<point x="-113" y="-155" type="curve"/>
			<point x="-135" y="-128" type="line"/>
			<point x="-287" y="-187"/>
			<point x="-512" y="-272"/>
			<point x="-614" y="-324" type="curve"/>
			<point x="-614" y="-359" type="line"/>
		</contour>
	</outline>
</glyph>
<glyph name="SignRuu.bn" format="2">
  <unicode hex="09C4"/>
  <anchor x="308" y="185" name="_bottom1"/>
  <outline>
    <contour>
      <point x="207" y="-490" type="curve"/>
      <point x="161" y="-473" type="line"/>
      <point x="29" y="-525"/>
      <point x="-116" y="-584"/>
      <point x="-193" y="-624" type="curve"/>
      <point x="-193" y="-659" type="line"/>
      <point x="428" y="-895" type="line"/>
      <point x="432" y="-861" type="line"/>
      <point x="-147" y="-643" type="line"/>
      <point x="-147" y="-639" type="line"/>
      <point x="-91" y="-610"/>
      <point x="74" y="-542"/>
    </contour>
    <contour>
      <point x="308" y="-155" type="line"/>
      <point x="308" y="23" type="line"/>
      <point x="276" y="26" type="line"/>
      <point x="276" y="-149" type="line"/>
    </contour>
    <contour>
      <point x="428" y="-594" type="line"/>
      <point x="432" y="-561" type="line"/>
      <point x="-147" y="-343" type="line"/>
      <point x="-147" y="-339" type="line"/>
      <point x="-76" y="-302"/>
      <point x="177" y="-203"/>
      <point x="308" y="-155" type="curve"/>
      <point x="286" y="-127" type="line"/>
      <point x="134" y="-186"/>
      <point x="-91" y="-271"/>
      <point x="-193" y="-323" type="curve"/>
      <point x="-193" y="-359" type="line"/>
    </contour>
  </outline>
</glyph>
<glyph name="SignE.bn" format="2">
  <advance width="612"/>
  <unicode hex="09C7"/>
  <outline>
    <contour>
      <point x="544" y="1201" type="curve"/>
      <point x="526" y="1221" type="line"/>
      <point x="295" y="1133"/>
      <point x="172" y="937"/>
      <point x="172" y="625" type="curve" smooth="yes"/>
      <point x="172" y="486" type="line" smooth="yes"/>
      <point x="172" y="162"/>
      <point x="312" y="6"/>
      <point x="511" y="-21" type="curve" smooth="yes"/>
      <point x="540" y="-25" type="line"/>
      <point x="544" y="7" type="line"/>
      <point x="514" y="11" type="line" smooth="yes"/>
      <point x="336" y="35"/>
      <point x="208" y="178"/>
      <point x="208" y="485" type="curve" smooth="yes"/>
      <point x="208" y="624" type="line" smooth="yes"/>
      <point x="208" y="925"/>
      <point x="326" y="1112"/>
    </contour>
    <contour>
      <point x="-62" y="1197" type="line"/>
      <point x="767" y="1197" type="line"/>
      <point x="762" y="1228" type="line"/>
      <point x="-67" y="1228" type="line"/>
    </contour>
  </outline>
</glyph>
<glyph name="SignAi.bn" format="2">
  <advance width="617"/>
  <unicode hex="09C8"/>
  <anchor x="332" y="1529" name="top"/>
  <anchor x="378" y="1631" name="top2"/>
  <outline>
    <contour>
      <point x="549" y="1201" type="curve"/>
      <point x="531" y="1221" type="line"/>
      <point x="300" y="1133"/>
      <point x="177" y="937"/>
      <point x="177" y="625" type="curve" smooth="yes"/>
      <point x="177" y="486" type="line" smooth="yes"/>
      <point x="177" y="162"/>
      <point x="317" y="6"/>
      <point x="516" y="-21" type="curve" smooth="yes"/>
      <point x="545" y="-25" type="line"/>
      <point x="549" y="7" type="line"/>
      <point x="519" y="11" type="line" smooth="yes"/>
      <point x="341" y="35"/>
      <point x="213" y="178"/>
      <point x="213" y="485" type="curve" smooth="yes"/>
      <point x="213" y="624" type="line" smooth="yes"/>
      <point x="213" y="925"/>
      <point x="331" y="1112"/>
    </contour>
    <contour>
      <point x="-57" y="1197" type="line"/>
      <point x="772" y="1197" type="line"/>
      <point x="767" y="1228" type="line"/>
      <point x="-62" y="1228" type="line"/>
    </contour>
    <contour>
      <point x="562" y="1225" type="line"/>
      <point x="576" y="1261"/>
      <point x="582" y="1297"/>
      <point x="582" y="1337" type="curve" smooth="yes"/>
      <point x="582" y="1475"/>
      <point x="496" y="1542"/>
      <point x="331" y="1542" type="curve" smooth="yes"/>
      <point x="217" y="1542" type="line" smooth="yes"/>
      <point x="81" y="1542"/>
      <point x="16" y="1595"/>
      <point x="16" y="1705" type="curve" smooth="yes"/>
      <point x="16" y="1728" type="line"/>
      <point x="-14" y="1728" type="line"/>
      <point x="-14" y="1705" type="line" smooth="yes"/>
      <point x="-14" y="1576"/>
      <point x="63" y="1511"/>
      <point x="217" y="1511" type="curve" smooth="yes"/>
      <point x="331" y="1511" type="line" smooth="yes"/>
      <point x="481" y="1511"/>
      <point x="550" y="1458"/>
      <point x="550" y="1336" type="curve" smooth="yes"/>
      <point x="550" y="1290"/>
      <point x="543" y="1250"/>
      <point x="528" y="1213" type="curve"/>
      <point x="553" y="1210" type="line"/>
    </contour>
  </outline>
</glyph>
<glyph name="SignO.bn" format="2">
	<advance width="1421"/>
	<unicode hex="09CB"/>
	<anchor x="1159" y="1418" name="top"/>
	<anchor x="910" y="1719" name="top2"/>
	<outline>
		<contour>
			<point x="702" y="1228" type="line"/>
			<point x="702" y="1197" type="line"/>
			<point x="1021" y="1197" type="line"/>
			<point x="1021" y="1228" type="line"/>
		</contour>
		<contour>
			<point x="544" y="1201" type="curve"/>
			<point x="526" y="1221" type="line"/>
			<point x="295" y="1133"/>
			<point x="172" y="937"/>
			<point x="172" y="625" type="curve" smooth="yes"/>
			<point x="172" y="486" type="line" smooth="yes"/>
			<point x="172" y="162"/>
			<point x="312" y="6"/>
			<point x="511" y="-21" type="curve" smooth="yes"/>
			<point x="540" y="-25" type="line"/>
			<point x="544" y="7" type="line"/>
			<point x="514" y="11" type="line" smooth="yes"/>
			<point x="336" y="35"/>
			<point x="208" y="178"/>
			<point x="208" y="485" type="curve" smooth="yes"/>
			<point x="208" y="624" type="line" smooth="yes"/>
			<point x="208" y="925"/>
			<point x="326" y="1112"/>
		</contour>
		<contour>
			<point x="-62" y="1197" type="line"/>
			<point x="827" y="1197" type="line"/>
			<point x="822" y="1228" type="line"/>
			<point x="-67" y="1228" type="line"/>
		</contour>
		<contour>
			<point x="1161" y="0" type="line"/>
			<point x="1196" y="0" type="line"/>
			<point x="1196" y="1208" type="line"/>
			<point x="1161" y="1208" type="line"/>
		</contour>
		<contour>
			<point x="875" y="1197" type="line"/>
			<point x="1196" y="1197" type="line"/>
			<point x="1196" y="1228" type="line"/>
			<point x="870" y="1228" type="line"/>
		</contour>
		<contour>
			<point x="1173" y="1220" type="line"/>
			<point x="1173" y="968" type="line"/>
			<point x="1196" y="968" type="line"/>
			<point x="1196" y="1220" type="line"/>
		</contour>
		<contour>
			<point x="1173" y="1197" type="line"/>
			<point x="1485" y="1197" type="line"/>
			<point x="1480" y="1228" type="line"/>
			<point x="1173" y="1228" type="line"/>
		</contour>
	</outline>
</glyph>
<glyph name="SignAu.bn" format="2">
	<advance width="1426"/>
	<unicode hex="09CC"/>
	<anchor x="382" y="1529" name="top"/>
	<anchor x="428" y="1631" name="top2"/>
	<outline>
		<contour>
			<point x="707" y="1228" type="line"/>
			<point x="707" y="1198" type="line"/>
			<point x="1026" y="1198" type="line"/>
			<point x="1026" y="1228" type="line"/>
		</contour>
		<contour>
			<point x="549" y="1201" type="curve"/>
			<point x="531" y="1221" type="line"/>
			<point x="300" y="1133"/>
			<point x="177" y="937"/>
			<point x="177" y="625" type="curve" smooth="yes"/>
			<point x="177" y="486" type="line" smooth="yes"/>
			<point x="177" y="162"/>
			<point x="317" y="6"/>
			<point x="516" y="-21" type="curve" smooth="yes"/>
			<point x="545" y="-25" type="line"/>
			<point x="549" y="7" type="line"/>
			<point x="519" y="11" type="line" smooth="yes"/>
			<point x="341" y="35"/>
			<point x="213" y="178"/>
			<point x="213" y="485" type="curve" smooth="yes"/>
			<point x="213" y="624" type="line" smooth="yes"/>
			<point x="213" y="925"/>
			<point x="331" y="1112"/>
		</contour>
		<contour>
			<point x="-57" y="1197" type="line"/>
			<point x="832" y="1197" type="line"/>
			<point x="827" y="1228" type="line"/>
			<point x="-62" y="1228" type="line"/>
		</contour>
		<contour>
			<point x="1166" y="0" type="line"/>
			<point x="1201" y="0" type="line"/>
			<point x="1201" y="1208" type="line"/>
			<point x="1166" y="1208" type="line"/>
		</contour>
		<contour>
			<point x="880" y="1197" type="line"/>
			<point x="1201" y="1197" type="line"/>
			<point x="1201" y="1228" type="line"/>
			<point x="875" y="1228" type="line"/>
		</contour>
		<contour>
			<point x="1178" y="1220" type="line"/>
			<point x="1178" y="968" type="line"/>
			<point x="1201" y="968" type="line"/>
			<point x="1201" y="1220" type="line"/>
		</contour>
		<contour>
			<point x="1178" y="1197" type="line"/>
			<point x="1490" y="1197" type="line"/>
			<point x="1485" y="1228" type="line"/>
			<point x="1178" y="1228" type="line"/>
		</contour>
		<contour>
			<point x="612" y="1225" type="line"/>
			<point x="626" y="1261"/>
			<point x="632" y="1297"/>
			<point x="632" y="1337" type="curve" smooth="yes"/>
			<point x="632" y="1475"/>
			<point x="546" y="1542"/>
			<point x="381" y="1542" type="curve" smooth="yes"/>
			<point x="267" y="1542" type="line" smooth="yes"/>
			<point x="131" y="1542"/>
			<point x="66" y="1595"/>
			<point x="66" y="1705" type="curve" smooth="yes"/>
			<point x="66" y="1728" type="line"/>
			<point x="36" y="1728" type="line"/>
			<point x="36" y="1705" type="line" smooth="yes"/>
			<point x="36" y="1576"/>
			<point x="113" y="1511"/>
			<point x="267" y="1511" type="curve" smooth="yes"/>
			<point x="381" y="1511" type="line" smooth="yes"/>
			<point x="531" y="1511"/>
			<point x="600" y="1458"/>
			<point x="600" y="1336" type="curve" smooth="yes"/>
			<point x="600" y="1290"/>
			<point x="593" y="1250"/>
			<point x="578" y="1213" type="curve"/>
			<point x="603" y="1210" type="line"/>
		</contour>
	</outline>
</glyph>
<glyph name="Hasant.bn" format="2">
  <unicode hex="09CD"/>
  <anchor x="-77" y="21" name="_bottom1"/>
  <outline>
    <contour>
      <point x="497" y="-446" type="line"/>
      <point x="-6" y="-103" type="line"/>
      <point x="-10" y="-141" type="line"/>
      <point x="493" y="-483" type="line"/>
    </contour>
  </outline>
</glyph>
<glyph name="KhandaTa.bn" format="2">
  <advance width="1082"/>
  <unicode hex="09CE"/>
  <outline>
    <contour>
      <point x="883" y="-2" type="curve"/>
      <point x="919" y="-2" type="line"/>
      <point x="923" y="31"/>
      <point x="924" y="60"/>
      <point x="924" y="86" type="curve" smooth="yes"/>
      <point x="924" y="200"/>
      <point x="870" y="288"/>
      <point x="666" y="368" type="curve" smooth="yes"/>
      <point x="458" y="450" type="line" smooth="yes"/>
      <point x="274" y="523"/>
      <point x="189" y="618"/>
      <point x="189" y="787" type="curve" smooth="yes"/>
      <point x="189" y="882" type="line" smooth="yes"/>
      <point x="189" y="1092"/>
      <point x="298" y="1206"/>
      <point x="516" y="1206" type="curve" smooth="yes"/>
      <point x="723" y="1206"/>
      <point x="827" y="1095"/>
      <point x="827" y="883" type="curve" smooth="yes"/>
      <point x="827" y="842" type="line" smooth="yes"/>
      <point x="827" y="688"/>
      <point x="760" y="613"/>
      <point x="613" y="613" type="curve" smooth="yes"/>
      <point x="571" y="613" type="line"/>
      <point x="577" y="582" type="line"/>
      <point x="625" y="582" type="line" smooth="yes"/>
      <point x="785" y="582"/>
      <point x="862" y="668"/>
      <point x="862" y="842" type="curve" smooth="yes"/>
      <point x="862" y="883" type="line" smooth="yes"/>
      <point x="862" y="1113"/>
      <point x="746" y="1238"/>
      <point x="515" y="1238" type="curve" smooth="yes"/>
      <point x="275" y="1238"/>
      <point x="154" y="1111"/>
      <point x="154" y="883" type="curve" smooth="yes"/>
      <point x="154" y="787" type="line" smooth="yes"/>
      <point x="154" y="597"/>
      <point x="249" y="499"/>
      <point x="446" y="420" type="curve" smooth="yes"/>
      <point x="654" y="337" type="line" smooth="yes"/>
      <point x="846" y="260"/>
      <point x="888" y="187"/>
      <point x="888" y="86" type="curve" smooth="yes"/>
      <point x="888" y="60"/>
      <point x="887" y="31"/>
    </contour>
  </outline>
</glyph>
<glyph name="SignAuMark.bn" format="2">
	<advance width="485"/>
	<unicode hex="09D7"/>
	<anchor x="34" y="1529" name="top"/>
	<anchor x="80" y="1631" name="top2"/>
	<outline>
		<contour>
			<point x="225" y="0" type="line"/>
			<point x="260" y="0" type="line"/>
			<point x="260" y="1208" type="line"/>
			<point x="225" y="1208" type="line"/>
		</contour>
		<contour>
			<point x="-61" y="1197" type="line"/>
			<point x="260" y="1197" type="line"/>
			<point x="260" y="1228" type="line"/>
			<point x="-66" y="1228" type="line"/>
		</contour>
		<contour>
			<point x="237" y="1220" type="line"/>
			<point x="237" y="968" type="line"/>
			<point x="260" y="968" type="line"/>
			<point x="260" y="1220" type="line"/>
		</contour>
		<contour>
			<point x="237" y="1197" type="line"/>
			<point x="549" y="1197" type="line"/>
			<point x="544" y="1228" type="line"/>
			<point x="237" y="1228" type="line"/>
		</contour>
		<contour>
			<point x="264" y="1225" type="line"/>
			<point x="278" y="1261"/>
			<point x="284" y="1297"/>
			<point x="284" y="1337" type="curve" smooth="yes"/>
			<point x="284" y="1475"/>
			<point x="198" y="1542"/>
			<point x="33" y="1542" type="curve" smooth="yes"/>
			<point x="-81" y="1542" type="line" smooth="yes"/>
			<point x="-217" y="1542"/>
			<point x="-282" y="1595"/>
			<point x="-282" y="1705" type="curve" smooth="yes"/>
			<point x="-282" y="1728" type="line"/>
			<point x="-312" y="1728" type="line"/>
			<point x="-312" y="1705" type="line" smooth="yes"/>
			<point x="-312" y="1576"/>
			<point x="-235" y="1511"/>
			<point x="-81" y="1511" type="curve" smooth="yes"/>
			<point x="33" y="1511" type="line" smooth="yes"/>
			<point x="183" y="1511"/>
			<point x="252" y="1458"/>
			<point x="252" y="1336" type="curve" smooth="yes"/>
			<point x="252" y="1290"/>
			<point x="245" y="1250"/>
			<point x="230" y="1213" type="curve"/>
			<point x="255" y="1210" type="line"/>
		</contour>
	</outline>
</glyph>
<glyph name="Rra.bn" format="2">
  <advance width="1343"/>
  <unicode hex="09DC"/>
  <anchor x="826" y="185" name="bottom1"/>
  <anchor x="604" y="1418" name="top"/>
  <anchor x="400" y="1719" name="top2"/>
  <outline>
    <contour>
      <point x="175" y="929" type="line"/>
      <point x="140" y="929" type="line"/>
      <point x="169" y="512" type="line" smooth="yes"/>
      <point x="191" y="192"/>
      <point x="379" y="20"/>
      <point x="698" y="20" type="curve" smooth="yes"/>
      <point x="1012" y="20"/>
      <point x="1189" y="182"/>
      <point x="1189" y="501" type="curve" smooth="yes"/>
      <point x="1189" y="622"/>
      <point x="1181" y="759"/>
      <point x="1162" y="891" type="curve"/>
      <point x="1129" y="895" type="line"/>
      <point x="1058" y="783" type="line" smooth="yes"/>
      <point x="991" y="677"/>
      <point x="926" y="603"/>
      <point x="807" y="603" type="curve" smooth="yes"/>
      <point x="691" y="603"/>
      <point x="632" y="669"/>
      <point x="632" y="802" type="curve" smooth="yes"/>
      <point x="632" y="1216" type="line"/>
      <point x="597" y="1216" type="line"/>
      <point x="597" y="802" type="line" smooth="yes"/>
      <point x="597" y="646"/>
      <point x="668" y="570"/>
      <point x="810" y="570" type="curve" smooth="yes"/>
      <point x="942" y="570"/>
      <point x="1022" y="661"/>
      <point x="1086" y="764" type="curve" smooth="yes"/>
      <point x="1147" y="862" type="line"/>
      <point x="1132" y="866" type="line"/>
      <point x="1146" y="752"/>
      <point x="1153" y="613"/>
      <point x="1153" y="501" type="curve" smooth="yes"/>
      <point x="1153" y="202"/>
      <point x="985" y="55"/>
      <point x="698" y="55" type="curve" smooth="yes"/>
      <point x="399" y="55"/>
      <point x="225" y="216"/>
      <point x="204" y="516" type="curve" smooth="yes"/>
    </contour>
    <contour>
      <point x="-67" y="1197" type="line"/>
      <point x="1397" y="1197" type="line"/>
      <point x="1392" y="1228" type="line"/>
      <point x="-72" y="1228" type="line"/>
    </contour>
    <contour>
      <point x="687" y="-320" type="curve" smooth="yes"/>
      <point x="720" y="-320"/>
      <point x="734" y="-297"/>
      <point x="734" y="-259" type="curve" smooth="yes"/>
      <point x="734" y="-250" type="line" smooth="yes"/>
      <point x="734" y="-210"/>
      <point x="720" y="-188"/>
      <point x="687" y="-188" type="curve" smooth="yes"/>
      <point x="653" y="-188"/>
      <point x="639" y="-210"/>
      <point x="639" y="-250" type="curve" smooth="yes"/>
      <point x="639" y="-259" type="line" smooth="yes"/>
      <point x="639" y="-297"/>
      <point x="653" y="-320"/>
    </contour>
  </outline>
</glyph>
<glyph name="Rha.bn" format="2">
	<advance width="1196"/>
	<unicode hex="09DD"/>
	<anchor x="757" y="185" name="bottom1"/>
	<anchor x="208" y="1418" name="top"/>
	<anchor x="234" y="1727" name="top2"/>
	<outline>
		<contour>
			<point x="571" y="-320" type="curve" smooth="yes"/>
			<point x="604" y="-320"/>
			<point x="618" y="-297"/>
			<point x="618" y="-259" type="curve" smooth="yes"/>
			<point x="618" y="-250" type="line" smooth="yes"/>
			<point x="618" y="-210"/>
			<point x="604" y="-188"/>
			<point x="571" y="-188" type="curve" smooth="yes"/>
			<point x="537" y="-188"/>
			<point x="523" y="-210"/>
			<point x="523" y="-250" type="curve" smooth="yes"/>
			<point x="523" y="-259" type="line" smooth="yes"/>
			<point x="523" y="-297"/>
			<point x="537" y="-320"/>
		</contour>
		<contour>
			<point x="582" y="20" type="curve" smooth="yes"/>
			<point x="761" y="20"/>
			<point x="875" y="98"/>
			<point x="955" y="216" type="curve" smooth="yes"/>
			<point x="1014" y="303"/>
			<point x="1047" y="415"/>
			<point x="1047" y="539" type="curve" smooth="yes"/>
			<point x="1047" y="721"/>
			<point x="953" y="816"/>
			<point x="728" y="816" type="curve" smooth="yes"/>
			<point x="659" y="816"/>
			<point x="602" y="812"/>
			<point x="528" y="804" type="curve"/>
			<point x="522" y="770" type="line"/>
			<point x="595" y="779"/>
			<point x="657" y="783"/>
			<point x="729" y="783" type="curve" smooth="yes"/>
			<point x="933" y="783"/>
			<point x="1011" y="699"/>
			<point x="1011" y="539" type="curve" smooth="yes"/>
			<point x="1011" y="422"/>
			<point x="980" y="315"/>
			<point x="922" y="232" type="curve" smooth="yes"/>
			<point x="848" y="126"/>
			<point x="745" y="55"/>
			<point x="582" y="55" type="curve" smooth="yes"/>
			<point x="356" y="55"/>
			<point x="243" y="161"/>
			<point x="243" y="395" type="curve" smooth="yes"/>
			<point x="243" y="1215" type="line"/>
			<point x="208" y="1215" type="line"/>
			<point x="208" y="398" type="line" smooth="yes"/>
			<point x="208" y="143"/>
			<point x="329" y="20"/>
		</contour>
		<contour>
			<point x="-67" y="1197" type="line"/>
			<point x="1228" y="1197" type="line"/>
			<point x="1223" y="1228" type="line"/>
			<point x="-72" y="1228" type="line"/>
		</contour>
	</outline>
</glyph>
<glyph name="VowelRuu.bn" format="2">
	<advance width="1594"/>
	<unicode hex="09E0"/>
	<anchor x="684" y="1719" name="top2"/>
	<outline>
		<contour>
			<point x="831" y="-329" type="line"/>
			<point x="835" y="-295" type="line"/>
			<point x="254" y="-43" type="line"/>
			<point x="254" y="-40" type="line"/>
			<point x="316" y="-4"/>
			<point x="515" y="83"/>
			<point x="653" y="139" type="curve"/>
			<point x="629" y="164" type="line"/>
			<point x="483" y="105"/>
			<point x="299" y="23"/>
			<point x="210" y="-23" type="curve"/>
			<point x="210" y="-60" type="line"/>
		</contour>
		<contour>
			<point x="933" y="0" type="line"/>
			<point x="964" y="0" type="line"/>
			<point x="964" y="1228" type="line"/>
			<point x="930" y="1228" type="line"/>
			<point x="930" y="983" type="line"/>
			<point x="930" y="906" type="line"/>
			<point x="929" y="891" type="line"/>
			<point x="929" y="142" type="line"/>
			<point x="930" y="25" type="line"/>
			<point x="938" y="34" type="line"/>
			<point x="226" y="363" type="line"/>
			<point x="239" y="334" type="line"/>
			<point x="239" y="633" type="line"/>
			<point x="225" y="610" type="line"/>
			<point x="429" y="706"/>
			<point x="696" y="806"/>
			<point x="956" y="888" type="curve"/>
			<point x="941" y="918" type="line"/>
			<point x="907" y="908"/>
			<point x="875" y="896"/>
			<point x="843" y="885" type="curve"/>
			<point x="834" y="882" type="line"/>
			<point x="598" y="804"/>
			<point x="380" y="717"/>
			<point x="204" y="638" type="curve"/>
			<point x="204" y="337" type="line"/>
		</contour>
		<contour>
			<point x="820" y="858" type="curve"/>
			<point x="850" y="873" type="line"/>
			<point x="778" y="994"/>
			<point x="704" y="1111"/>
			<point x="629" y="1230" type="curve"/>
			<point x="601" y="1230" type="line"/>
			<point x="522" y="1109" type="line" smooth="yes"/>
			<point x="460" y="1014"/>
			<point x="398" y="966"/>
			<point x="288" y="966" type="curve" smooth="yes"/>
			<point x="164" y="966"/>
			<point x="98" y="1028"/>
			<point x="98" y="1149" type="curve" smooth="yes"/>
			<point x="98" y="1228" type="line"/>
			<point x="64" y="1228" type="line"/>
			<point x="64" y="1149" type="line" smooth="yes"/>
			<point x="64" y="1005"/>
			<point x="146" y="933"/>
			<point x="289" y="933" type="curve" smooth="yes"/>
			<point x="410" y="933"/>
			<point x="477" y="980"/>
			<point x="552" y="1092" type="curve" smooth="yes"/>
			<point x="625" y="1201" type="line"/>
			<point x="613" y="1192" type="line"/>
			<point x="684" y="1083"/>
			<point x="753" y="972"/>
		</contour>
		<contour>
			<point x="1354" y="116" type="line"/>
			<point x="1384" y="116" type="line"/>
			<point x="1384" y="1228" type="line"/>
			<point x="1349" y="1228" type="line"/>
			<point x="1349" y="258" type="line"/>
			<point x="1351" y="141" type="line"/>
			<point x="1357" y="153" type="line"/>
			<point x="949" y="412" type="line"/>
			<point x="949" y="373" type="line"/>
		</contour>
	</outline>
</glyph>
<glyph name="VowelLruu.bn" format="2">
	<advance width="1353"/>
	<unicode hex="09E1"/>
	<anchor x="547" y="1485" name="top2"/>
	<outline>
		<contour>
			<point x="895" y="38" type="curve"/>
			<point x="862" y="16" type="line"/>
			<point x="1085" y="-34"/>
			<point x="1166" y="-136"/>
			<point x="1166" y="-301" type="curve" smooth="yes"/>
			<point x="1166" y="-377" type="line" smooth="yes"/>
			<point x="1166" y="-538"/>
			<point x="1061" y="-620"/>
			<point x="892" y="-620" type="curve" smooth="yes"/>
			<point x="823" y="-620" type="line"/>
			<point x="836" y="-634" type="line"/>
			<point x="836" y="-433" type="line" smooth="yes"/>
			<point x="836" y="-258"/>
			<point x="738" y="-170"/>
			<point x="583" y="-170" type="curve" smooth="yes"/>
			<point x="420" y="-170"/>
			<point x="332" y="-258"/>
			<point x="332" y="-429" type="curve" smooth="yes"/>
			<point x="332" y="-489" type="line" smooth="yes"/>
			<point x="332" y="-540"/>
			<point x="332" y="-594"/>
			<point x="332" y="-649" type="curve"/>
			<point x="365" y="-649" type="line"/>
			<point x="365" y="-596"/>
			<point x="365" y="-542"/>
			<point x="365" y="-489" type="curve" smooth="yes"/>
			<point x="365" y="-429" type="line" smooth="yes"/>
			<point x="365" y="-276"/>
			<point x="439" y="-200"/>
			<point x="583" y="-200" type="curve" smooth="yes"/>
			<point x="714" y="-200"/>
			<point x="803" y="-269"/>
			<point x="803" y="-433" type="curve" smooth="yes"/>
			<point x="803" y="-649" type="line"/>
			<point x="894" y="-649" type="line" smooth="yes"/>
			<point x="1081" y="-649"/>
			<point x="1200" y="-556"/>
			<point x="1200" y="-378" type="curve" smooth="yes"/>
			<point x="1200" y="-301" type="line" smooth="yes"/>
			<point x="1200" y="-127"/>
			<point x="1119" y="-13"/>
		</contour>
		<contour>
			<point x="164" y="0" type="curve"/>
			<point x="199" y="0" type="line"/>
			<point x="199" y="75"/>
			<point x="199" y="151"/>
			<point x="199" y="226" type="curve" smooth="yes"/>
			<point x="199" y="317" type="line" smooth="yes"/>
			<point x="199" y="509"/>
			<point x="283" y="596"/>
			<point x="451" y="596" type="curve" smooth="yes"/>
			<point x="603" y="596"/>
			<point x="704" y="517"/>
			<point x="704" y="312" type="curve" smooth="yes"/>
			<point x="704" y="0" type="line"/>
			<point x="809" y="0" type="line" smooth="yes"/>
			<point x="1040" y="0"/>
			<point x="1185" y="111"/>
			<point x="1185" y="349" type="curve" smooth="yes"/>
			<point x="1185" y="482" type="line" smooth="yes"/>
			<point x="1185" y="756"/>
			<point x="1049" y="902"/>
			<point x="736" y="959" type="curve" smooth="yes"/>
			<point x="501" y="1002" type="line" smooth="yes"/>
			<point x="332" y="1033"/>
			<point x="260" y="1098"/>
			<point x="260" y="1225" type="curve" smooth="yes"/>
			<point x="260" y="1239" type="line"/>
			<point x="226" y="1239" type="line"/>
			<point x="226" y="1225" type="line" smooth="yes"/>
			<point x="226" y="1081"/>
			<point x="304" y="1004"/>
			<point x="492" y="969" type="curve" smooth="yes"/>
			<point x="726" y="926" type="line" smooth="yes"/>
			<point x="1021" y="872"/>
			<point x="1150" y="740"/>
			<point x="1150" y="483" type="curve" smooth="yes"/>
			<point x="1150" y="350" type="line" smooth="yes"/>
			<point x="1150" y="133"/>
			<point x="1018" y="33"/>
			<point x="807" y="33" type="curve" smooth="yes"/>
			<point x="725" y="33" type="line"/>
			<point x="739" y="17" type="line"/>
			<point x="739" y="312" type="line" smooth="yes"/>
			<point x="739" y="531"/>
			<point x="629" y="630"/>
			<point x="450" y="630" type="curve" smooth="yes"/>
			<point x="263" y="630"/>
			<point x="164" y="531"/>
			<point x="164" y="318" type="curve" smooth="yes"/>
			<point x="164" y="228" type="line" smooth="yes"/>
			<point x="164" y="154"/>
			<point x="164" y="77"/>
		</contour>
	</outline>
</glyph>
<glyph name="SignLru.bn" format="2">
	<advance width="1163"/>
	<unicode hex="09E2"/>
	<outline>
		<contour>
			<point x="414" y="-675" type="curve"/>
			<point x="445" y="-675" type="line"/>
			<point x="445" y="-630"/>
			<point x="445" y="-585"/>
			<point x="445" y="-540" type="curve" smooth="yes"/>
			<point x="445" y="-477" type="line" smooth="yes"/>
			<point x="445" y="-371"/>
			<point x="493" y="-321"/>
			<point x="589" y="-321" type="curve" smooth="yes"/>
			<point x="675" y="-321"/>
			<point x="733" y="-367"/>
			<point x="733" y="-480" type="curve" smooth="yes"/>
			<point x="733" y="-676" type="line"/>
			<point x="801" y="-676" type="line" smooth="yes"/>
			<point x="941" y="-676"/>
			<point x="1028" y="-608"/>
			<point x="1028" y="-477" type="curve" smooth="yes"/>
			<point x="1028" y="-374" type="line" smooth="yes"/>
			<point x="1028" y="-221"/>
			<point x="946" y="-139"/>
			<point x="759" y="-96" type="curve" smooth="yes"/>
			<point x="624" y="-70" type="line" smooth="yes"/>
			<point x="524" y="-46"/>
			<point x="480" y="-13"/>
			<point x="480" y="62" type="curve" smooth="yes"/>
			<point x="480" y="71" type="line"/>
			<point x="450" y="71" type="line"/>
			<point x="450" y="62" type="line" smooth="yes"/>
			<point x="450" y="-26"/>
			<point x="498" y="-69"/>
			<point x="614" y="-97" type="curve" smooth="yes"/>
			<point x="749" y="-122" type="line" smooth="yes"/>
			<point x="922" y="-161"/>
			<point x="998" y="-233"/>
			<point x="998" y="-373" type="curve" smooth="yes"/>
			<point x="998" y="-476" type="line" smooth="yes"/>
			<point x="998" y="-590"/>
			<point x="922" y="-648"/>
			<point x="800" y="-648" type="curve" smooth="yes"/>
			<point x="751" y="-648" type="line"/>
			<point x="763" y="-662" type="line"/>
			<point x="763" y="-480" type="line" smooth="yes"/>
			<point x="763" y="-354"/>
			<point x="697" y="-293"/>
			<point x="588" y="-293" type="curve" smooth="yes"/>
			<point x="474" y="-293"/>
			<point x="414" y="-354"/>
			<point x="414" y="-477" type="curve" smooth="yes"/>
			<point x="414" y="-539" type="line" smooth="yes"/>
			<point x="414" y="-584"/>
			<point x="414" y="-630"/>
		</contour>
	</outline>
</glyph>
<glyph name="SignLruu.bn" format="2">
  <advance width="1171"/>
  <unicode hex="09E3"/>
  <outline>
    <contour>
      <point x="853" y="-646" type="curve"/>
      <point x="830" y="-666" type="line"/>
      <point x="953" y="-694"/>
      <point x="1008" y="-746"/>
      <point x="1008" y="-843" type="curve" smooth="yes"/>
      <point x="1008" y="-917" type="line" smooth="yes"/>
      <point x="1008" y="-999"/>
      <point x="947" y="-1040"/>
      <point x="851" y="-1040" type="curve" smooth="yes"/>
      <point x="809" y="-1040" type="line"/>
      <point x="821" y="-1053" type="line"/>
      <point x="821" y="-929" type="line" smooth="yes"/>
      <point x="821" y="-826"/>
      <point x="762" y="-774"/>
      <point x="667" y="-774" type="curve" smooth="yes"/>
      <point x="569" y="-774"/>
      <point x="516" y="-826"/>
      <point x="516" y="-927" type="curve" smooth="yes"/>
      <point x="516" y="-967" type="line" smooth="yes"/>
      <point x="516" y="-1000"/>
      <point x="516" y="-1032"/>
      <point x="516" y="-1064" type="curve"/>
      <point x="544" y="-1064" type="line"/>
      <point x="544" y="-1033"/>
      <point x="544" y="-1001"/>
      <point x="544" y="-968" type="curve" smooth="yes"/>
      <point x="544" y="-927" type="line" smooth="yes"/>
      <point x="544" y="-842"/>
      <point x="586" y="-800"/>
      <point x="668" y="-800" type="curve" smooth="yes"/>
      <point x="743" y="-800"/>
      <point x="794" y="-839"/>
      <point x="794" y="-929" type="curve" smooth="yes"/>
      <point x="794" y="-1065" type="line"/>
      <point x="851" y="-1065" type="line" smooth="yes"/>
      <point x="965" y="-1065"/>
      <point x="1038" y="-1014"/>
      <point x="1038" y="-918" type="curve" smooth="yes"/>
      <point x="1038" y="-842" type="line" smooth="yes"/>
      <point x="1038" y="-743"/>
      <point x="989" y="-677"/>
    </contour>
    <contour>
      <point x="414" y="-675" type="curve"/>
      <point x="445" y="-675" type="line"/>
      <point x="445" y="-630"/>
      <point x="445" y="-585"/>
      <point x="445" y="-540" type="curve" smooth="yes"/>
      <point x="445" y="-477" type="line" smooth="yes"/>
      <point x="445" y="-371"/>
      <point x="493" y="-321"/>
      <point x="589" y="-321" type="curve" smooth="yes"/>
      <point x="675" y="-321"/>
      <point x="733" y="-367"/>
      <point x="733" y="-480" type="curve" smooth="yes"/>
      <point x="733" y="-676" type="line"/>
      <point x="801" y="-676" type="line" smooth="yes"/>
      <point x="941" y="-676"/>
      <point x="1028" y="-608"/>
      <point x="1028" y="-477" type="curve" smooth="yes"/>
      <point x="1028" y="-374" type="line" smooth="yes"/>
      <point x="1028" y="-221"/>
      <point x="946" y="-139"/>
      <point x="759" y="-96" type="curve" smooth="yes"/>
      <point x="624" y="-70" type="line" smooth="yes"/>
      <point x="524" y="-46"/>
      <point x="480" y="-13"/>
      <point x="480" y="62" type="curve" smooth="yes"/>
      <point x="480" y="71" type="line"/>
      <point x="450" y="71" type="line"/>
      <point x="450" y="62" type="line" smooth="yes"/>
      <point x="450" y="-26"/>
      <point x="498" y="-69"/>
      <point x="614" y="-97" type="curve" smooth="yes"/>
      <point x="749" y="-122" type="line" smooth="yes"/>
      <point x="922" y="-161"/>
      <point x="998" y="-233"/>
      <point x="998" y="-373" type="curve" smooth="yes"/>
      <point x="998" y="-476" type="line" smooth="yes"/>
      <point x="998" y="-590"/>
      <point x="922" y="-648"/>
      <point x="800" y="-648" type="curve" smooth="yes"/>
      <point x="751" y="-648" type="line"/>
      <point x="763" y="-662" type="line"/>
      <point x="763" y="-480" type="line" smooth="yes"/>
      <point x="763" y="-354"/>
      <point x="697" y="-293"/>
      <point x="588" y="-293" type="curve" smooth="yes"/>
      <point x="474" y="-293"/>
      <point x="414" y="-354"/>
      <point x="414" y="-477" type="curve" smooth="yes"/>
      <point x="414" y="-539" type="line" smooth="yes"/>
      <point x="414" y="-584"/>
      <point x="414" y="-630"/>
    </contour>
  </outline>
</glyph>
<glyph name="Zero.bn" format="2">
	<advance width="1133"/>
	<unicode hex="09E6"/>
	<outline>
		<contour>
			<point x="568" y="20" type="curve" smooth="yes"/>
			<point x="827" y="20"/>
			<point x="972" y="170"/>
			<point x="972" y="448" type="curve" smooth="yes"/>
			<point x="972" y="816" type="line" smooth="yes"/>
			<point x="972" y="1093"/>
			<point x="823" y="1239"/>
			<point x="565" y="1239" type="curve" smooth="yes"/>
			<point x="310" y="1239"/>
			<point x="161" y="1093"/>
			<point x="161" y="816" type="curve" smooth="yes"/>
			<point x="161" y="448" type="line" smooth="yes"/>
			<point x="161" y="170"/>
			<point x="307" y="20"/>
		</contour>
		<contour>
			<point x="566" y="53" type="curve" smooth="yes"/>
			<point x="336" y="53"/>
			<point x="197" y="187"/>
			<point x="197" y="448" type="curve" smooth="yes"/>
			<point x="197" y="816" type="line" smooth="yes"/>
			<point x="197" y="1074"/>
			<point x="336" y="1206"/>
			<point x="566" y="1206" type="curve" smooth="yes"/>
			<point x="801" y="1206"/>
			<point x="937" y="1076"/>
			<point x="937" y="816" type="curve" smooth="yes"/>
			<point x="937" y="448" type="line" smooth="yes"/>
			<point x="937" y="187"/>
			<point x="801" y="53"/>
		</contour>
	</outline>
</glyph>
<glyph name="One.bn" format="2">
  <advance width="1096"/>
  <unicode hex="09E7"/>
  <outline>
    <contour>
      <point x="940" y="400" type="line" smooth="yes"/>
      <point x="940" y="619"/>
      <point x="872" y="743"/>
      <point x="634" y="865" type="curve" smooth="yes"/>
      <point x="330" y="1021" type="line" smooth="yes"/>
      <point x="220" y="1077"/>
      <point x="189" y="1139"/>
      <point x="189" y="1216" type="curve" smooth="yes"/>
      <point x="189" y="1239" type="line"/>
      <point x="155" y="1239" type="line"/>
      <point x="155" y="1217" type="line" smooth="yes"/>
      <point x="155" y="1121"/>
      <point x="191" y="1055"/>
      <point x="317" y="990" type="curve" smooth="yes"/>
      <point x="621" y="834" type="line" smooth="yes"/>
      <point x="842" y="721"/>
      <point x="905" y="607"/>
      <point x="905" y="401" type="curve" smooth="yes"/>
      <point x="905" y="374" type="line" smooth="yes"/>
      <point x="905" y="159"/>
      <point x="762" y="48"/>
      <point x="539" y="48" type="curve" smooth="yes"/>
      <point x="313" y="48"/>
      <point x="172" y="156"/>
      <point x="172" y="361" type="curve" smooth="yes"/>
      <point x="172" y="428"/>
      <point x="172" y="448"/>
      <point x="172" y="519" type="curve"/>
      <point x="137" y="519" type="line"/>
      <point x="137" y="450"/>
      <point x="137" y="433"/>
      <point x="137" y="365" type="curve" smooth="yes"/>
      <point x="137" y="134"/>
      <point x="291" y="14"/>
      <point x="539" y="14" type="curve" smooth="yes"/>
      <point x="785" y="14"/>
      <point x="940" y="141"/>
      <point x="940" y="375" type="curve" smooth="yes"/>
    </contour>
  </outline>
</glyph>
<glyph name="Two.bn" format="2">
	<advance width="1072"/>
	<unicode hex="09E8"/>
	<outline>
		<contour>
			<point x="1007" y="-41" type="line"/>
			<point x="1012" y="-6" type="line"/>
			<point x="560" y="192" type="line"/>
			<point x="263" y="309" type="line"/>
			<point x="278" y="285" type="line"/>
			<point x="285" y="307" type="line"/>
			<point x="248" y="305" type="line"/>
			<point x="337" y="264"/>
			<point x="431" y="246"/>
			<point x="543" y="246" type="curve" smooth="yes"/>
			<point x="764" y="246"/>
			<point x="882" y="351"/>
			<point x="882" y="517" type="curve" smooth="yes"/>
			<point x="882" y="539" type="line" smooth="yes"/>
			<point x="882" y="728"/>
			<point x="780" y="818"/>
			<point x="589" y="897" type="curve" smooth="yes"/>
			<point x="293" y="1019" type="line" smooth="yes"/>
			<point x="185" y="1064"/>
			<point x="139" y="1131"/>
			<point x="139" y="1222" type="curve" smooth="yes"/>
			<point x="139" y="1239" type="line"/>
			<point x="105" y="1239" type="line"/>
			<point x="105" y="1222" type="line" smooth="yes"/>
			<point x="105" y="1111"/>
			<point x="161" y="1039"/>
			<point x="280" y="989" type="curve" smooth="yes"/>
			<point x="576" y="866" type="line" smooth="yes"/>
			<point x="751" y="793"/>
			<point x="847" y="714"/>
			<point x="847" y="538" type="curve" smooth="yes"/>
			<point x="847" y="517" type="line" smooth="yes"/>
			<point x="847" y="370"/>
			<point x="741" y="278"/>
			<point x="540" y="278" type="curve" smooth="yes"/>
			<point x="426" y="278"/>
			<point x="329" y="298"/>
			<point x="257" y="329" type="curve" smooth="yes"/>
			<point x="119" y="388" type="line"/>
			<point x="115" y="347" type="line"/>
		</contour>
	</outline>
</glyph>
